<?xml version="1.0" encoding="utf-8" standalone="no"?>
<!DOCTYPE svg PUBLIC "-//W3C//DTD SVG 1.1//EN"
  "http://www.w3.org/Graphics/SVG/1.1/DTD/svg11.dtd">
<svg xmlns:xlink="http://www.w3.org/1999/xlink" width="511.070455pt" height="319.010852pt" viewBox="0 0 511.070455 319.010852" xmlns="http://www.w3.org/2000/svg" version="1.1">
 <metadata>
  <rdf:RDF xmlns:dc="http://purl.org/dc/elements/1.1/" xmlns:cc="http://creativecommons.org/ns#" xmlns:rdf="http://www.w3.org/1999/02/22-rdf-syntax-ns#">
   <cc:Work>
    <dc:type rdf:resource="http://purl.org/dc/dcmitype/StillImage"/>
    <dc:date>2026-06-20T21:41:47.043834</dc:date>
    <dc:format>image/svg+xml</dc:format>
    <dc:creator>
     <cc:Agent>
      <dc:title>Matplotlib v3.10.8, https://matplotlib.org/</dc:title>
     </cc:Agent>
    </dc:creator>
   </cc:Work>
  </rdf:RDF>
 </metadata>
 <defs>
  <style type="text/css">*{stroke-linejoin: round; stroke-linecap: butt}</style>
 </defs>
 <g id="figure_1">
  <g id="patch_1">
   <path d="M 0 319.010852 
L 511.070455 319.010852 
L 511.070455 0 
L 0 0 
z
" style="fill: #ffffff"/>
  </g>
  <g id="axes_1">
   <g id="patch_2">
    <path d="M 104.725 281.432727 
L 503.870455 281.432727 
L 503.870455 21.56 
L 104.725 21.56 
z
" style="fill: #ffffff"/>
   </g>
   <g id="patch_3">
    <path d="M 341.842912 269.620331 
L 157.553075 269.620331 
L 157.553075 248.143246 
L 341.842912 248.143246 
z
" clip-path="url(#p285b056c82)" style="fill: #b23b3b; stroke: #ffffff; stroke-linejoin: miter"/>
   </g>
   <g id="patch_4">
    <path d="M 341.842912 238.938781 
L 258.864909 238.938781 
L 258.864909 217.461696 
L 341.842912 217.461696 
z
" clip-path="url(#p285b056c82)" style="fill: #b23b3b; stroke: #ffffff; stroke-linejoin: miter"/>
   </g>
   <g id="patch_5">
    <path d="M 341.842912 208.257231 
L 264.792438 208.257231 
L 264.792438 186.780146 
L 341.842912 186.780146 
z
" clip-path="url(#p285b056c82)" style="fill: #b23b3b; stroke: #ffffff; stroke-linejoin: miter"/>
   </g>
   <g id="patch_6">
    <path d="M 341.842912 177.575681 
L 304.923166 177.575681 
L 304.923166 156.098596 
L 341.842912 156.098596 
z
" clip-path="url(#p285b056c82)" style="fill: #b23b3b; stroke: #ffffff; stroke-linejoin: miter"/>
   </g>
   <g id="patch_7">
    <path d="M 341.842912 146.894131 
L 310.319713 146.894131 
L 310.319713 125.417046 
L 341.842912 125.417046 
z
" clip-path="url(#p285b056c82)" style="fill: #b23b3b; stroke: #ffffff; stroke-linejoin: miter"/>
   </g>
   <g id="patch_8">
    <path d="M 341.842912 116.212581 
L 330.448189 116.212581 
L 330.448189 94.735496 
L 341.842912 94.735496 
z
" clip-path="url(#p285b056c82)" style="fill: #b23b3b; stroke: #ffffff; stroke-linejoin: miter"/>
   </g>
   <g id="patch_9">
    <path d="M 341.842912 85.531031 
L 417.436821 85.531031 
L 417.436821 64.053947 
L 341.842912 64.053947 
z
" clip-path="url(#p285b056c82)" style="fill: #1b9e77; stroke: #ffffff; stroke-linejoin: miter"/>
   </g>
   <g id="patch_10">
    <path d="M 341.842912 54.849482 
L 451.04238 54.849482 
L 451.04238 33.372397 
L 341.842912 33.372397 
z
" clip-path="url(#p285b056c82)" style="fill: #1b9e77; stroke: #ffffff; stroke-linejoin: miter"/>
   </g>
   <g id="matplotlib.axis_1">
    <g id="xtick_1">
     <g id="line2d_1">
      <path d="M 117.83542 281.432727 
L 117.83542 21.56 
" clip-path="url(#p285b056c82)" style="fill: none; stroke: #b0b0b0; stroke-opacity: 0.25; stroke-width: 0.6; stroke-linecap: square"/>
     </g>
     <g id="line2d_2">
      <defs>
       <path id="mb0f7fc6d13" d="M 0 0 
L 0 3.5 
" style="stroke: #000000; stroke-width: 0.8"/>
      </defs>
      <g>
       <use xlink:href="#mb0f7fc6d13" x="117.83542" y="281.432727" style="stroke: #000000; stroke-width: 0.8"/>
      </g>
     </g>
     <g id="text_1">
      <!-- −8000 -->
      <g transform="translate(100.920577 296.031165) scale(0.1 -0.1)">
       <defs>
        <path id="DejaVuSans-2212" d="M 678 2272 
L 4684 2272 
L 4684 1741 
L 678 1741 
L 678 2272 
z
" transform="scale(0.015625)"/>
        <path id="DejaVuSans-38" d="M 2034 2216 
Q 1584 2216 1326 1975 
Q 1069 1734 1069 1313 
Q 1069 891 1326 650 
Q 1584 409 2034 409 
Q 2484 409 2743 651 
Q 3003 894 3003 1313 
Q 3003 1734 2745 1975 
Q 2488 2216 2034 2216 
z
M 1403 2484 
Q 997 2584 770 2862 
Q 544 3141 544 3541 
Q 544 4100 942 4425 
Q 1341 4750 2034 4750 
Q 2731 4750 3128 4425 
Q 3525 4100 3525 3541 
Q 3525 3141 3298 2862 
Q 3072 2584 2669 2484 
Q 3125 2378 3379 2068 
Q 3634 1759 3634 1313 
Q 3634 634 3220 271 
Q 2806 -91 2034 -91 
Q 1263 -91 848 271 
Q 434 634 434 1313 
Q 434 1759 690 2068 
Q 947 2378 1403 2484 
z
M 1172 3481 
Q 1172 3119 1398 2916 
Q 1625 2713 2034 2713 
Q 2441 2713 2670 2916 
Q 2900 3119 2900 3481 
Q 2900 3844 2670 4047 
Q 2441 4250 2034 4250 
Q 1625 4250 1398 4047 
Q 1172 3844 1172 3481 
z
" transform="scale(0.015625)"/>
        <path id="DejaVuSans-30" d="M 2034 4250 
Q 1547 4250 1301 3770 
Q 1056 3291 1056 2328 
Q 1056 1369 1301 889 
Q 1547 409 2034 409 
Q 2525 409 2770 889 
Q 3016 1369 3016 2328 
Q 3016 3291 2770 3770 
Q 2525 4250 2034 4250 
z
M 2034 4750 
Q 2819 4750 3233 4129 
Q 3647 3509 3647 2328 
Q 3647 1150 3233 529 
Q 2819 -91 2034 -91 
Q 1250 -91 836 529 
Q 422 1150 422 2328 
Q 422 3509 836 4129 
Q 1250 4750 2034 4750 
z
" transform="scale(0.015625)"/>
       </defs>
       <use xlink:href="#DejaVuSans-2212"/>
       <use xlink:href="#DejaVuSans-38" transform="translate(83.789062 0)"/>
       <use xlink:href="#DejaVuSans-30" transform="translate(147.412109 0)"/>
       <use xlink:href="#DejaVuSans-30" transform="translate(211.035156 0)"/>
       <use xlink:href="#DejaVuSans-30" transform="translate(274.658203 0)"/>
      </g>
     </g>
    </g>
    <g id="xtick_2">
     <g id="line2d_3">
      <path d="M 173.837293 281.432727 
L 173.837293 21.56 
" clip-path="url(#p285b056c82)" style="fill: none; stroke: #b0b0b0; stroke-opacity: 0.25; stroke-width: 0.6; stroke-linecap: square"/>
     </g>
     <g id="line2d_4">
      <g>
       <use xlink:href="#mb0f7fc6d13" x="173.837293" y="281.432727" style="stroke: #000000; stroke-width: 0.8"/>
      </g>
     </g>
     <g id="text_2">
      <!-- −6000 -->
      <g transform="translate(156.92245 296.031165) scale(0.1 -0.1)">
       <defs>
        <path id="DejaVuSans-36" d="M 2113 2584 
Q 1688 2584 1439 2293 
Q 1191 2003 1191 1497 
Q 1191 994 1439 701 
Q 1688 409 2113 409 
Q 2538 409 2786 701 
Q 3034 994 3034 1497 
Q 3034 2003 2786 2293 
Q 2538 2584 2113 2584 
z
M 3366 4563 
L 3366 3988 
Q 3128 4100 2886 4159 
Q 2644 4219 2406 4219 
Q 1781 4219 1451 3797 
Q 1122 3375 1075 2522 
Q 1259 2794 1537 2939 
Q 1816 3084 2150 3084 
Q 2853 3084 3261 2657 
Q 3669 2231 3669 1497 
Q 3669 778 3244 343 
Q 2819 -91 2113 -91 
Q 1303 -91 875 529 
Q 447 1150 447 2328 
Q 447 3434 972 4092 
Q 1497 4750 2381 4750 
Q 2619 4750 2861 4703 
Q 3103 4656 3366 4563 
z
" transform="scale(0.015625)"/>
       </defs>
       <use xlink:href="#DejaVuSans-2212"/>
       <use xlink:href="#DejaVuSans-36" transform="translate(83.789062 0)"/>
       <use xlink:href="#DejaVuSans-30" transform="translate(147.412109 0)"/>
       <use xlink:href="#DejaVuSans-30" transform="translate(211.035156 0)"/>
       <use xlink:href="#DejaVuSans-30" transform="translate(274.658203 0)"/>
      </g>
     </g>
    </g>
    <g id="xtick_3">
     <g id="line2d_5">
      <path d="M 229.839166 281.432727 
L 229.839166 21.56 
" clip-path="url(#p285b056c82)" style="fill: none; stroke: #b0b0b0; stroke-opacity: 0.25; stroke-width: 0.6; stroke-linecap: square"/>
     </g>
     <g id="line2d_6">
      <g>
       <use xlink:href="#mb0f7fc6d13" x="229.839166" y="281.432727" style="stroke: #000000; stroke-width: 0.8"/>
      </g>
     </g>
     <g id="text_3">
      <!-- −4000 -->
      <g transform="translate(212.924323 296.031165) scale(0.1 -0.1)">
       <defs>
        <path id="DejaVuSans-34" d="M 2419 4116 
L 825 1625 
L 2419 1625 
L 2419 4116 
z
M 2253 4666 
L 3047 4666 
L 3047 1625 
L 3713 1625 
L 3713 1100 
L 3047 1100 
L 3047 0 
L 2419 0 
L 2419 1100 
L 313 1100 
L 313 1709 
L 2253 4666 
z
" transform="scale(0.015625)"/>
       </defs>
       <use xlink:href="#DejaVuSans-2212"/>
       <use xlink:href="#DejaVuSans-34" transform="translate(83.789062 0)"/>
       <use xlink:href="#DejaVuSans-30" transform="translate(147.412109 0)"/>
       <use xlink:href="#DejaVuSans-30" transform="translate(211.035156 0)"/>
       <use xlink:href="#DejaVuSans-30" transform="translate(274.658203 0)"/>
      </g>
     </g>
    </g>
    <g id="xtick_4">
     <g id="line2d_7">
      <path d="M 285.841039 281.432727 
L 285.841039 21.56 
" clip-path="url(#p285b056c82)" style="fill: none; stroke: #b0b0b0; stroke-opacity: 0.25; stroke-width: 0.6; stroke-linecap: square"/>
     </g>
     <g id="line2d_8">
      <g>
       <use xlink:href="#mb0f7fc6d13" x="285.841039" y="281.432727" style="stroke: #000000; stroke-width: 0.8"/>
      </g>
     </g>
     <g id="text_4">
      <!-- −2000 -->
      <g transform="translate(268.926196 296.031165) scale(0.1 -0.1)">
       <defs>
        <path id="DejaVuSans-32" d="M 1228 531 
L 3431 531 
L 3431 0 
L 469 0 
L 469 531 
Q 828 903 1448 1529 
Q 2069 2156 2228 2338 
Q 2531 2678 2651 2914 
Q 2772 3150 2772 3378 
Q 2772 3750 2511 3984 
Q 2250 4219 1831 4219 
Q 1534 4219 1204 4116 
Q 875 4013 500 3803 
L 500 4441 
Q 881 4594 1212 4672 
Q 1544 4750 1819 4750 
Q 2544 4750 2975 4387 
Q 3406 4025 3406 3419 
Q 3406 3131 3298 2873 
Q 3191 2616 2906 2266 
Q 2828 2175 2409 1742 
Q 1991 1309 1228 531 
z
" transform="scale(0.015625)"/>
       </defs>
       <use xlink:href="#DejaVuSans-2212"/>
       <use xlink:href="#DejaVuSans-32" transform="translate(83.789062 0)"/>
       <use xlink:href="#DejaVuSans-30" transform="translate(147.412109 0)"/>
       <use xlink:href="#DejaVuSans-30" transform="translate(211.035156 0)"/>
       <use xlink:href="#DejaVuSans-30" transform="translate(274.658203 0)"/>
      </g>
     </g>
    </g>
    <g id="xtick_5">
     <g id="line2d_9">
      <path d="M 341.842912 281.432727 
L 341.842912 21.56 
" clip-path="url(#p285b056c82)" style="fill: none; stroke: #b0b0b0; stroke-opacity: 0.25; stroke-width: 0.6; stroke-linecap: square"/>
     </g>
     <g id="line2d_10">
      <g>
       <use xlink:href="#mb0f7fc6d13" x="341.842912" y="281.432727" style="stroke: #000000; stroke-width: 0.8"/>
      </g>
     </g>
     <g id="text_5">
      <!-- 0 -->
      <g transform="translate(338.661662 296.031165) scale(0.1 -0.1)">
       <use xlink:href="#DejaVuSans-30"/>
      </g>
     </g>
    </g>
    <g id="xtick_6">
     <g id="line2d_11">
      <path d="M 397.844785 281.432727 
L 397.844785 21.56 
" clip-path="url(#p285b056c82)" style="fill: none; stroke: #b0b0b0; stroke-opacity: 0.25; stroke-width: 0.6; stroke-linecap: square"/>
     </g>
     <g id="line2d_12">
      <g>
       <use xlink:href="#mb0f7fc6d13" x="397.844785" y="281.432727" style="stroke: #000000; stroke-width: 0.8"/>
      </g>
     </g>
     <g id="text_6">
      <!-- 2000 -->
      <g transform="translate(385.119785 296.031165) scale(0.1 -0.1)">
       <use xlink:href="#DejaVuSans-32"/>
       <use xlink:href="#DejaVuSans-30" transform="translate(63.623047 0)"/>
       <use xlink:href="#DejaVuSans-30" transform="translate(127.246094 0)"/>
       <use xlink:href="#DejaVuSans-30" transform="translate(190.869141 0)"/>
      </g>
     </g>
    </g>
    <g id="xtick_7">
     <g id="line2d_13">
      <path d="M 453.846658 281.432727 
L 453.846658 21.56 
" clip-path="url(#p285b056c82)" style="fill: none; stroke: #b0b0b0; stroke-opacity: 0.25; stroke-width: 0.6; stroke-linecap: square"/>
     </g>
     <g id="line2d_14">
      <g>
       <use xlink:href="#mb0f7fc6d13" x="453.846658" y="281.432727" style="stroke: #000000; stroke-width: 0.8"/>
      </g>
     </g>
     <g id="text_7">
      <!-- 4000 -->
      <g transform="translate(441.121658 296.031165) scale(0.1 -0.1)">
       <use xlink:href="#DejaVuSans-34"/>
       <use xlink:href="#DejaVuSans-30" transform="translate(63.623047 0)"/>
       <use xlink:href="#DejaVuSans-30" transform="translate(127.246094 0)"/>
       <use xlink:href="#DejaVuSans-30" transform="translate(190.869141 0)"/>
      </g>
     </g>
    </g>
    <g id="text_8">
     <!-- Profitability index  $\Pi$  [MEUR/GW] -->
     <g transform="translate(221.347727 309.710852) scale(0.1 -0.1)">
      <defs>
       <path id="DejaVuSans-50" d="M 1259 4147 
L 1259 2394 
L 2053 2394 
Q 2494 2394 2734 2622 
Q 2975 2850 2975 3272 
Q 2975 3691 2734 3919 
Q 2494 4147 2053 4147 
L 1259 4147 
z
M 628 4666 
L 2053 4666 
Q 2838 4666 3239 4311 
Q 3641 3956 3641 3272 
Q 3641 2581 3239 2228 
Q 2838 1875 2053 1875 
L 1259 1875 
L 1259 0 
L 628 0 
L 628 4666 
z
" transform="scale(0.015625)"/>
       <path id="DejaVuSans-72" d="M 2631 2963 
Q 2534 3019 2420 3045 
Q 2306 3072 2169 3072 
Q 1681 3072 1420 2755 
Q 1159 2438 1159 1844 
L 1159 0 
L 581 0 
L 581 3500 
L 1159 3500 
L 1159 2956 
Q 1341 3275 1631 3429 
Q 1922 3584 2338 3584 
Q 2397 3584 2469 3576 
Q 2541 3569 2628 3553 
L 2631 2963 
z
" transform="scale(0.015625)"/>
       <path id="DejaVuSans-6f" d="M 1959 3097 
Q 1497 3097 1228 2736 
Q 959 2375 959 1747 
Q 959 1119 1226 758 
Q 1494 397 1959 397 
Q 2419 397 2687 759 
Q 2956 1122 2956 1747 
Q 2956 2369 2687 2733 
Q 2419 3097 1959 3097 
z
M 1959 3584 
Q 2709 3584 3137 3096 
Q 3566 2609 3566 1747 
Q 3566 888 3137 398 
Q 2709 -91 1959 -91 
Q 1206 -91 779 398 
Q 353 888 353 1747 
Q 353 2609 779 3096 
Q 1206 3584 1959 3584 
z
" transform="scale(0.015625)"/>
       <path id="DejaVuSans-66" d="M 2375 4863 
L 2375 4384 
L 1825 4384 
Q 1516 4384 1395 4259 
Q 1275 4134 1275 3809 
L 1275 3500 
L 2222 3500 
L 2222 3053 
L 1275 3053 
L 1275 0 
L 697 0 
L 697 3053 
L 147 3053 
L 147 3500 
L 697 3500 
L 697 3744 
Q 697 4328 969 4595 
Q 1241 4863 1831 4863 
L 2375 4863 
z
" transform="scale(0.015625)"/>
       <path id="DejaVuSans-69" d="M 603 3500 
L 1178 3500 
L 1178 0 
L 603 0 
L 603 3500 
z
M 603 4863 
L 1178 4863 
L 1178 4134 
L 603 4134 
L 603 4863 
z
" transform="scale(0.015625)"/>
       <path id="DejaVuSans-74" d="M 1172 4494 
L 1172 3500 
L 2356 3500 
L 2356 3053 
L 1172 3053 
L 1172 1153 
Q 1172 725 1289 603 
Q 1406 481 1766 481 
L 2356 481 
L 2356 0 
L 1766 0 
Q 1100 0 847 248 
Q 594 497 594 1153 
L 594 3053 
L 172 3053 
L 172 3500 
L 594 3500 
L 594 4494 
L 1172 4494 
z
" transform="scale(0.015625)"/>
       <path id="DejaVuSans-61" d="M 2194 1759 
Q 1497 1759 1228 1600 
Q 959 1441 959 1056 
Q 959 750 1161 570 
Q 1363 391 1709 391 
Q 2188 391 2477 730 
Q 2766 1069 2766 1631 
L 2766 1759 
L 2194 1759 
z
M 3341 1997 
L 3341 0 
L 2766 0 
L 2766 531 
Q 2569 213 2275 61 
Q 1981 -91 1556 -91 
Q 1019 -91 701 211 
Q 384 513 384 1019 
Q 384 1609 779 1909 
Q 1175 2209 1959 2209 
L 2766 2209 
L 2766 2266 
Q 2766 2663 2505 2880 
Q 2244 3097 1772 3097 
Q 1472 3097 1187 3025 
Q 903 2953 641 2809 
L 641 3341 
Q 956 3463 1253 3523 
Q 1550 3584 1831 3584 
Q 2591 3584 2966 3190 
Q 3341 2797 3341 1997 
z
" transform="scale(0.015625)"/>
       <path id="DejaVuSans-62" d="M 3116 1747 
Q 3116 2381 2855 2742 
Q 2594 3103 2138 3103 
Q 1681 3103 1420 2742 
Q 1159 2381 1159 1747 
Q 1159 1113 1420 752 
Q 1681 391 2138 391 
Q 2594 391 2855 752 
Q 3116 1113 3116 1747 
z
M 1159 2969 
Q 1341 3281 1617 3432 
Q 1894 3584 2278 3584 
Q 2916 3584 3314 3078 
Q 3713 2572 3713 1747 
Q 3713 922 3314 415 
Q 2916 -91 2278 -91 
Q 1894 -91 1617 61 
Q 1341 213 1159 525 
L 1159 0 
L 581 0 
L 581 4863 
L 1159 4863 
L 1159 2969 
z
" transform="scale(0.015625)"/>
       <path id="DejaVuSans-6c" d="M 603 4863 
L 1178 4863 
L 1178 0 
L 603 0 
L 603 4863 
z
" transform="scale(0.015625)"/>
       <path id="DejaVuSans-79" d="M 2059 -325 
Q 1816 -950 1584 -1140 
Q 1353 -1331 966 -1331 
L 506 -1331 
L 506 -850 
L 844 -850 
Q 1081 -850 1212 -737 
Q 1344 -625 1503 -206 
L 1606 56 
L 191 3500 
L 800 3500 
L 1894 763 
L 2988 3500 
L 3597 3500 
L 2059 -325 
z
" transform="scale(0.015625)"/>
       <path id="DejaVuSans-20" transform="scale(0.015625)"/>
       <path id="DejaVuSans-6e" d="M 3513 2113 
L 3513 0 
L 2938 0 
L 2938 2094 
Q 2938 2591 2744 2837 
Q 2550 3084 2163 3084 
Q 1697 3084 1428 2787 
Q 1159 2491 1159 1978 
L 1159 0 
L 581 0 
L 581 3500 
L 1159 3500 
L 1159 2956 
Q 1366 3272 1645 3428 
Q 1925 3584 2291 3584 
Q 2894 3584 3203 3211 
Q 3513 2838 3513 2113 
z
" transform="scale(0.015625)"/>
       <path id="DejaVuSans-64" d="M 2906 2969 
L 2906 4863 
L 3481 4863 
L 3481 0 
L 2906 0 
L 2906 525 
Q 2725 213 2448 61 
Q 2172 -91 1784 -91 
Q 1150 -91 751 415 
Q 353 922 353 1747 
Q 353 2572 751 3078 
Q 1150 3584 1784 3584 
Q 2172 3584 2448 3432 
Q 2725 3281 2906 2969 
z
M 947 1747 
Q 947 1113 1208 752 
Q 1469 391 1925 391 
Q 2381 391 2643 752 
Q 2906 1113 2906 1747 
Q 2906 2381 2643 2742 
Q 2381 3103 1925 3103 
Q 1469 3103 1208 2742 
Q 947 2381 947 1747 
z
" transform="scale(0.015625)"/>
       <path id="DejaVuSans-65" d="M 3597 1894 
L 3597 1613 
L 953 1613 
Q 991 1019 1311 708 
Q 1631 397 2203 397 
Q 2534 397 2845 478 
Q 3156 559 3463 722 
L 3463 178 
Q 3153 47 2828 -22 
Q 2503 -91 2169 -91 
Q 1331 -91 842 396 
Q 353 884 353 1716 
Q 353 2575 817 3079 
Q 1281 3584 2069 3584 
Q 2775 3584 3186 3129 
Q 3597 2675 3597 1894 
z
M 3022 2063 
Q 3016 2534 2758 2815 
Q 2500 3097 2075 3097 
Q 1594 3097 1305 2825 
Q 1016 2553 972 2059 
L 3022 2063 
z
" transform="scale(0.015625)"/>
       <path id="DejaVuSans-78" d="M 3513 3500 
L 2247 1797 
L 3578 0 
L 2900 0 
L 1881 1375 
L 863 0 
L 184 0 
L 1544 1831 
L 300 3500 
L 978 3500 
L 1906 2253 
L 2834 3500 
L 3513 3500 
z
" transform="scale(0.015625)"/>
       <path id="DejaVuSans-3a0" d="M 4184 4666 
L 4184 0 
L 3553 0 
L 3553 4134 
L 1259 4134 
L 1259 0 
L 628 0 
L 628 4666 
L 4184 4666 
z
" transform="scale(0.015625)"/>
       <path id="DejaVuSans-5b" d="M 550 4863 
L 1875 4863 
L 1875 4416 
L 1125 4416 
L 1125 -397 
L 1875 -397 
L 1875 -844 
L 550 -844 
L 550 4863 
z
" transform="scale(0.015625)"/>
       <path id="DejaVuSans-4d" d="M 628 4666 
L 1569 4666 
L 2759 1491 
L 3956 4666 
L 4897 4666 
L 4897 0 
L 4281 0 
L 4281 4097 
L 3078 897 
L 2444 897 
L 1241 4097 
L 1241 0 
L 628 0 
L 628 4666 
z
" transform="scale(0.015625)"/>
       <path id="DejaVuSans-45" d="M 628 4666 
L 3578 4666 
L 3578 4134 
L 1259 4134 
L 1259 2753 
L 3481 2753 
L 3481 2222 
L 1259 2222 
L 1259 531 
L 3634 531 
L 3634 0 
L 628 0 
L 628 4666 
z
" transform="scale(0.015625)"/>
       <path id="DejaVuSans-55" d="M 556 4666 
L 1191 4666 
L 1191 1831 
Q 1191 1081 1462 751 
Q 1734 422 2344 422 
Q 2950 422 3222 751 
Q 3494 1081 3494 1831 
L 3494 4666 
L 4128 4666 
L 4128 1753 
Q 4128 841 3676 375 
Q 3225 -91 2344 -91 
Q 1459 -91 1007 375 
Q 556 841 556 1753 
L 556 4666 
z
" transform="scale(0.015625)"/>
       <path id="DejaVuSans-52" d="M 2841 2188 
Q 3044 2119 3236 1894 
Q 3428 1669 3622 1275 
L 4263 0 
L 3584 0 
L 2988 1197 
Q 2756 1666 2539 1819 
Q 2322 1972 1947 1972 
L 1259 1972 
L 1259 0 
L 628 0 
L 628 4666 
L 2053 4666 
Q 2853 4666 3247 4331 
Q 3641 3997 3641 3322 
Q 3641 2881 3436 2590 
Q 3231 2300 2841 2188 
z
M 1259 4147 
L 1259 2491 
L 2053 2491 
Q 2509 2491 2742 2702 
Q 2975 2913 2975 3322 
Q 2975 3731 2742 3939 
Q 2509 4147 2053 4147 
L 1259 4147 
z
" transform="scale(0.015625)"/>
       <path id="DejaVuSans-2f" d="M 1625 4666 
L 2156 4666 
L 531 -594 
L 0 -594 
L 1625 4666 
z
" transform="scale(0.015625)"/>
       <path id="DejaVuSans-47" d="M 3809 666 
L 3809 1919 
L 2778 1919 
L 2778 2438 
L 4434 2438 
L 4434 434 
Q 4069 175 3628 42 
Q 3188 -91 2688 -91 
Q 1594 -91 976 548 
Q 359 1188 359 2328 
Q 359 3472 976 4111 
Q 1594 4750 2688 4750 
Q 3144 4750 3555 4637 
Q 3966 4525 4313 4306 
L 4313 3634 
Q 3963 3931 3569 4081 
Q 3175 4231 2741 4231 
Q 1884 4231 1454 3753 
Q 1025 3275 1025 2328 
Q 1025 1384 1454 906 
Q 1884 428 2741 428 
Q 3075 428 3337 486 
Q 3600 544 3809 666 
z
" transform="scale(0.015625)"/>
       <path id="DejaVuSans-57" d="M 213 4666 
L 850 4666 
L 1831 722 
L 2809 4666 
L 3519 4666 
L 4500 722 
L 5478 4666 
L 6119 4666 
L 4947 0 
L 4153 0 
L 3169 4050 
L 2175 0 
L 1381 0 
L 213 4666 
z
" transform="scale(0.015625)"/>
       <path id="DejaVuSans-5d" d="M 1947 4863 
L 1947 -844 
L 622 -844 
L 622 -397 
L 1369 -397 
L 1369 4416 
L 622 4416 
L 622 4863 
L 1947 4863 
z
" transform="scale(0.015625)"/>
      </defs>
      <use xlink:href="#DejaVuSans-50" transform="translate(0 0.015625)"/>
      <use xlink:href="#DejaVuSans-72" transform="translate(60.302734 0.015625)"/>
      <use xlink:href="#DejaVuSans-6f" transform="translate(101.416016 0.015625)"/>
      <use xlink:href="#DejaVuSans-66" transform="translate(162.597656 0.015625)"/>
      <use xlink:href="#DejaVuSans-69" transform="translate(197.802734 0.015625)"/>
      <use xlink:href="#DejaVuSans-74" transform="translate(225.585938 0.015625)"/>
      <use xlink:href="#DejaVuSans-61" transform="translate(264.794922 0.015625)"/>
      <use xlink:href="#DejaVuSans-62" transform="translate(326.074219 0.015625)"/>
      <use xlink:href="#DejaVuSans-69" transform="translate(389.550781 0.015625)"/>
      <use xlink:href="#DejaVuSans-6c" transform="translate(417.333984 0.015625)"/>
      <use xlink:href="#DejaVuSans-69" transform="translate(445.117188 0.015625)"/>
      <use xlink:href="#DejaVuSans-74" transform="translate(472.900391 0.015625)"/>
      <use xlink:href="#DejaVuSans-79" transform="translate(512.109375 0.015625)"/>
      <use xlink:href="#DejaVuSans-20" transform="translate(571.289062 0.015625)"/>
      <use xlink:href="#DejaVuSans-69" transform="translate(603.076172 0.015625)"/>
      <use xlink:href="#DejaVuSans-6e" transform="translate(630.859375 0.015625)"/>
      <use xlink:href="#DejaVuSans-64" transform="translate(694.238281 0.015625)"/>
      <use xlink:href="#DejaVuSans-65" transform="translate(757.714844 0.015625)"/>
      <use xlink:href="#DejaVuSans-78" transform="translate(819.238281 0.015625)"/>
      <use xlink:href="#DejaVuSans-20" transform="translate(878.417969 0.015625)"/>
      <use xlink:href="#DejaVuSans-20" transform="translate(910.205078 0.015625)"/>
      <use xlink:href="#DejaVuSans-3a0" transform="translate(941.992188 0.015625)"/>
      <use xlink:href="#DejaVuSans-20" transform="translate(1017.1875 0.015625)"/>
      <use xlink:href="#DejaVuSans-20" transform="translate(1048.974609 0.015625)"/>
      <use xlink:href="#DejaVuSans-5b" transform="translate(1080.761719 0.015625)"/>
      <use xlink:href="#DejaVuSans-4d" transform="translate(1119.775391 0.015625)"/>
      <use xlink:href="#DejaVuSans-45" transform="translate(1206.054688 0.015625)"/>
      <use xlink:href="#DejaVuSans-55" transform="translate(1269.238281 0.015625)"/>
      <use xlink:href="#DejaVuSans-52" transform="translate(1340.181641 0.015625)"/>
      <use xlink:href="#DejaVuSans-2f" transform="translate(1409.664062 0.015625)"/>
      <use xlink:href="#DejaVuSans-47" transform="translate(1443.355469 0.015625)"/>
      <use xlink:href="#DejaVuSans-57" transform="translate(1520.845703 0.015625)"/>
      <use xlink:href="#DejaVuSans-5d" transform="translate(1619.722656 0.015625)"/>
     </g>
    </g>
   </g>
   <g id="matplotlib.axis_2">
    <g id="ytick_1">
     <g id="line2d_15">
      <path d="M 104.725 258.881788 
L 503.870455 258.881788 
" clip-path="url(#p285b056c82)" style="fill: none; stroke: #b0b0b0; stroke-opacity: 0.25; stroke-width: 0.6; stroke-linecap: square"/>
     </g>
     <g id="line2d_16">
      <defs>
       <path id="m3d056b8a8c" d="M 0 0 
L -3.5 0 
" style="stroke: #000000; stroke-width: 0.8"/>
      </defs>
      <g>
       <use xlink:href="#m3d056b8a8c" x="104.725" y="258.881788" style="stroke: #000000; stroke-width: 0.8"/>
      </g>
     </g>
     <g id="text_9">
      <!-- Gas turbine -->
      <g transform="translate(39.475 262.681007) scale(0.1 -0.1)">
       <defs>
        <path id="DejaVuSans-73" d="M 2834 3397 
L 2834 2853 
Q 2591 2978 2328 3040 
Q 2066 3103 1784 3103 
Q 1356 3103 1142 2972 
Q 928 2841 928 2578 
Q 928 2378 1081 2264 
Q 1234 2150 1697 2047 
L 1894 2003 
Q 2506 1872 2764 1633 
Q 3022 1394 3022 966 
Q 3022 478 2636 193 
Q 2250 -91 1575 -91 
Q 1294 -91 989 -36 
Q 684 19 347 128 
L 347 722 
Q 666 556 975 473 
Q 1284 391 1588 391 
Q 1994 391 2212 530 
Q 2431 669 2431 922 
Q 2431 1156 2273 1281 
Q 2116 1406 1581 1522 
L 1381 1569 
Q 847 1681 609 1914 
Q 372 2147 372 2553 
Q 372 3047 722 3315 
Q 1072 3584 1716 3584 
Q 2034 3584 2315 3537 
Q 2597 3491 2834 3397 
z
" transform="scale(0.015625)"/>
        <path id="DejaVuSans-75" d="M 544 1381 
L 544 3500 
L 1119 3500 
L 1119 1403 
Q 1119 906 1312 657 
Q 1506 409 1894 409 
Q 2359 409 2629 706 
Q 2900 1003 2900 1516 
L 2900 3500 
L 3475 3500 
L 3475 0 
L 2900 0 
L 2900 538 
Q 2691 219 2414 64 
Q 2138 -91 1772 -91 
Q 1169 -91 856 284 
Q 544 659 544 1381 
z
M 1991 3584 
L 1991 3584 
z
" transform="scale(0.015625)"/>
       </defs>
       <use xlink:href="#DejaVuSans-47"/>
       <use xlink:href="#DejaVuSans-61" transform="translate(77.490234 0)"/>
       <use xlink:href="#DejaVuSans-73" transform="translate(138.769531 0)"/>
       <use xlink:href="#DejaVuSans-20" transform="translate(190.869141 0)"/>
       <use xlink:href="#DejaVuSans-74" transform="translate(222.65625 0)"/>
       <use xlink:href="#DejaVuSans-75" transform="translate(261.865234 0)"/>
       <use xlink:href="#DejaVuSans-72" transform="translate(325.244141 0)"/>
       <use xlink:href="#DejaVuSans-62" transform="translate(366.357422 0)"/>
       <use xlink:href="#DejaVuSans-69" transform="translate(429.833984 0)"/>
       <use xlink:href="#DejaVuSans-6e" transform="translate(457.617188 0)"/>
       <use xlink:href="#DejaVuSans-65" transform="translate(520.996094 0)"/>
      </g>
     </g>
    </g>
    <g id="ytick_2">
     <g id="line2d_17">
      <path d="M 104.725 228.200238 
L 503.870455 228.200238 
" clip-path="url(#p285b056c82)" style="fill: none; stroke: #b0b0b0; stroke-opacity: 0.25; stroke-width: 0.6; stroke-linecap: square"/>
     </g>
     <g id="line2d_18">
      <g>
       <use xlink:href="#m3d056b8a8c" x="104.725" y="228.200238" style="stroke: #000000; stroke-width: 0.8"/>
      </g>
     </g>
     <g id="text_10">
      <!-- Gas boiler -->
      <g transform="translate(47.173438 231.999457) scale(0.1 -0.1)">
       <use xlink:href="#DejaVuSans-47"/>
       <use xlink:href="#DejaVuSans-61" transform="translate(77.490234 0)"/>
       <use xlink:href="#DejaVuSans-73" transform="translate(138.769531 0)"/>
       <use xlink:href="#DejaVuSans-20" transform="translate(190.869141 0)"/>
       <use xlink:href="#DejaVuSans-62" transform="translate(222.65625 0)"/>
       <use xlink:href="#DejaVuSans-6f" transform="translate(286.132812 0)"/>
       <use xlink:href="#DejaVuSans-69" transform="translate(347.314453 0)"/>
       <use xlink:href="#DejaVuSans-6c" transform="translate(375.097656 0)"/>
       <use xlink:href="#DejaVuSans-65" transform="translate(402.880859 0)"/>
       <use xlink:href="#DejaVuSans-72" transform="translate(464.404297 0)"/>
      </g>
     </g>
    </g>
    <g id="ytick_3">
     <g id="line2d_19">
      <path d="M 104.725 197.518688 
L 503.870455 197.518688 
" clip-path="url(#p285b056c82)" style="fill: none; stroke: #b0b0b0; stroke-opacity: 0.25; stroke-width: 0.6; stroke-linecap: square"/>
     </g>
     <g id="line2d_20">
      <g>
       <use xlink:href="#m3d056b8a8c" x="104.725" y="197.518688" style="stroke: #000000; stroke-width: 0.8"/>
      </g>
     </g>
     <g id="text_11">
      <!-- Wind offshore -->
      <g transform="translate(28.55625 201.317907) scale(0.1 -0.1)">
       <defs>
        <path id="DejaVuSans-68" d="M 3513 2113 
L 3513 0 
L 2938 0 
L 2938 2094 
Q 2938 2591 2744 2837 
Q 2550 3084 2163 3084 
Q 1697 3084 1428 2787 
Q 1159 2491 1159 1978 
L 1159 0 
L 581 0 
L 581 4863 
L 1159 4863 
L 1159 2956 
Q 1366 3272 1645 3428 
Q 1925 3584 2291 3584 
Q 2894 3584 3203 3211 
Q 3513 2838 3513 2113 
z
" transform="scale(0.015625)"/>
       </defs>
       <use xlink:href="#DejaVuSans-57"/>
       <use xlink:href="#DejaVuSans-69" transform="translate(96.626953 0)"/>
       <use xlink:href="#DejaVuSans-6e" transform="translate(124.410156 0)"/>
       <use xlink:href="#DejaVuSans-64" transform="translate(187.789062 0)"/>
       <use xlink:href="#DejaVuSans-20" transform="translate(251.265625 0)"/>
       <use xlink:href="#DejaVuSans-6f" transform="translate(283.052734 0)"/>
       <use xlink:href="#DejaVuSans-66" transform="translate(344.234375 0)"/>
       <use xlink:href="#DejaVuSans-66" transform="translate(379.439453 0)"/>
       <use xlink:href="#DejaVuSans-73" transform="translate(414.644531 0)"/>
       <use xlink:href="#DejaVuSans-68" transform="translate(466.744141 0)"/>
       <use xlink:href="#DejaVuSans-6f" transform="translate(530.123047 0)"/>
       <use xlink:href="#DejaVuSans-72" transform="translate(591.304688 0)"/>
       <use xlink:href="#DejaVuSans-65" transform="translate(630.167969 0)"/>
      </g>
     </g>
    </g>
    <g id="ytick_4">
     <g id="line2d_21">
      <path d="M 104.725 166.837139 
L 503.870455 166.837139 
" clip-path="url(#p285b056c82)" style="fill: none; stroke: #b0b0b0; stroke-opacity: 0.25; stroke-width: 0.6; stroke-linecap: square"/>
     </g>
     <g id="line2d_22">
      <g>
       <use xlink:href="#m3d056b8a8c" x="104.725" y="166.837139" style="stroke: #000000; stroke-width: 0.8"/>
      </g>
     </g>
     <g id="text_12">
      <!-- Wind onshore -->
      <g transform="translate(29.259375 170.636357) scale(0.1 -0.1)">
       <use xlink:href="#DejaVuSans-57"/>
       <use xlink:href="#DejaVuSans-69" transform="translate(96.626953 0)"/>
       <use xlink:href="#DejaVuSans-6e" transform="translate(124.410156 0)"/>
       <use xlink:href="#DejaVuSans-64" transform="translate(187.789062 0)"/>
       <use xlink:href="#DejaVuSans-20" transform="translate(251.265625 0)"/>
       <use xlink:href="#DejaVuSans-6f" transform="translate(283.052734 0)"/>
       <use xlink:href="#DejaVuSans-6e" transform="translate(344.234375 0)"/>
       <use xlink:href="#DejaVuSans-73" transform="translate(407.613281 0)"/>
       <use xlink:href="#DejaVuSans-68" transform="translate(459.712891 0)"/>
       <use xlink:href="#DejaVuSans-6f" transform="translate(523.091797 0)"/>
       <use xlink:href="#DejaVuSans-72" transform="translate(584.273438 0)"/>
       <use xlink:href="#DejaVuSans-65" transform="translate(623.136719 0)"/>
      </g>
     </g>
    </g>
    <g id="ytick_5">
     <g id="line2d_23">
      <path d="M 104.725 136.155589 
L 503.870455 136.155589 
" clip-path="url(#p285b056c82)" style="fill: none; stroke: #b0b0b0; stroke-opacity: 0.25; stroke-width: 0.6; stroke-linecap: square"/>
     </g>
     <g id="line2d_24">
      <g>
       <use xlink:href="#m3d056b8a8c" x="104.725" y="136.155589" style="stroke: #000000; stroke-width: 0.8"/>
      </g>
     </g>
     <g id="text_13">
      <!-- Heat pump -->
      <g transform="translate(42.05 139.954807) scale(0.1 -0.1)">
       <defs>
        <path id="DejaVuSans-48" d="M 628 4666 
L 1259 4666 
L 1259 2753 
L 3553 2753 
L 3553 4666 
L 4184 4666 
L 4184 0 
L 3553 0 
L 3553 2222 
L 1259 2222 
L 1259 0 
L 628 0 
L 628 4666 
z
" transform="scale(0.015625)"/>
        <path id="DejaVuSans-70" d="M 1159 525 
L 1159 -1331 
L 581 -1331 
L 581 3500 
L 1159 3500 
L 1159 2969 
Q 1341 3281 1617 3432 
Q 1894 3584 2278 3584 
Q 2916 3584 3314 3078 
Q 3713 2572 3713 1747 
Q 3713 922 3314 415 
Q 2916 -91 2278 -91 
Q 1894 -91 1617 61 
Q 1341 213 1159 525 
z
M 3116 1747 
Q 3116 2381 2855 2742 
Q 2594 3103 2138 3103 
Q 1681 3103 1420 2742 
Q 1159 2381 1159 1747 
Q 1159 1113 1420 752 
Q 1681 391 2138 391 
Q 2594 391 2855 752 
Q 3116 1113 3116 1747 
z
" transform="scale(0.015625)"/>
        <path id="DejaVuSans-6d" d="M 3328 2828 
Q 3544 3216 3844 3400 
Q 4144 3584 4550 3584 
Q 5097 3584 5394 3201 
Q 5691 2819 5691 2113 
L 5691 0 
L 5113 0 
L 5113 2094 
Q 5113 2597 4934 2840 
Q 4756 3084 4391 3084 
Q 3944 3084 3684 2787 
Q 3425 2491 3425 1978 
L 3425 0 
L 2847 0 
L 2847 2094 
Q 2847 2600 2669 2842 
Q 2491 3084 2119 3084 
Q 1678 3084 1418 2786 
Q 1159 2488 1159 1978 
L 1159 0 
L 581 0 
L 581 3500 
L 1159 3500 
L 1159 2956 
Q 1356 3278 1631 3431 
Q 1906 3584 2284 3584 
Q 2666 3584 2933 3390 
Q 3200 3197 3328 2828 
z
" transform="scale(0.015625)"/>
       </defs>
       <use xlink:href="#DejaVuSans-48"/>
       <use xlink:href="#DejaVuSans-65" transform="translate(75.195312 0)"/>
       <use xlink:href="#DejaVuSans-61" transform="translate(136.71875 0)"/>
       <use xlink:href="#DejaVuSans-74" transform="translate(197.998047 0)"/>
       <use xlink:href="#DejaVuSans-20" transform="translate(237.207031 0)"/>
       <use xlink:href="#DejaVuSans-70" transform="translate(268.994141 0)"/>
       <use xlink:href="#DejaVuSans-75" transform="translate(332.470703 0)"/>
       <use xlink:href="#DejaVuSans-6d" transform="translate(395.849609 0)"/>
       <use xlink:href="#DejaVuSans-70" transform="translate(493.261719 0)"/>
      </g>
     </g>
    </g>
    <g id="ytick_6">
     <g id="line2d_25">
      <path d="M 104.725 105.474039 
L 503.870455 105.474039 
" clip-path="url(#p285b056c82)" style="fill: none; stroke: #b0b0b0; stroke-opacity: 0.25; stroke-width: 0.6; stroke-linecap: square"/>
     </g>
     <g id="line2d_26">
      <g>
       <use xlink:href="#m3d056b8a8c" x="104.725" y="105.474039" style="stroke: #000000; stroke-width: 0.8"/>
      </g>
     </g>
     <g id="text_14">
      <!-- Photovoltaics -->
      <g transform="translate(30.85 109.273258) scale(0.1 -0.1)">
       <defs>
        <path id="DejaVuSans-76" d="M 191 3500 
L 800 3500 
L 1894 563 
L 2988 3500 
L 3597 3500 
L 2284 0 
L 1503 0 
L 191 3500 
z
" transform="scale(0.015625)"/>
        <path id="DejaVuSans-63" d="M 3122 3366 
L 3122 2828 
Q 2878 2963 2633 3030 
Q 2388 3097 2138 3097 
Q 1578 3097 1268 2742 
Q 959 2388 959 1747 
Q 959 1106 1268 751 
Q 1578 397 2138 397 
Q 2388 397 2633 464 
Q 2878 531 3122 666 
L 3122 134 
Q 2881 22 2623 -34 
Q 2366 -91 2075 -91 
Q 1284 -91 818 406 
Q 353 903 353 1747 
Q 353 2603 823 3093 
Q 1294 3584 2113 3584 
Q 2378 3584 2631 3529 
Q 2884 3475 3122 3366 
z
" transform="scale(0.015625)"/>
       </defs>
       <use xlink:href="#DejaVuSans-50"/>
       <use xlink:href="#DejaVuSans-68" transform="translate(60.302734 0)"/>
       <use xlink:href="#DejaVuSans-6f" transform="translate(123.681641 0)"/>
       <use xlink:href="#DejaVuSans-74" transform="translate(184.863281 0)"/>
       <use xlink:href="#DejaVuSans-6f" transform="translate(224.072266 0)"/>
       <use xlink:href="#DejaVuSans-76" transform="translate(285.253906 0)"/>
       <use xlink:href="#DejaVuSans-6f" transform="translate(344.433594 0)"/>
       <use xlink:href="#DejaVuSans-6c" transform="translate(405.615234 0)"/>
       <use xlink:href="#DejaVuSans-74" transform="translate(433.398438 0)"/>
       <use xlink:href="#DejaVuSans-61" transform="translate(472.607422 0)"/>
       <use xlink:href="#DejaVuSans-69" transform="translate(533.886719 0)"/>
       <use xlink:href="#DejaVuSans-63" transform="translate(561.669922 0)"/>
       <use xlink:href="#DejaVuSans-73" transform="translate(616.650391 0)"/>
      </g>
     </g>
    </g>
    <g id="ytick_7">
     <g id="line2d_27">
      <path d="M 104.725 74.792489 
L 503.870455 74.792489 
" clip-path="url(#p285b056c82)" style="fill: none; stroke: #b0b0b0; stroke-opacity: 0.25; stroke-width: 0.6; stroke-linecap: square"/>
     </g>
     <g id="line2d_28">
      <g>
       <use xlink:href="#m3d056b8a8c" x="104.725" y="74.792489" style="stroke: #000000; stroke-width: 0.8"/>
      </g>
     </g>
     <g id="text_15">
      <!-- Run-of-river hydro -->
      <g transform="translate(7.2 78.591708) scale(0.1 -0.1)">
       <defs>
        <path id="DejaVuSans-2d" d="M 313 2009 
L 1997 2009 
L 1997 1497 
L 313 1497 
L 313 2009 
z
" transform="scale(0.015625)"/>
       </defs>
       <use xlink:href="#DejaVuSans-52"/>
       <use xlink:href="#DejaVuSans-75" transform="translate(64.982422 0)"/>
       <use xlink:href="#DejaVuSans-6e" transform="translate(128.361328 0)"/>
       <use xlink:href="#DejaVuSans-2d" transform="translate(191.740234 0)"/>
       <use xlink:href="#DejaVuSans-6f" transform="translate(229.699219 0)"/>
       <use xlink:href="#DejaVuSans-66" transform="translate(290.880859 0)"/>
       <use xlink:href="#DejaVuSans-2d" transform="translate(320.585938 0)"/>
       <use xlink:href="#DejaVuSans-72" transform="translate(356.669922 0)"/>
       <use xlink:href="#DejaVuSans-69" transform="translate(397.783203 0)"/>
       <use xlink:href="#DejaVuSans-76" transform="translate(425.566406 0)"/>
       <use xlink:href="#DejaVuSans-65" transform="translate(484.746094 0)"/>
       <use xlink:href="#DejaVuSans-72" transform="translate(546.269531 0)"/>
       <use xlink:href="#DejaVuSans-20" transform="translate(587.382812 0)"/>
       <use xlink:href="#DejaVuSans-68" transform="translate(619.169922 0)"/>
       <use xlink:href="#DejaVuSans-79" transform="translate(682.548828 0)"/>
       <use xlink:href="#DejaVuSans-64" transform="translate(741.728516 0)"/>
       <use xlink:href="#DejaVuSans-72" transform="translate(805.205078 0)"/>
       <use xlink:href="#DejaVuSans-6f" transform="translate(844.068359 0)"/>
      </g>
     </g>
    </g>
    <g id="ytick_8">
     <g id="line2d_29">
      <path d="M 104.725 44.110939 
L 503.870455 44.110939 
" clip-path="url(#p285b056c82)" style="fill: none; stroke: #b0b0b0; stroke-opacity: 0.25; stroke-width: 0.6; stroke-linecap: square"/>
     </g>
     <g id="line2d_30">
      <g>
       <use xlink:href="#m3d056b8a8c" x="104.725" y="44.110939" style="stroke: #000000; stroke-width: 0.8"/>
      </g>
     </g>
     <g id="text_16">
      <!-- Reservoir hydro -->
      <g transform="translate(18.885937 47.910158) scale(0.1 -0.1)">
       <use xlink:href="#DejaVuSans-52"/>
       <use xlink:href="#DejaVuSans-65" transform="translate(64.982422 0)"/>
       <use xlink:href="#DejaVuSans-73" transform="translate(126.505859 0)"/>
       <use xlink:href="#DejaVuSans-65" transform="translate(178.605469 0)"/>
       <use xlink:href="#DejaVuSans-72" transform="translate(240.128906 0)"/>
       <use xlink:href="#DejaVuSans-76" transform="translate(281.242188 0)"/>
       <use xlink:href="#DejaVuSans-6f" transform="translate(340.421875 0)"/>
       <use xlink:href="#DejaVuSans-69" transform="translate(401.603516 0)"/>
       <use xlink:href="#DejaVuSans-72" transform="translate(429.386719 0)"/>
       <use xlink:href="#DejaVuSans-20" transform="translate(470.5 0)"/>
       <use xlink:href="#DejaVuSans-68" transform="translate(502.287109 0)"/>
       <use xlink:href="#DejaVuSans-79" transform="translate(565.666016 0)"/>
       <use xlink:href="#DejaVuSans-64" transform="translate(624.845703 0)"/>
       <use xlink:href="#DejaVuSans-72" transform="translate(688.322266 0)"/>
       <use xlink:href="#DejaVuSans-6f" transform="translate(727.185547 0)"/>
      </g>
     </g>
    </g>
   </g>
   <g id="line2d_31">
    <path d="M 341.842912 281.432727 
L 341.842912 21.56 
" clip-path="url(#p285b056c82)" style="fill: none; stroke: #333333; stroke-linecap: square"/>
   </g>
   <g id="patch_11">
    <path d="M 104.725 281.432727 
L 104.725 21.56 
" style="fill: none; stroke: #000000; stroke-width: 0.8; stroke-linejoin: miter; stroke-linecap: square"/>
   </g>
   <g id="patch_12">
    <path d="M 104.725 281.432727 
L 503.870455 281.432727 
" style="fill: none; stroke: #000000; stroke-width: 0.8; stroke-linejoin: miter; stroke-linecap: square"/>
   </g>
   <g id="text_17">
    <!-- -6,582 -->
    <g transform="translate(123.152294 261.227257) scale(0.085 -0.085)">
     <defs>
      <path id="DejaVuSans-2c" d="M 750 794 
L 1409 794 
L 1409 256 
L 897 -744 
L 494 -744 
L 750 256 
L 750 794 
z
" transform="scale(0.015625)"/>
      <path id="DejaVuSans-35" d="M 691 4666 
L 3169 4666 
L 3169 4134 
L 1269 4134 
L 1269 2991 
Q 1406 3038 1543 3061 
Q 1681 3084 1819 3084 
Q 2600 3084 3056 2656 
Q 3513 2228 3513 1497 
Q 3513 744 3044 326 
Q 2575 -91 1722 -91 
Q 1428 -91 1123 -41 
Q 819 9 494 109 
L 494 744 
Q 775 591 1075 516 
Q 1375 441 1709 441 
Q 2250 441 2565 725 
Q 2881 1009 2881 1497 
Q 2881 1984 2565 2268 
Q 2250 2553 1709 2553 
Q 1456 2553 1204 2497 
Q 953 2441 691 2322 
L 691 4666 
z
" transform="scale(0.015625)"/>
     </defs>
     <use xlink:href="#DejaVuSans-2d"/>
     <use xlink:href="#DejaVuSans-36" transform="translate(36.083984 0)"/>
     <use xlink:href="#DejaVuSans-2c" transform="translate(99.707031 0)"/>
     <use xlink:href="#DejaVuSans-35" transform="translate(131.494141 0)"/>
     <use xlink:href="#DejaVuSans-38" transform="translate(195.117188 0)"/>
     <use xlink:href="#DejaVuSans-32" transform="translate(258.740234 0)"/>
    </g>
   </g>
   <g id="text_18">
    <!-- -2,963 -->
    <g transform="translate(224.464128 230.545707) scale(0.085 -0.085)">
     <defs>
      <path id="DejaVuSans-39" d="M 703 97 
L 703 672 
Q 941 559 1184 500 
Q 1428 441 1663 441 
Q 2288 441 2617 861 
Q 2947 1281 2994 2138 
Q 2813 1869 2534 1725 
Q 2256 1581 1919 1581 
Q 1219 1581 811 2004 
Q 403 2428 403 3163 
Q 403 3881 828 4315 
Q 1253 4750 1959 4750 
Q 2769 4750 3195 4129 
Q 3622 3509 3622 2328 
Q 3622 1225 3098 567 
Q 2575 -91 1691 -91 
Q 1453 -91 1209 -44 
Q 966 3 703 97 
z
M 1959 2075 
Q 2384 2075 2632 2365 
Q 2881 2656 2881 3163 
Q 2881 3666 2632 3958 
Q 2384 4250 1959 4250 
Q 1534 4250 1286 3958 
Q 1038 3666 1038 3163 
Q 1038 2656 1286 2365 
Q 1534 2075 1959 2075 
z
" transform="scale(0.015625)"/>
      <path id="DejaVuSans-33" d="M 2597 2516 
Q 3050 2419 3304 2112 
Q 3559 1806 3559 1356 
Q 3559 666 3084 287 
Q 2609 -91 1734 -91 
Q 1441 -91 1130 -33 
Q 819 25 488 141 
L 488 750 
Q 750 597 1062 519 
Q 1375 441 1716 441 
Q 2309 441 2620 675 
Q 2931 909 2931 1356 
Q 2931 1769 2642 2001 
Q 2353 2234 1838 2234 
L 1294 2234 
L 1294 2753 
L 1863 2753 
Q 2328 2753 2575 2939 
Q 2822 3125 2822 3475 
Q 2822 3834 2567 4026 
Q 2313 4219 1838 4219 
Q 1578 4219 1281 4162 
Q 984 4106 628 3988 
L 628 4550 
Q 988 4650 1302 4700 
Q 1616 4750 1894 4750 
Q 2613 4750 3031 4423 
Q 3450 4097 3450 3541 
Q 3450 3153 3228 2886 
Q 3006 2619 2597 2516 
z
" transform="scale(0.015625)"/>
     </defs>
     <use xlink:href="#DejaVuSans-2d"/>
     <use xlink:href="#DejaVuSans-32" transform="translate(36.083984 0)"/>
     <use xlink:href="#DejaVuSans-2c" transform="translate(99.707031 0)"/>
     <use xlink:href="#DejaVuSans-39" transform="translate(131.494141 0)"/>
     <use xlink:href="#DejaVuSans-36" transform="translate(195.117188 0)"/>
     <use xlink:href="#DejaVuSans-33" transform="translate(258.740234 0)"/>
    </g>
   </g>
   <g id="text_19">
    <!-- -2,752 -->
    <g transform="translate(230.391657 199.864157) scale(0.085 -0.085)">
     <defs>
      <path id="DejaVuSans-37" d="M 525 4666 
L 3525 4666 
L 3525 4397 
L 1831 0 
L 1172 0 
L 2766 4134 
L 525 4134 
L 525 4666 
z
" transform="scale(0.015625)"/>
     </defs>
     <use xlink:href="#DejaVuSans-2d"/>
     <use xlink:href="#DejaVuSans-32" transform="translate(36.083984 0)"/>
     <use xlink:href="#DejaVuSans-2c" transform="translate(99.707031 0)"/>
     <use xlink:href="#DejaVuSans-37" transform="translate(131.494141 0)"/>
     <use xlink:href="#DejaVuSans-35" transform="translate(195.117188 0)"/>
     <use xlink:href="#DejaVuSans-32" transform="translate(258.740234 0)"/>
    </g>
   </g>
   <g id="text_20">
    <!-- -1,319 -->
    <g transform="translate(270.522385 169.182607) scale(0.085 -0.085)">
     <defs>
      <path id="DejaVuSans-31" d="M 794 531 
L 1825 531 
L 1825 4091 
L 703 3866 
L 703 4441 
L 1819 4666 
L 2450 4666 
L 2450 531 
L 3481 531 
L 3481 0 
L 794 0 
L 794 531 
z
" transform="scale(0.015625)"/>
     </defs>
     <use xlink:href="#DejaVuSans-2d"/>
     <use xlink:href="#DejaVuSans-31" transform="translate(36.083984 0)"/>
     <use xlink:href="#DejaVuSans-2c" transform="translate(99.707031 0)"/>
     <use xlink:href="#DejaVuSans-33" transform="translate(131.494141 0)"/>
     <use xlink:href="#DejaVuSans-31" transform="translate(195.117188 0)"/>
     <use xlink:href="#DejaVuSans-39" transform="translate(258.740234 0)"/>
    </g>
   </g>
   <g id="text_21">
    <!-- -1,126 -->
    <g transform="translate(275.918932 138.501057) scale(0.085 -0.085)">
     <use xlink:href="#DejaVuSans-2d"/>
     <use xlink:href="#DejaVuSans-31" transform="translate(36.083984 0)"/>
     <use xlink:href="#DejaVuSans-2c" transform="translate(99.707031 0)"/>
     <use xlink:href="#DejaVuSans-31" transform="translate(131.494141 0)"/>
     <use xlink:href="#DejaVuSans-32" transform="translate(195.117188 0)"/>
     <use xlink:href="#DejaVuSans-36" transform="translate(258.740234 0)"/>
    </g>
   </g>
   <g id="text_22">
    <!-- -407 -->
    <g transform="translate(304.15694 107.819508) scale(0.085 -0.085)">
     <use xlink:href="#DejaVuSans-2d"/>
     <use xlink:href="#DejaVuSans-34" transform="translate(36.083984 0)"/>
     <use xlink:href="#DejaVuSans-30" transform="translate(99.707031 0)"/>
     <use xlink:href="#DejaVuSans-37" transform="translate(163.330078 0)"/>
    </g>
   </g>
   <g id="text_23">
    <!-- 2,700 -->
    <g transform="translate(424.437055 77.137958) scale(0.085 -0.085)">
     <use xlink:href="#DejaVuSans-32"/>
     <use xlink:href="#DejaVuSans-2c" transform="translate(63.623047 0)"/>
     <use xlink:href="#DejaVuSans-37" transform="translate(95.410156 0)"/>
     <use xlink:href="#DejaVuSans-30" transform="translate(159.033203 0)"/>
     <use xlink:href="#DejaVuSans-30" transform="translate(222.65625 0)"/>
    </g>
   </g>
   <g id="text_24">
    <!-- 3,900 -->
    <g transform="translate(458.042614 46.456408) scale(0.085 -0.085)">
     <use xlink:href="#DejaVuSans-33"/>
     <use xlink:href="#DejaVuSans-2c" transform="translate(63.623047 0)"/>
     <use xlink:href="#DejaVuSans-39" transform="translate(95.410156 0)"/>
     <use xlink:href="#DejaVuSans-30" transform="translate(159.033203 0)"/>
     <use xlink:href="#DejaVuSans-30" transform="translate(222.65625 0)"/>
    </g>
   </g>
   <g id="text_25">
    <!-- Clean year-0 profitability index per technology ($\omega$-invariant) -->
    <g transform="translate(138.692727 15.56) scale(0.11 -0.11)">
     <defs>
      <path id="DejaVuSans-43" d="M 4122 4306 
L 4122 3641 
Q 3803 3938 3442 4084 
Q 3081 4231 2675 4231 
Q 1875 4231 1450 3742 
Q 1025 3253 1025 2328 
Q 1025 1406 1450 917 
Q 1875 428 2675 428 
Q 3081 428 3442 575 
Q 3803 722 4122 1019 
L 4122 359 
Q 3791 134 3420 21 
Q 3050 -91 2638 -91 
Q 1578 -91 968 557 
Q 359 1206 359 2328 
Q 359 3453 968 4101 
Q 1578 4750 2638 4750 
Q 3056 4750 3426 4639 
Q 3797 4528 4122 4306 
z
" transform="scale(0.015625)"/>
      <path id="DejaVuSans-67" d="M 2906 1791 
Q 2906 2416 2648 2759 
Q 2391 3103 1925 3103 
Q 1463 3103 1205 2759 
Q 947 2416 947 1791 
Q 947 1169 1205 825 
Q 1463 481 1925 481 
Q 2391 481 2648 825 
Q 2906 1169 2906 1791 
z
M 3481 434 
Q 3481 -459 3084 -895 
Q 2688 -1331 1869 -1331 
Q 1566 -1331 1297 -1286 
Q 1028 -1241 775 -1147 
L 775 -588 
Q 1028 -725 1275 -790 
Q 1522 -856 1778 -856 
Q 2344 -856 2625 -561 
Q 2906 -266 2906 331 
L 2906 616 
Q 2728 306 2450 153 
Q 2172 0 1784 0 
Q 1141 0 747 490 
Q 353 981 353 1791 
Q 353 2603 747 3093 
Q 1141 3584 1784 3584 
Q 2172 3584 2450 3431 
Q 2728 3278 2906 2969 
L 2906 3500 
L 3481 3500 
L 3481 434 
z
" transform="scale(0.015625)"/>
      <path id="DejaVuSans-28" d="M 1984 4856 
Q 1566 4138 1362 3434 
Q 1159 2731 1159 2009 
Q 1159 1288 1364 580 
Q 1569 -128 1984 -844 
L 1484 -844 
Q 1016 -109 783 600 
Q 550 1309 550 2009 
Q 550 2706 781 3412 
Q 1013 4119 1484 4856 
L 1984 4856 
z
" transform="scale(0.015625)"/>
      <path id="DejaVuSans-Oblique-3c9" d="M 1369 -91 
Q 72 -91 434 1766 
Q 575 2500 1256 3500 
L 1875 3500 
Q 1231 2500 1088 1750 
Q 819 397 1519 397 
Q 2166 397 2478 2078 
L 3009 2078 
Q 2669 388 3316 397 
Q 4013 403 4275 1750 
Q 4419 2500 4169 3500 
L 4788 3500 
Q 5075 2500 4934 1766 
Q 4578 -94 3278 -91 
Q 2428 -88 2503 844 
Q 2194 -91 1369 -91 
z
" transform="scale(0.015625)"/>
      <path id="DejaVuSans-29" d="M 513 4856 
L 1013 4856 
Q 1481 4119 1714 3412 
Q 1947 2706 1947 2009 
Q 1947 1309 1714 600 
Q 1481 -109 1013 -844 
L 513 -844 
Q 928 -128 1133 580 
Q 1338 1288 1338 2009 
Q 1338 2731 1133 3434 
Q 928 4138 513 4856 
z
" transform="scale(0.015625)"/>
     </defs>
     <use xlink:href="#DejaVuSans-43" transform="translate(0 0.015625)"/>
     <use xlink:href="#DejaVuSans-6c" transform="translate(69.824219 0.015625)"/>
     <use xlink:href="#DejaVuSans-65" transform="translate(97.607422 0.015625)"/>
     <use xlink:href="#DejaVuSans-61" transform="translate(159.130859 0.015625)"/>
     <use xlink:href="#DejaVuSans-6e" transform="translate(220.410156 0.015625)"/>
     <use xlink:href="#DejaVuSans-20" transform="translate(283.789062 0.015625)"/>
     <use xlink:href="#DejaVuSans-79" transform="translate(315.576172 0.015625)"/>
     <use xlink:href="#DejaVuSans-65" transform="translate(374.755859 0.015625)"/>
     <use xlink:href="#DejaVuSans-61" transform="translate(436.279297 0.015625)"/>
     <use xlink:href="#DejaVuSans-72" transform="translate(497.558594 0.015625)"/>
     <use xlink:href="#DejaVuSans-2d" transform="translate(538.671875 0.015625)"/>
     <use xlink:href="#DejaVuSans-30" transform="translate(574.755859 0.015625)"/>
     <use xlink:href="#DejaVuSans-20" transform="translate(638.378906 0.015625)"/>
     <use xlink:href="#DejaVuSans-70" transform="translate(670.166016 0.015625)"/>
     <use xlink:href="#DejaVuSans-72" transform="translate(733.642578 0.015625)"/>
     <use xlink:href="#DejaVuSans-6f" transform="translate(774.755859 0.015625)"/>
     <use xlink:href="#DejaVuSans-66" transform="translate(835.9375 0.015625)"/>
     <use xlink:href="#DejaVuSans-69" transform="translate(871.142578 0.015625)"/>
     <use xlink:href="#DejaVuSans-74" transform="translate(898.925781 0.015625)"/>
     <use xlink:href="#DejaVuSans-61" transform="translate(938.134766 0.015625)"/>
     <use xlink:href="#DejaVuSans-62" transform="translate(999.414062 0.015625)"/>
     <use xlink:href="#DejaVuSans-69" transform="translate(1062.890625 0.015625)"/>
     <use xlink:href="#DejaVuSans-6c" transform="translate(1090.673828 0.015625)"/>
     <use xlink:href="#DejaVuSans-69" transform="translate(1118.457031 0.015625)"/>
     <use xlink:href="#DejaVuSans-74" transform="translate(1146.240234 0.015625)"/>
     <use xlink:href="#DejaVuSans-79" transform="translate(1185.449219 0.015625)"/>
     <use xlink:href="#DejaVuSans-20" transform="translate(1244.628906 0.015625)"/>
     <use xlink:href="#DejaVuSans-69" transform="translate(1276.416016 0.015625)"/>
     <use xlink:href="#DejaVuSans-6e" transform="translate(1304.199219 0.015625)"/>
     <use xlink:href="#DejaVuSans-64" transform="translate(1367.578125 0.015625)"/>
     <use xlink:href="#DejaVuSans-65" transform="translate(1431.054688 0.015625)"/>
     <use xlink:href="#DejaVuSans-78" transform="translate(1492.578125 0.015625)"/>
     <use xlink:href="#DejaVuSans-20" transform="translate(1551.757812 0.015625)"/>
     <use xlink:href="#DejaVuSans-70" transform="translate(1583.544922 0.015625)"/>
     <use xlink:href="#DejaVuSans-65" transform="translate(1647.021484 0.015625)"/>
     <use xlink:href="#DejaVuSans-72" transform="translate(1708.544922 0.015625)"/>
     <use xlink:href="#DejaVuSans-20" transform="translate(1749.658203 0.015625)"/>
     <use xlink:href="#DejaVuSans-74" transform="translate(1781.445312 0.015625)"/>
     <use xlink:href="#DejaVuSans-65" transform="translate(1820.654297 0.015625)"/>
     <use xlink:href="#DejaVuSans-63" transform="translate(1882.177734 0.015625)"/>
     <use xlink:href="#DejaVuSans-68" transform="translate(1937.158203 0.015625)"/>
     <use xlink:href="#DejaVuSans-6e" transform="translate(2000.537109 0.015625)"/>
     <use xlink:href="#DejaVuSans-6f" transform="translate(2063.916016 0.015625)"/>
     <use xlink:href="#DejaVuSans-6c" transform="translate(2125.097656 0.015625)"/>
     <use xlink:href="#DejaVuSans-6f" transform="translate(2152.880859 0.015625)"/>
     <use xlink:href="#DejaVuSans-67" transform="translate(2214.0625 0.015625)"/>
     <use xlink:href="#DejaVuSans-79" transform="translate(2277.539062 0.015625)"/>
     <use xlink:href="#DejaVuSans-20" transform="translate(2336.71875 0.015625)"/>
     <use xlink:href="#DejaVuSans-28" transform="translate(2368.505859 0.015625)"/>
     <use xlink:href="#DejaVuSans-Oblique-3c9" transform="translate(2407.519531 0.015625)"/>
     <use xlink:href="#DejaVuSans-2d" transform="translate(2491.259766 0.015625)"/>
     <use xlink:href="#DejaVuSans-69" transform="translate(2527.34375 0.015625)"/>
     <use xlink:href="#DejaVuSans-6e" transform="translate(2555.126953 0.015625)"/>
     <use xlink:href="#DejaVuSans-76" transform="translate(2618.505859 0.015625)"/>
     <use xlink:href="#DejaVuSans-61" transform="translate(2677.685547 0.015625)"/>
     <use xlink:href="#DejaVuSans-72" transform="translate(2738.964844 0.015625)"/>
     <use xlink:href="#DejaVuSans-69" transform="translate(2780.078125 0.015625)"/>
     <use xlink:href="#DejaVuSans-61" transform="translate(2807.861328 0.015625)"/>
     <use xlink:href="#DejaVuSans-6e" transform="translate(2869.140625 0.015625)"/>
     <use xlink:href="#DejaVuSans-74" transform="translate(2932.519531 0.015625)"/>
     <use xlink:href="#DejaVuSans-29" transform="translate(2971.728516 0.015625)"/>
    </g>
   </g>
   <g id="legend_1">
    <g id="patch_13">
     <path d="M 388.185455 277.182727 
L 497.920455 277.182727 
Q 499.620455 277.182727 499.620455 275.482727 
L 499.620455 251.342727 
Q 499.620455 249.642727 497.920455 249.642727 
L 388.185455 249.642727 
Q 386.485455 249.642727 386.485455 251.342727 
L 386.485455 275.482727 
Q 386.485455 277.182727 388.185455 277.182727 
z
" style="fill: #ffffff; opacity: 0.9; stroke: #cccccc; stroke-linejoin: miter"/>
    </g>
    <g id="line2d_32">
     <defs>
      <path id="m891ca32e7f" d="M -3 3 
L 3 3 
L 3 -3 
L -3 -3 
z
" style="stroke: #1b9e77; stroke-linejoin: miter"/>
     </defs>
     <g>
      <use xlink:href="#m891ca32e7f" x="398.385455" y="256.527727" style="fill: #1b9e77; stroke: #1b9e77; stroke-linejoin: miter"/>
     </g>
    </g>
    <g id="text_26">
     <!-- profitable ($\Pi&gt;0$) -->
     <g transform="translate(413.685455 259.502727) scale(0.085 -0.085)">
      <defs>
       <path id="DejaVuSans-3e" d="M 678 3150 
L 678 3719 
L 4684 2266 
L 4684 1747 
L 678 294 
L 678 863 
L 3897 2003 
L 678 3150 
z
" transform="scale(0.015625)"/>
      </defs>
      <use xlink:href="#DejaVuSans-70" transform="translate(0 0.015625)"/>
      <use xlink:href="#DejaVuSans-72" transform="translate(63.476562 0.015625)"/>
      <use xlink:href="#DejaVuSans-6f" transform="translate(104.589844 0.015625)"/>
      <use xlink:href="#DejaVuSans-66" transform="translate(165.771484 0.015625)"/>
      <use xlink:href="#DejaVuSans-69" transform="translate(200.976562 0.015625)"/>
      <use xlink:href="#DejaVuSans-74" transform="translate(228.759766 0.015625)"/>
      <use xlink:href="#DejaVuSans-61" transform="translate(267.96875 0.015625)"/>
      <use xlink:href="#DejaVuSans-62" transform="translate(329.248047 0.015625)"/>
      <use xlink:href="#DejaVuSans-6c" transform="translate(392.724609 0.015625)"/>
      <use xlink:href="#DejaVuSans-65" transform="translate(420.507812 0.015625)"/>
      <use xlink:href="#DejaVuSans-20" transform="translate(482.03125 0.015625)"/>
      <use xlink:href="#DejaVuSans-28" transform="translate(513.818359 0.015625)"/>
      <use xlink:href="#DejaVuSans-3a0" transform="translate(552.832031 0.015625)"/>
      <use xlink:href="#DejaVuSans-3e" transform="translate(647.509766 0.015625)"/>
      <use xlink:href="#DejaVuSans-30" transform="translate(750.78125 0.015625)"/>
      <use xlink:href="#DejaVuSans-29" transform="translate(814.404297 0.015625)"/>
     </g>
    </g>
    <g id="line2d_33">
     <defs>
      <path id="m2730317b17" d="M -3 3 
L 3 3 
L 3 -3 
L -3 -3 
z
" style="stroke: #b23b3b; stroke-linejoin: miter"/>
     </defs>
     <g>
      <use xlink:href="#m2730317b17" x="398.385455" y="269.022727" style="fill: #b23b3b; stroke: #b23b3b; stroke-linejoin: miter"/>
     </g>
    </g>
    <g id="text_27">
     <!-- loss-making ($\Pi&lt;0$) -->
     <g transform="translate(413.685455 271.997727) scale(0.085 -0.085)">
      <defs>
       <path id="DejaVuSans-6b" d="M 581 4863 
L 1159 4863 
L 1159 1991 
L 2875 3500 
L 3609 3500 
L 1753 1863 
L 3688 0 
L 2938 0 
L 1159 1709 
L 1159 0 
L 581 0 
L 581 4863 
z
" transform="scale(0.015625)"/>
       <path id="DejaVuSans-3c" d="M 4684 3150 
L 1459 2003 
L 4684 863 
L 4684 294 
L 678 1747 
L 678 2266 
L 4684 3719 
L 4684 3150 
z
" transform="scale(0.015625)"/>
      </defs>
      <use xlink:href="#DejaVuSans-6c" transform="translate(0 0.015625)"/>
      <use xlink:href="#DejaVuSans-6f" transform="translate(27.783203 0.015625)"/>
      <use xlink:href="#DejaVuSans-73" transform="translate(88.964844 0.015625)"/>
      <use xlink:href="#DejaVuSans-73" transform="translate(141.064453 0.015625)"/>
      <use xlink:href="#DejaVuSans-2d" transform="translate(193.164062 0.015625)"/>
      <use xlink:href="#DejaVuSans-6d" transform="translate(227.498047 0.015625)"/>
      <use xlink:href="#DejaVuSans-61" transform="translate(324.910156 0.015625)"/>
      <use xlink:href="#DejaVuSans-6b" transform="translate(386.189453 0.015625)"/>
      <use xlink:href="#DejaVuSans-69" transform="translate(444.099609 0.015625)"/>
      <use xlink:href="#DejaVuSans-6e" transform="translate(471.882812 0.015625)"/>
      <use xlink:href="#DejaVuSans-67" transform="translate(535.261719 0.015625)"/>
      <use xlink:href="#DejaVuSans-20" transform="translate(598.738281 0.015625)"/>
      <use xlink:href="#DejaVuSans-28" transform="translate(630.525391 0.015625)"/>
      <use xlink:href="#DejaVuSans-3a0" transform="translate(669.539062 0.015625)"/>
      <use xlink:href="#DejaVuSans-3c" transform="translate(764.216797 0.015625)"/>
      <use xlink:href="#DejaVuSans-30" transform="translate(867.488281 0.015625)"/>
      <use xlink:href="#DejaVuSans-29" transform="translate(931.111328 0.015625)"/>
     </g>
    </g>
   </g>
  </g>
 </g>
 <defs>
  <clipPath id="p285b056c82">
   <rect x="104.725" y="21.56" width="399.145455" height="259.872727"/>
  </clipPath>
 </defs>
</svg>
