<?xml version="1.0" encoding="utf-8" standalone="no"?>
<!DOCTYPE svg PUBLIC "-//W3C//DTD SVG 1.1//EN"
  "http://www.w3.org/Graphics/SVG/1.1/DTD/svg11.dtd">
<svg xmlns:xlink="http://www.w3.org/1999/xlink" width="524.470668pt" height="337.265753pt" viewBox="0 0 524.470668 337.265753" xmlns="http://www.w3.org/2000/svg" version="1.1">
 <metadata>
  <rdf:RDF xmlns:dc="http://purl.org/dc/elements/1.1/" xmlns:cc="http://creativecommons.org/ns#" xmlns:rdf="http://www.w3.org/1999/02/22-rdf-syntax-ns#">
   <cc:Work>
    <dc:type rdf:resource="http://purl.org/dc/dcmitype/StillImage"/>
    <dc:date>2026-06-19T18:20:02.706632</dc:date>
    <dc:format>image/svg+xml</dc:format>
    <dc:creator>
     <cc:Agent>
      <dc:title>Matplotlib v3.11.0, https://matplotlib.org/</dc:title>
     </cc:Agent>
    </dc:creator>
   </cc:Work>
  </rdf:RDF>
 </metadata>
 <defs>
  <style type="text/css">*{stroke-linejoin: round; stroke-linecap: butt}</style>
 </defs>
 <g id="figure_1">
  <g id="patch_1">
   <path d="M 0 337.265753 
L 524.470668 337.265753 
L 524.470668 0 
L 0 0 
z
" style="fill: #ffffff"/>
  </g>
  <g id="axes_1">
   <g id="patch_2">
    <path d="M 51.107031 291.250909 
L 517.270668 291.250909 
L 517.270668 21.56 
L 51.107031 21.56 
z
" style="fill: #ffffff"/>
   </g>
   <g id="patch_3">
    <path d="M 51.107031 291.250909 
L 517.270668 291.250909 
L 517.270668 21.56 
L 51.107031 21.56 
z
" clip-path="url(#p9ba62f33f3)" style="fill: #e8f1e8; stroke: #e8f1e8; stroke-linejoin: miter"/>
   </g>
   <g id="matplotlib.axis_1">
    <g id="xtick_1">
     <g id="line2d_1">
      <path d="M 70.530516 291.250909 
L 70.530516 21.56 
" clip-path="url(#p9ba62f33f3)" style="fill: none; stroke: #b0b0b0; stroke-opacity: 0.25; stroke-width: 0.6; stroke-linecap: square"/>
     </g>
     <g id="line2d_2">
      <defs>
       <path id="md010fd1eb7" d="M 0 0 
L 0 3.5 
" style="stroke: #000000; stroke-width: 0.8"/>
      </defs>
      <g>
       <use xlink:href="#md010fd1eb7" x="70.530516" y="291.250909" style="stroke: #000000; stroke-width: 0.8"/>
      </g>
     </g>
     <g id="text_1">
      <!-- 0 -->
      <g transform="translate(72.608641 303.340909) rotate(-90) scale(0.08 -0.08)">
       <defs>
        <path id="DejaVuSans-13" d="M 2034 4250 
Q 1547 4250 1301 3770 
Q 1056 3291 1056 2328 
Q 1056 1369 1301 889 
Q 1547 409 2034 409 
Q 2525 409 2770 889 
Q 3016 1369 3016 2328 
Q 3016 3291 2770 3770 
Q 2525 4250 2034 4250 
z
M 2034 4750 
Q 2819 4750 3233 4129 
Q 3647 3509 3647 2328 
Q 3647 1150 3233 529 
Q 2819 -91 2034 -91 
Q 1250 -91 836 529 
Q 422 1150 422 2328 
Q 422 3509 836 4129 
Q 1250 4750 2034 4750 
z
" transform="scale(0.015625)"/>
       </defs>
       <use xlink:href="#DejaVuSans-13"/>
      </g>
     </g>
    </g>
    <g id="xtick_2">
     <g id="line2d_3">
      <path d="M 109.377486 291.250909 
L 109.377486 21.56 
" clip-path="url(#p9ba62f33f3)" style="fill: none; stroke: #b0b0b0; stroke-opacity: 0.25; stroke-width: 0.6; stroke-linecap: square"/>
     </g>
     <g id="line2d_4">
      <g>
       <use xlink:href="#md010fd1eb7" x="109.377486" y="291.250909" style="stroke: #000000; stroke-width: 0.8"/>
      </g>
     </g>
     <g id="text_2">
      <!-- 0.05 -->
      <g transform="translate(111.455611 316.063409) rotate(-90) scale(0.08 -0.08)">
       <defs>
        <path id="DejaVuSans-11" d="M 684 794 
L 1344 794 
L 1344 0 
L 684 0 
L 684 794 
z
" transform="scale(0.015625)"/>
        <path id="DejaVuSans-18" d="M 691 4666 
L 3169 4666 
L 3169 4134 
L 1269 4134 
L 1269 2991 
Q 1406 3038 1543 3061 
Q 1681 3084 1819 3084 
Q 2600 3084 3056 2656 
Q 3513 2228 3513 1497 
Q 3513 744 3044 326 
Q 2575 -91 1722 -91 
Q 1428 -91 1123 -41 
Q 819 9 494 109 
L 494 744 
Q 775 591 1075 516 
Q 1375 441 1709 441 
Q 2250 441 2565 725 
Q 2881 1009 2881 1497 
Q 2881 1984 2565 2268 
Q 2250 2553 1709 2553 
Q 1456 2553 1204 2497 
Q 953 2441 691 2322 
L 691 4666 
z
" transform="scale(0.015625)"/>
       </defs>
       <use xlink:href="#DejaVuSans-13"/>
       <use xlink:href="#DejaVuSans-11" transform="translate(63.625 0)"/>
       <use xlink:href="#DejaVuSans-13" transform="translate(95.40625 0)"/>
       <use xlink:href="#DejaVuSans-18" transform="translate(159.03125 0)"/>
      </g>
     </g>
    </g>
    <g id="xtick_3">
     <g id="line2d_5">
      <path d="M 148.224455 291.250909 
L 148.224455 21.56 
" clip-path="url(#p9ba62f33f3)" style="fill: none; stroke: #b0b0b0; stroke-opacity: 0.25; stroke-width: 0.6; stroke-linecap: square"/>
     </g>
     <g id="line2d_6">
      <g>
       <use xlink:href="#md010fd1eb7" x="148.224455" y="291.250909" style="stroke: #000000; stroke-width: 0.8"/>
      </g>
     </g>
     <g id="text_3">
      <!-- 0.1 -->
      <g transform="translate(150.30258 310.973409) rotate(-90) scale(0.08 -0.08)">
       <defs>
        <path id="DejaVuSans-14" d="M 794 531 
L 1825 531 
L 1825 4091 
L 703 3866 
L 703 4441 
L 1819 4666 
L 2450 4666 
L 2450 531 
L 3481 531 
L 3481 0 
L 794 0 
L 794 531 
z
" transform="scale(0.015625)"/>
       </defs>
       <use xlink:href="#DejaVuSans-13"/>
       <use xlink:href="#DejaVuSans-11" transform="translate(63.625 0)"/>
       <use xlink:href="#DejaVuSans-14" transform="translate(95.40625 0)"/>
      </g>
     </g>
    </g>
    <g id="xtick_4">
     <g id="line2d_7">
      <path d="M 187.071425 291.250909 
L 187.071425 21.56 
" clip-path="url(#p9ba62f33f3)" style="fill: none; stroke: #b0b0b0; stroke-opacity: 0.25; stroke-width: 0.6; stroke-linecap: square"/>
     </g>
     <g id="line2d_8">
      <g>
       <use xlink:href="#md010fd1eb7" x="187.071425" y="291.250909" style="stroke: #000000; stroke-width: 0.8"/>
      </g>
     </g>
     <g id="text_4">
      <!-- 0.2 -->
      <g transform="translate(189.14955 310.973409) rotate(-90) scale(0.08 -0.08)">
       <defs>
        <path id="DejaVuSans-15" d="M 1228 531 
L 3431 531 
L 3431 0 
L 469 0 
L 469 531 
Q 828 903 1448 1529 
Q 2069 2156 2228 2338 
Q 2531 2678 2651 2914 
Q 2772 3150 2772 3378 
Q 2772 3750 2511 3984 
Q 2250 4219 1831 4219 
Q 1534 4219 1204 4116 
Q 875 4013 500 3803 
L 500 4441 
Q 881 4594 1212 4672 
Q 1544 4750 1819 4750 
Q 2544 4750 2975 4387 
Q 3406 4025 3406 3419 
Q 3406 3131 3298 2873 
Q 3191 2616 2906 2266 
Q 2828 2175 2409 1742 
Q 1991 1309 1228 531 
z
" transform="scale(0.015625)"/>
       </defs>
       <use xlink:href="#DejaVuSans-13"/>
       <use xlink:href="#DejaVuSans-11" transform="translate(63.625 0)"/>
       <use xlink:href="#DejaVuSans-15" transform="translate(95.40625 0)"/>
      </g>
     </g>
    </g>
    <g id="xtick_5">
     <g id="line2d_9">
      <path d="M 225.918395 291.250909 
L 225.918395 21.56 
" clip-path="url(#p9ba62f33f3)" style="fill: none; stroke: #b0b0b0; stroke-opacity: 0.25; stroke-width: 0.6; stroke-linecap: square"/>
     </g>
     <g id="line2d_10">
      <g>
       <use xlink:href="#md010fd1eb7" x="225.918395" y="291.250909" style="stroke: #000000; stroke-width: 0.8"/>
      </g>
     </g>
     <g id="text_5">
      <!-- 0.3 -->
      <g transform="translate(227.99652 310.973409) rotate(-90) scale(0.08 -0.08)">
       <defs>
        <path id="DejaVuSans-16" d="M 2597 2516 
Q 3050 2419 3304 2112 
Q 3559 1806 3559 1356 
Q 3559 666 3084 287 
Q 2609 -91 1734 -91 
Q 1441 -91 1130 -33 
Q 819 25 488 141 
L 488 750 
Q 750 597 1062 519 
Q 1375 441 1716 441 
Q 2309 441 2620 675 
Q 2931 909 2931 1356 
Q 2931 1769 2642 2001 
Q 2353 2234 1838 2234 
L 1294 2234 
L 1294 2753 
L 1863 2753 
Q 2328 2753 2575 2939 
Q 2822 3125 2822 3475 
Q 2822 3834 2567 4026 
Q 2313 4219 1838 4219 
Q 1578 4219 1281 4162 
Q 984 4106 628 3988 
L 628 4550 
Q 988 4650 1302 4700 
Q 1616 4750 1894 4750 
Q 2613 4750 3031 4423 
Q 3450 4097 3450 3541 
Q 3450 3153 3228 2886 
Q 3006 2619 2597 2516 
z
" transform="scale(0.015625)"/>
       </defs>
       <use xlink:href="#DejaVuSans-13"/>
       <use xlink:href="#DejaVuSans-11" transform="translate(63.625 0)"/>
       <use xlink:href="#DejaVuSans-16" transform="translate(95.40625 0)"/>
      </g>
     </g>
    </g>
    <g id="xtick_6">
     <g id="line2d_11">
      <path d="M 264.765365 291.250909 
L 264.765365 21.56 
" clip-path="url(#p9ba62f33f3)" style="fill: none; stroke: #b0b0b0; stroke-opacity: 0.25; stroke-width: 0.6; stroke-linecap: square"/>
     </g>
     <g id="line2d_12">
      <g>
       <use xlink:href="#md010fd1eb7" x="264.765365" y="291.250909" style="stroke: #000000; stroke-width: 0.8"/>
      </g>
     </g>
     <g id="text_6">
      <!-- 0.4 -->
      <g transform="translate(266.84349 310.973409) rotate(-90) scale(0.08 -0.08)">
       <defs>
        <path id="DejaVuSans-17" d="M 2419 4116 
L 825 1625 
L 2419 1625 
L 2419 4116 
z
M 2253 4666 
L 3047 4666 
L 3047 1625 
L 3713 1625 
L 3713 1100 
L 3047 1100 
L 3047 0 
L 2419 0 
L 2419 1100 
L 313 1100 
L 313 1709 
L 2253 4666 
z
" transform="scale(0.015625)"/>
       </defs>
       <use xlink:href="#DejaVuSans-13"/>
       <use xlink:href="#DejaVuSans-11" transform="translate(63.625 0)"/>
       <use xlink:href="#DejaVuSans-17" transform="translate(95.40625 0)"/>
      </g>
     </g>
    </g>
    <g id="xtick_7">
     <g id="line2d_13">
      <path d="M 303.612334 291.250909 
L 303.612334 21.56 
" clip-path="url(#p9ba62f33f3)" style="fill: none; stroke: #b0b0b0; stroke-opacity: 0.25; stroke-width: 0.6; stroke-linecap: square"/>
     </g>
     <g id="line2d_14">
      <g>
       <use xlink:href="#md010fd1eb7" x="303.612334" y="291.250909" style="stroke: #000000; stroke-width: 0.8"/>
      </g>
     </g>
     <g id="text_7">
      <!-- 0.5 -->
      <g transform="translate(305.690459 310.973409) rotate(-90) scale(0.08 -0.08)">
       <use xlink:href="#DejaVuSans-13"/>
       <use xlink:href="#DejaVuSans-11" transform="translate(63.625 0)"/>
       <use xlink:href="#DejaVuSans-18" transform="translate(95.40625 0)"/>
      </g>
     </g>
    </g>
    <g id="xtick_8">
     <g id="line2d_15">
      <path d="M 342.459304 291.250909 
L 342.459304 21.56 
" clip-path="url(#p9ba62f33f3)" style="fill: none; stroke: #b0b0b0; stroke-opacity: 0.25; stroke-width: 0.6; stroke-linecap: square"/>
     </g>
     <g id="line2d_16">
      <g>
       <use xlink:href="#md010fd1eb7" x="342.459304" y="291.250909" style="stroke: #000000; stroke-width: 0.8"/>
      </g>
     </g>
     <g id="text_8">
      <!-- 0.6 -->
      <g transform="translate(344.537429 310.973409) rotate(-90) scale(0.08 -0.08)">
       <defs>
        <path id="DejaVuSans-19" d="M 2113 2584 
Q 1688 2584 1439 2293 
Q 1191 2003 1191 1497 
Q 1191 994 1439 701 
Q 1688 409 2113 409 
Q 2538 409 2786 701 
Q 3034 994 3034 1497 
Q 3034 2003 2786 2293 
Q 2538 2584 2113 2584 
z
M 3366 4563 
L 3366 3988 
Q 3128 4100 2886 4159 
Q 2644 4219 2406 4219 
Q 1781 4219 1451 3797 
Q 1122 3375 1075 2522 
Q 1259 2794 1537 2939 
Q 1816 3084 2150 3084 
Q 2853 3084 3261 2657 
Q 3669 2231 3669 1497 
Q 3669 778 3244 343 
Q 2819 -91 2113 -91 
Q 1303 -91 875 529 
Q 447 1150 447 2328 
Q 447 3434 972 4092 
Q 1497 4750 2381 4750 
Q 2619 4750 2861 4703 
Q 3103 4656 3366 4563 
z
" transform="scale(0.015625)"/>
       </defs>
       <use xlink:href="#DejaVuSans-13"/>
       <use xlink:href="#DejaVuSans-11" transform="translate(63.625 0)"/>
       <use xlink:href="#DejaVuSans-19" transform="translate(95.40625 0)"/>
      </g>
     </g>
    </g>
    <g id="xtick_9">
     <g id="line2d_17">
      <path d="M 381.306274 291.250909 
L 381.306274 21.56 
" clip-path="url(#p9ba62f33f3)" style="fill: none; stroke: #b0b0b0; stroke-opacity: 0.25; stroke-width: 0.6; stroke-linecap: square"/>
     </g>
     <g id="line2d_18">
      <g>
       <use xlink:href="#md010fd1eb7" x="381.306274" y="291.250909" style="stroke: #000000; stroke-width: 0.8"/>
      </g>
     </g>
     <g id="text_9">
      <!-- 0.7 -->
      <g transform="translate(383.384399 310.973409) rotate(-90) scale(0.08 -0.08)">
       <defs>
        <path id="DejaVuSans-1a" d="M 525 4666 
L 3525 4666 
L 3525 4397 
L 1831 0 
L 1172 0 
L 2766 4134 
L 525 4134 
L 525 4666 
z
" transform="scale(0.015625)"/>
       </defs>
       <use xlink:href="#DejaVuSans-13"/>
       <use xlink:href="#DejaVuSans-11" transform="translate(63.625 0)"/>
       <use xlink:href="#DejaVuSans-1a" transform="translate(95.40625 0)"/>
      </g>
     </g>
    </g>
    <g id="xtick_10">
     <g id="line2d_19">
      <path d="M 420.153243 291.250909 
L 420.153243 21.56 
" clip-path="url(#p9ba62f33f3)" style="fill: none; stroke: #b0b0b0; stroke-opacity: 0.25; stroke-width: 0.6; stroke-linecap: square"/>
     </g>
     <g id="line2d_20">
      <g>
       <use xlink:href="#md010fd1eb7" x="420.153243" y="291.250909" style="stroke: #000000; stroke-width: 0.8"/>
      </g>
     </g>
     <g id="text_10">
      <!-- 0.8 -->
      <g transform="translate(422.231368 310.973409) rotate(-90) scale(0.08 -0.08)">
       <defs>
        <path id="DejaVuSans-1b" d="M 2034 2216 
Q 1584 2216 1326 1975 
Q 1069 1734 1069 1313 
Q 1069 891 1326 650 
Q 1584 409 2034 409 
Q 2484 409 2743 651 
Q 3003 894 3003 1313 
Q 3003 1734 2745 1975 
Q 2488 2216 2034 2216 
z
M 1403 2484 
Q 997 2584 770 2862 
Q 544 3141 544 3541 
Q 544 4100 942 4425 
Q 1341 4750 2034 4750 
Q 2731 4750 3128 4425 
Q 3525 4100 3525 3541 
Q 3525 3141 3298 2862 
Q 3072 2584 2669 2484 
Q 3125 2378 3379 2068 
Q 3634 1759 3634 1313 
Q 3634 634 3220 271 
Q 2806 -91 2034 -91 
Q 1263 -91 848 271 
Q 434 634 434 1313 
Q 434 1759 690 2068 
Q 947 2378 1403 2484 
z
M 1172 3481 
Q 1172 3119 1398 2916 
Q 1625 2713 2034 2713 
Q 2441 2713 2670 2916 
Q 2900 3119 2900 3481 
Q 2900 3844 2670 4047 
Q 2441 4250 2034 4250 
Q 1625 4250 1398 4047 
Q 1172 3844 1172 3481 
z
" transform="scale(0.015625)"/>
       </defs>
       <use xlink:href="#DejaVuSans-13"/>
       <use xlink:href="#DejaVuSans-11" transform="translate(63.625 0)"/>
       <use xlink:href="#DejaVuSans-1b" transform="translate(95.40625 0)"/>
      </g>
     </g>
    </g>
    <g id="xtick_11">
     <g id="line2d_21">
      <path d="M 459.000213 291.250909 
L 459.000213 21.56 
" clip-path="url(#p9ba62f33f3)" style="fill: none; stroke: #b0b0b0; stroke-opacity: 0.25; stroke-width: 0.6; stroke-linecap: square"/>
     </g>
     <g id="line2d_22">
      <g>
       <use xlink:href="#md010fd1eb7" x="459.000213" y="291.250909" style="stroke: #000000; stroke-width: 0.8"/>
      </g>
     </g>
     <g id="text_11">
      <!-- 0.9 -->
      <g transform="translate(461.078338 310.973409) rotate(-90) scale(0.08 -0.08)">
       <defs>
        <path id="DejaVuSans-1c" d="M 703 97 
L 703 672 
Q 941 559 1184 500 
Q 1428 441 1663 441 
Q 2288 441 2617 861 
Q 2947 1281 2994 2138 
Q 2813 1869 2534 1725 
Q 2256 1581 1919 1581 
Q 1219 1581 811 2004 
Q 403 2428 403 3163 
Q 403 3881 828 4315 
Q 1253 4750 1959 4750 
Q 2769 4750 3195 4129 
Q 3622 3509 3622 2328 
Q 3622 1225 3098 567 
Q 2575 -91 1691 -91 
Q 1453 -91 1209 -44 
Q 966 3 703 97 
z
M 1959 2075 
Q 2384 2075 2632 2365 
Q 2881 2656 2881 3163 
Q 2881 3666 2632 3958 
Q 2384 4250 1959 4250 
Q 1534 4250 1286 3958 
Q 1038 3666 1038 3163 
Q 1038 2656 1286 2365 
Q 1534 2075 1959 2075 
z
" transform="scale(0.015625)"/>
       </defs>
       <use xlink:href="#DejaVuSans-13"/>
       <use xlink:href="#DejaVuSans-11" transform="translate(63.625 0)"/>
       <use xlink:href="#DejaVuSans-1c" transform="translate(95.40625 0)"/>
      </g>
     </g>
    </g>
    <g id="xtick_12">
     <g id="line2d_23">
      <path d="M 497.847183 291.250909 
L 497.847183 21.56 
" clip-path="url(#p9ba62f33f3)" style="fill: none; stroke: #b0b0b0; stroke-opacity: 0.25; stroke-width: 0.6; stroke-linecap: square"/>
     </g>
     <g id="line2d_24">
      <g>
       <use xlink:href="#md010fd1eb7" x="497.847183" y="291.250909" style="stroke: #000000; stroke-width: 0.8"/>
      </g>
     </g>
     <g id="text_12">
      <!-- 0.95 -->
      <g transform="translate(499.925308 316.063409) rotate(-90) scale(0.08 -0.08)">
       <use xlink:href="#DejaVuSans-13"/>
       <use xlink:href="#DejaVuSans-11" transform="translate(63.625 0)"/>
       <use xlink:href="#DejaVuSans-1c" transform="translate(95.40625 0)"/>
       <use xlink:href="#DejaVuSans-18" transform="translate(159.03125 0)"/>
      </g>
     </g>
    </g>
    <g id="text_13">
     <!-- Bias weight  $\omega$   (green: valid range $[0,1)$) -->
     <g transform="translate(178.938849 327.663409) scale(0.1 -0.1)">
      <defs>
       <path id="DejaVuSans-25" d="M 1259 2228 
L 1259 519 
L 2272 519 
Q 2781 519 3026 730 
Q 3272 941 3272 1375 
Q 3272 1813 3026 2020 
Q 2781 2228 2272 2228 
L 1259 2228 
z
M 1259 4147 
L 1259 2741 
L 2194 2741 
Q 2656 2741 2882 2914 
Q 3109 3088 3109 3444 
Q 3109 3797 2882 3972 
Q 2656 4147 2194 4147 
L 1259 4147 
z
M 628 4666 
L 2241 4666 
Q 2963 4666 3353 4366 
Q 3744 4066 3744 3513 
Q 3744 3084 3544 2831 
Q 3344 2578 2956 2516 
Q 3422 2416 3680 2098 
Q 3938 1781 3938 1306 
Q 3938 681 3513 340 
Q 3088 0 2303 0 
L 628 0 
L 628 4666 
z
" transform="scale(0.015625)"/>
       <path id="DejaVuSans-4c" d="M 603 3500 
L 1178 3500 
L 1178 0 
L 603 0 
L 603 3500 
z
M 603 4863 
L 1178 4863 
L 1178 4134 
L 603 4134 
L 603 4863 
z
" transform="scale(0.015625)"/>
       <path id="DejaVuSans-44" d="M 2194 1759 
Q 1497 1759 1228 1600 
Q 959 1441 959 1056 
Q 959 750 1161 570 
Q 1363 391 1709 391 
Q 2188 391 2477 730 
Q 2766 1069 2766 1631 
L 2766 1759 
L 2194 1759 
z
M 3341 1997 
L 3341 0 
L 2766 0 
L 2766 531 
Q 2569 213 2275 61 
Q 1981 -91 1556 -91 
Q 1019 -91 701 211 
Q 384 513 384 1019 
Q 384 1609 779 1909 
Q 1175 2209 1959 2209 
L 2766 2209 
L 2766 2266 
Q 2766 2663 2505 2880 
Q 2244 3097 1772 3097 
Q 1472 3097 1187 3025 
Q 903 2953 641 2809 
L 641 3341 
Q 956 3463 1253 3523 
Q 1550 3584 1831 3584 
Q 2591 3584 2966 3190 
Q 3341 2797 3341 1997 
z
" transform="scale(0.015625)"/>
       <path id="DejaVuSans-56" d="M 2834 3397 
L 2834 2853 
Q 2591 2978 2328 3040 
Q 2066 3103 1784 3103 
Q 1356 3103 1142 2972 
Q 928 2841 928 2578 
Q 928 2378 1081 2264 
Q 1234 2150 1697 2047 
L 1894 2003 
Q 2506 1872 2764 1633 
Q 3022 1394 3022 966 
Q 3022 478 2636 193 
Q 2250 -91 1575 -91 
Q 1294 -91 989 -36 
Q 684 19 347 128 
L 347 722 
Q 666 556 975 473 
Q 1284 391 1588 391 
Q 1994 391 2212 530 
Q 2431 669 2431 922 
Q 2431 1156 2273 1281 
Q 2116 1406 1581 1522 
L 1381 1569 
Q 847 1681 609 1914 
Q 372 2147 372 2553 
Q 372 3047 722 3315 
Q 1072 3584 1716 3584 
Q 2034 3584 2315 3537 
Q 2597 3491 2834 3397 
z
" transform="scale(0.015625)"/>
       <path id="DejaVuSans-3" transform="scale(0.015625)"/>
       <path id="DejaVuSans-5a" d="M 269 3500 
L 844 3500 
L 1563 769 
L 2278 3500 
L 2956 3500 
L 3675 769 
L 4391 3500 
L 4966 3500 
L 4050 0 
L 3372 0 
L 2619 2869 
L 1863 0 
L 1184 0 
L 269 3500 
z
" transform="scale(0.015625)"/>
       <path id="DejaVuSans-48" d="M 3597 1894 
L 3597 1613 
L 953 1613 
Q 991 1019 1311 708 
Q 1631 397 2203 397 
Q 2534 397 2845 478 
Q 3156 559 3463 722 
L 3463 178 
Q 3153 47 2828 -22 
Q 2503 -91 2169 -91 
Q 1331 -91 842 396 
Q 353 884 353 1716 
Q 353 2575 817 3079 
Q 1281 3584 2069 3584 
Q 2775 3584 3186 3129 
Q 3597 2675 3597 1894 
z
M 3022 2063 
Q 3016 2534 2758 2815 
Q 2500 3097 2075 3097 
Q 1594 3097 1305 2825 
Q 1016 2553 972 2059 
L 3022 2063 
z
" transform="scale(0.015625)"/>
       <path id="DejaVuSans-4a" d="M 2906 1791 
Q 2906 2416 2648 2759 
Q 2391 3103 1925 3103 
Q 1463 3103 1205 2759 
Q 947 2416 947 1791 
Q 947 1169 1205 825 
Q 1463 481 1925 481 
Q 2391 481 2648 825 
Q 2906 1169 2906 1791 
z
M 3481 434 
Q 3481 -459 3084 -895 
Q 2688 -1331 1869 -1331 
Q 1566 -1331 1297 -1286 
Q 1028 -1241 775 -1147 
L 775 -588 
Q 1028 -725 1275 -790 
Q 1522 -856 1778 -856 
Q 2344 -856 2625 -561 
Q 2906 -266 2906 331 
L 2906 616 
Q 2728 306 2450 153 
Q 2172 0 1784 0 
Q 1141 0 747 490 
Q 353 981 353 1791 
Q 353 2603 747 3093 
Q 1141 3584 1784 3584 
Q 2172 3584 2450 3431 
Q 2728 3278 2906 2969 
L 2906 3500 
L 3481 3500 
L 3481 434 
z
" transform="scale(0.015625)"/>
       <path id="DejaVuSans-4b" d="M 3513 2113 
L 3513 0 
L 2938 0 
L 2938 2094 
Q 2938 2591 2744 2837 
Q 2550 3084 2163 3084 
Q 1697 3084 1428 2787 
Q 1159 2491 1159 1978 
L 1159 0 
L 581 0 
L 581 4863 
L 1159 4863 
L 1159 2956 
Q 1366 3272 1645 3428 
Q 1925 3584 2291 3584 
Q 2894 3584 3203 3211 
Q 3513 2838 3513 2113 
z
" transform="scale(0.015625)"/>
       <path id="DejaVuSans-57" d="M 1172 4494 
L 1172 3500 
L 2356 3500 
L 2356 3053 
L 1172 3053 
L 1172 1153 
Q 1172 725 1289 603 
Q 1406 481 1766 481 
L 2356 481 
L 2356 0 
L 1766 0 
Q 1100 0 847 248 
Q 594 497 594 1153 
L 594 3053 
L 172 3053 
L 172 3500 
L 594 3500 
L 594 4494 
L 1172 4494 
z
" transform="scale(0.015625)"/>
       <path id="DejaVuSans-Oblique-35d" d="M 1369 -91 
Q 72 -91 434 1766 
Q 575 2500 1256 3500 
L 1875 3500 
Q 1231 2500 1088 1750 
Q 819 397 1519 397 
Q 2166 397 2478 2078 
L 3009 2078 
Q 2669 388 3316 397 
Q 4013 403 4275 1750 
Q 4419 2500 4169 3500 
L 4788 3500 
Q 5075 2500 4934 1766 
Q 4578 -94 3278 -91 
Q 2428 -88 2503 844 
Q 2194 -91 1369 -91 
z
" transform="scale(0.015625)"/>
       <path id="DejaVuSans-b" d="M 1984 4856 
Q 1566 4138 1362 3434 
Q 1159 2731 1159 2009 
Q 1159 1288 1364 580 
Q 1569 -128 1984 -844 
L 1484 -844 
Q 1016 -109 783 600 
Q 550 1309 550 2009 
Q 550 2706 781 3412 
Q 1013 4119 1484 4856 
L 1984 4856 
z
" transform="scale(0.015625)"/>
       <path id="DejaVuSans-55" d="M 2631 2963 
Q 2534 3019 2420 3045 
Q 2306 3072 2169 3072 
Q 1681 3072 1420 2755 
Q 1159 2438 1159 1844 
L 1159 0 
L 581 0 
L 581 3500 
L 1159 3500 
L 1159 2956 
Q 1341 3275 1631 3429 
Q 1922 3584 2338 3584 
Q 2397 3584 2469 3576 
Q 2541 3569 2628 3553 
L 2631 2963 
z
" transform="scale(0.015625)"/>
       <path id="DejaVuSans-51" d="M 3513 2113 
L 3513 0 
L 2938 0 
L 2938 2094 
Q 2938 2591 2744 2837 
Q 2550 3084 2163 3084 
Q 1697 3084 1428 2787 
Q 1159 2491 1159 1978 
L 1159 0 
L 581 0 
L 581 3500 
L 1159 3500 
L 1159 2956 
Q 1366 3272 1645 3428 
Q 1925 3584 2291 3584 
Q 2894 3584 3203 3211 
Q 3513 2838 3513 2113 
z
" transform="scale(0.015625)"/>
       <path id="DejaVuSans-1d" d="M 750 794 
L 1409 794 
L 1409 0 
L 750 0 
L 750 794 
z
M 750 3309 
L 1409 3309 
L 1409 2516 
L 750 2516 
L 750 3309 
z
" transform="scale(0.015625)"/>
       <path id="DejaVuSans-59" d="M 191 3500 
L 800 3500 
L 1894 563 
L 2988 3500 
L 3597 3500 
L 2284 0 
L 1503 0 
L 191 3500 
z
" transform="scale(0.015625)"/>
       <path id="DejaVuSans-4f" d="M 603 4863 
L 1178 4863 
L 1178 0 
L 603 0 
L 603 4863 
z
" transform="scale(0.015625)"/>
       <path id="DejaVuSans-47" d="M 2906 2969 
L 2906 4863 
L 3481 4863 
L 3481 0 
L 2906 0 
L 2906 525 
Q 2725 213 2448 61 
Q 2172 -91 1784 -91 
Q 1150 -91 751 415 
Q 353 922 353 1747 
Q 353 2572 751 3078 
Q 1150 3584 1784 3584 
Q 2172 3584 2448 3432 
Q 2725 3281 2906 2969 
z
M 947 1747 
Q 947 1113 1208 752 
Q 1469 391 1925 391 
Q 2381 391 2643 752 
Q 2906 1113 2906 1747 
Q 2906 2381 2643 2742 
Q 2381 3103 1925 3103 
Q 1469 3103 1208 2742 
Q 947 2381 947 1747 
z
" transform="scale(0.015625)"/>
       <path id="DejaVuSans-3e" d="M 550 4863 
L 1875 4863 
L 1875 4416 
L 1125 4416 
L 1125 -397 
L 1875 -397 
L 1875 -844 
L 550 -844 
L 550 4863 
z
" transform="scale(0.015625)"/>
       <path id="DejaVuSans-f" d="M 750 794 
L 1409 794 
L 1409 256 
L 897 -744 
L 494 -744 
L 750 256 
L 750 794 
z
" transform="scale(0.015625)"/>
       <path id="DejaVuSans-c" d="M 513 4856 
L 1013 4856 
Q 1481 4119 1714 3412 
Q 1947 2706 1947 2009 
Q 1947 1309 1714 600 
Q 1481 -109 1013 -844 
L 513 -844 
Q 928 -128 1133 580 
Q 1338 1288 1338 2009 
Q 1338 2731 1133 3434 
Q 928 4138 513 4856 
z
" transform="scale(0.015625)"/>
      </defs>
      <use xlink:href="#DejaVuSans-25" transform="translate(0 0.015625)"/>
      <use xlink:href="#DejaVuSans-4c" transform="translate(68.603516 0.015625)"/>
      <use xlink:href="#DejaVuSans-44" transform="translate(96.386719 0.015625)"/>
      <use xlink:href="#DejaVuSans-56" transform="translate(157.666016 0.015625)"/>
      <use xlink:href="#DejaVuSans-3" transform="translate(209.765625 0.015625)"/>
      <use xlink:href="#DejaVuSans-5a" transform="translate(241.552734 0.015625)"/>
      <use xlink:href="#DejaVuSans-48" transform="translate(323.339844 0.015625)"/>
      <use xlink:href="#DejaVuSans-4c" transform="translate(384.863281 0.015625)"/>
      <use xlink:href="#DejaVuSans-4a" transform="translate(412.646484 0.015625)"/>
      <use xlink:href="#DejaVuSans-4b" transform="translate(476.123047 0.015625)"/>
      <use xlink:href="#DejaVuSans-57" transform="translate(539.501953 0.015625)"/>
      <use xlink:href="#DejaVuSans-3" transform="translate(578.710938 0.015625)"/>
      <use xlink:href="#DejaVuSans-3" transform="translate(610.498047 0.015625)"/>
      <use xlink:href="#DejaVuSans-Oblique-35d" transform="translate(642.285156 0.015625)"/>
      <use xlink:href="#DejaVuSans-3" transform="translate(726.025391 0.015625)"/>
      <use xlink:href="#DejaVuSans-3" transform="translate(757.8125 0.015625)"/>
      <use xlink:href="#DejaVuSans-3" transform="translate(789.599609 0.015625)"/>
      <use xlink:href="#DejaVuSans-b" transform="translate(821.386719 0.015625)"/>
      <use xlink:href="#DejaVuSans-4a" transform="translate(860.400391 0.015625)"/>
      <use xlink:href="#DejaVuSans-55" transform="translate(923.876953 0.015625)"/>
      <use xlink:href="#DejaVuSans-48" transform="translate(962.990234 0.015625)"/>
      <use xlink:href="#DejaVuSans-48" transform="translate(1024.513672 0.015625)"/>
      <use xlink:href="#DejaVuSans-51" transform="translate(1086.037109 0.015625)"/>
      <use xlink:href="#DejaVuSans-1d" transform="translate(1149.416016 0.015625)"/>
      <use xlink:href="#DejaVuSans-3" transform="translate(1183.107422 0.015625)"/>
      <use xlink:href="#DejaVuSans-59" transform="translate(1214.894531 0.015625)"/>
      <use xlink:href="#DejaVuSans-44" transform="translate(1274.074219 0.015625)"/>
      <use xlink:href="#DejaVuSans-4f" transform="translate(1335.353516 0.015625)"/>
      <use xlink:href="#DejaVuSans-4c" transform="translate(1363.136719 0.015625)"/>
      <use xlink:href="#DejaVuSans-47" transform="translate(1390.919922 0.015625)"/>
      <use xlink:href="#DejaVuSans-3" transform="translate(1454.396484 0.015625)"/>
      <use xlink:href="#DejaVuSans-55" transform="translate(1486.183594 0.015625)"/>
      <use xlink:href="#DejaVuSans-44" transform="translate(1527.296875 0.015625)"/>
      <use xlink:href="#DejaVuSans-51" transform="translate(1588.576172 0.015625)"/>
      <use xlink:href="#DejaVuSans-4a" transform="translate(1651.955078 0.015625)"/>
      <use xlink:href="#DejaVuSans-48" transform="translate(1715.431641 0.015625)"/>
      <use xlink:href="#DejaVuSans-3" transform="translate(1776.955078 0.015625)"/>
      <use xlink:href="#DejaVuSans-3e" transform="translate(1808.742188 0.015625)"/>
      <use xlink:href="#DejaVuSans-13" transform="translate(1847.755859 0.015625)"/>
      <use xlink:href="#DejaVuSans-f" transform="translate(1911.378906 0.015625)"/>
      <use xlink:href="#DejaVuSans-14" transform="translate(1962.648438 0.015625)"/>
      <use xlink:href="#DejaVuSans-c" transform="translate(2026.271484 0.015625)"/>
      <use xlink:href="#DejaVuSans-c" transform="translate(2065.285156 0.015625)"/>
     </g>
    </g>
   </g>
   <g id="matplotlib.axis_2">
    <g id="ytick_1">
     <g id="line2d_25">
      <path d="M 51.107031 272.406086 
L 517.270668 272.406086 
" clip-path="url(#p9ba62f33f3)" style="fill: none; stroke: #b0b0b0; stroke-opacity: 0.25; stroke-width: 0.6; stroke-linecap: square"/>
     </g>
     <g id="line2d_26">
      <defs>
       <path id="m9472cb554e" d="M 0 0 
L -3.5 0 
" style="stroke: #000000; stroke-width: 0.8"/>
      </defs>
      <g>
       <use xlink:href="#m9472cb554e" x="51.107031" y="272.406086" style="stroke: #000000; stroke-width: 0.8"/>
      </g>
     </g>
     <g id="text_14">
      <!-- −12 -->
      <g transform="translate(23.002344 276.204914) scale(0.1 -0.1)">
       <defs>
        <path id="DejaVuSans-c9c" d="M 678 2272 
L 4684 2272 
L 4684 1741 
L 678 1741 
L 678 2272 
z
" transform="scale(0.015625)"/>
       </defs>
       <use xlink:href="#DejaVuSans-c9c"/>
       <use xlink:href="#DejaVuSans-14" transform="translate(83.796875 0)"/>
       <use xlink:href="#DejaVuSans-15" transform="translate(147.421875 0)"/>
      </g>
     </g>
    </g>
    <g id="ytick_2">
     <g id="line2d_27">
      <path d="M 51.107031 236.117555 
L 517.270668 236.117555 
" clip-path="url(#p9ba62f33f3)" style="fill: none; stroke: #b0b0b0; stroke-opacity: 0.25; stroke-width: 0.6; stroke-linecap: square"/>
     </g>
     <g id="line2d_28">
      <g>
       <use xlink:href="#m9472cb554e" x="51.107031" y="236.117555" style="stroke: #000000; stroke-width: 0.8"/>
      </g>
     </g>
     <g id="text_15">
      <!-- −10 -->
      <g transform="translate(23.002344 239.916383) scale(0.1 -0.1)">
       <use xlink:href="#DejaVuSans-c9c"/>
       <use xlink:href="#DejaVuSans-14" transform="translate(83.796875 0)"/>
       <use xlink:href="#DejaVuSans-13" transform="translate(147.421875 0)"/>
      </g>
     </g>
    </g>
    <g id="ytick_3">
     <g id="line2d_29">
      <path d="M 51.107031 199.829024 
L 517.270668 199.829024 
" clip-path="url(#p9ba62f33f3)" style="fill: none; stroke: #b0b0b0; stroke-opacity: 0.25; stroke-width: 0.6; stroke-linecap: square"/>
     </g>
     <g id="line2d_30">
      <g>
       <use xlink:href="#m9472cb554e" x="51.107031" y="199.829024" style="stroke: #000000; stroke-width: 0.8"/>
      </g>
     </g>
     <g id="text_16">
      <!-- −8 -->
      <g transform="translate(29.364844 203.627853) scale(0.1 -0.1)">
       <use xlink:href="#DejaVuSans-c9c"/>
       <use xlink:href="#DejaVuSans-1b" transform="translate(83.796875 0)"/>
      </g>
     </g>
    </g>
    <g id="ytick_4">
     <g id="line2d_31">
      <path d="M 51.107031 163.540494 
L 517.270668 163.540494 
" clip-path="url(#p9ba62f33f3)" style="fill: none; stroke: #b0b0b0; stroke-opacity: 0.25; stroke-width: 0.6; stroke-linecap: square"/>
     </g>
     <g id="line2d_32">
      <g>
       <use xlink:href="#m9472cb554e" x="51.107031" y="163.540494" style="stroke: #000000; stroke-width: 0.8"/>
      </g>
     </g>
     <g id="text_17">
      <!-- −6 -->
      <g transform="translate(29.364844 167.339322) scale(0.1 -0.1)">
       <use xlink:href="#DejaVuSans-c9c"/>
       <use xlink:href="#DejaVuSans-19" transform="translate(83.796875 0)"/>
      </g>
     </g>
    </g>
    <g id="ytick_5">
     <g id="line2d_33">
      <path d="M 51.107031 127.251963 
L 517.270668 127.251963 
" clip-path="url(#p9ba62f33f3)" style="fill: none; stroke: #b0b0b0; stroke-opacity: 0.25; stroke-width: 0.6; stroke-linecap: square"/>
     </g>
     <g id="line2d_34">
      <g>
       <use xlink:href="#m9472cb554e" x="51.107031" y="127.251963" style="stroke: #000000; stroke-width: 0.8"/>
      </g>
     </g>
     <g id="text_18">
      <!-- −4 -->
      <g transform="translate(29.364844 131.050791) scale(0.1 -0.1)">
       <use xlink:href="#DejaVuSans-c9c"/>
       <use xlink:href="#DejaVuSans-17" transform="translate(83.796875 0)"/>
      </g>
     </g>
    </g>
    <g id="ytick_6">
     <g id="line2d_35">
      <path d="M 51.107031 90.963432 
L 517.270668 90.963432 
" clip-path="url(#p9ba62f33f3)" style="fill: none; stroke: #b0b0b0; stroke-opacity: 0.25; stroke-width: 0.6; stroke-linecap: square"/>
     </g>
     <g id="line2d_36">
      <g>
       <use xlink:href="#m9472cb554e" x="51.107031" y="90.963432" style="stroke: #000000; stroke-width: 0.8"/>
      </g>
     </g>
     <g id="text_19">
      <!-- −2 -->
      <g transform="translate(29.364844 94.76226) scale(0.1 -0.1)">
       <use xlink:href="#DejaVuSans-c9c"/>
       <use xlink:href="#DejaVuSans-15" transform="translate(83.796875 0)"/>
      </g>
     </g>
    </g>
    <g id="ytick_7">
     <g id="line2d_37">
      <path d="M 51.107031 54.674902 
L 517.270668 54.674902 
" clip-path="url(#p9ba62f33f3)" style="fill: none; stroke: #b0b0b0; stroke-opacity: 0.25; stroke-width: 0.6; stroke-linecap: square"/>
     </g>
     <g id="line2d_38">
      <g>
       <use xlink:href="#m9472cb554e" x="51.107031" y="54.674902" style="stroke: #000000; stroke-width: 0.8"/>
      </g>
     </g>
     <g id="text_20">
      <!-- 0 -->
      <g transform="translate(37.744531 58.47373) scale(0.1 -0.1)">
       <use xlink:href="#DejaVuSans-13"/>
      </g>
     </g>
    </g>
    <g id="text_21">
     <!-- Total $\Pi$ over technologies &amp; nodes  [$10^3$ MEUR/GW] -->
     <g transform="translate(16.6 284.355455) rotate(-90) scale(0.1 -0.1)">
      <defs>
       <path id="DejaVuSans-37" d="M -19 4666 
L 3928 4666 
L 3928 4134 
L 2272 4134 
L 2272 0 
L 1638 0 
L 1638 4134 
L -19 4134 
L -19 4666 
z
" transform="scale(0.015625)"/>
       <path id="DejaVuSans-52" d="M 1959 3097 
Q 1497 3097 1228 2736 
Q 959 2375 959 1747 
Q 959 1119 1226 758 
Q 1494 397 1959 397 
Q 2419 397 2687 759 
Q 2956 1122 2956 1747 
Q 2956 2369 2687 2733 
Q 2419 3097 1959 3097 
z
M 1959 3584 
Q 2709 3584 3137 3096 
Q 3566 2609 3566 1747 
Q 3566 888 3137 398 
Q 2709 -91 1959 -91 
Q 1206 -91 779 398 
Q 353 888 353 1747 
Q 353 2609 779 3096 
Q 1206 3584 1959 3584 
z
" transform="scale(0.015625)"/>
       <path id="DejaVuSans-335" d="M 4184 4666 
L 4184 0 
L 3553 0 
L 3553 4134 
L 1259 4134 
L 1259 0 
L 628 0 
L 628 4666 
L 4184 4666 
z
" transform="scale(0.015625)"/>
       <path id="DejaVuSans-46" d="M 3122 3366 
L 3122 2828 
Q 2878 2963 2633 3030 
Q 2388 3097 2138 3097 
Q 1578 3097 1268 2742 
Q 959 2388 959 1747 
Q 959 1106 1268 751 
Q 1578 397 2138 397 
Q 2388 397 2633 464 
Q 2878 531 3122 666 
L 3122 134 
Q 2881 22 2623 -34 
Q 2366 -91 2075 -91 
Q 1284 -91 818 406 
Q 353 903 353 1747 
Q 353 2603 823 3093 
Q 1294 3584 2113 3584 
Q 2378 3584 2631 3529 
Q 2884 3475 3122 3366 
z
" transform="scale(0.015625)"/>
       <path id="DejaVuSans-9" d="M 1556 2509 
Q 1272 2256 1139 2004 
Q 1006 1753 1006 1478 
Q 1006 1022 1337 719 
Q 1669 416 2169 416 
Q 2466 416 2725 514 
Q 2984 613 3213 813 
L 1556 2509 
z
M 1997 2859 
L 3584 1234 
Q 3769 1513 3872 1830 
Q 3975 2147 3994 2503 
L 4575 2503 
Q 4538 2091 4375 1687 
Q 4213 1284 3922 891 
L 4794 0 
L 4006 0 
L 3559 459 
Q 3234 181 2878 45 
Q 2522 -91 2113 -91 
Q 1359 -91 881 339 
Q 403 769 403 1441 
Q 403 1841 612 2192 
Q 822 2544 1241 2853 
Q 1091 3050 1012 3245 
Q 934 3441 934 3628 
Q 934 4134 1281 4442 
Q 1628 4750 2203 4750 
Q 2463 4750 2720 4694 
Q 2978 4638 3244 4525 
L 3244 3956 
Q 2972 4103 2725 4179 
Q 2478 4256 2266 4256 
Q 1938 4256 1733 4082 
Q 1528 3909 1528 3634 
Q 1528 3475 1620 3314 
Q 1713 3153 1997 2859 
z
" transform="scale(0.015625)"/>
       <path id="DejaVuSans-30" d="M 628 4666 
L 1569 4666 
L 2759 1491 
L 3956 4666 
L 4897 4666 
L 4897 0 
L 4281 0 
L 4281 4097 
L 3078 897 
L 2444 897 
L 1241 4097 
L 1241 0 
L 628 0 
L 628 4666 
z
" transform="scale(0.015625)"/>
       <path id="DejaVuSans-28" d="M 628 4666 
L 3578 4666 
L 3578 4134 
L 1259 4134 
L 1259 2753 
L 3481 2753 
L 3481 2222 
L 1259 2222 
L 1259 531 
L 3634 531 
L 3634 0 
L 628 0 
L 628 4666 
z
" transform="scale(0.015625)"/>
       <path id="DejaVuSans-38" d="M 556 4666 
L 1191 4666 
L 1191 1831 
Q 1191 1081 1462 751 
Q 1734 422 2344 422 
Q 2950 422 3222 751 
Q 3494 1081 3494 1831 
L 3494 4666 
L 4128 4666 
L 4128 1753 
Q 4128 841 3676 375 
Q 3225 -91 2344 -91 
Q 1459 -91 1007 375 
Q 556 841 556 1753 
L 556 4666 
z
" transform="scale(0.015625)"/>
       <path id="DejaVuSans-35" d="M 2841 2188 
Q 3044 2119 3236 1894 
Q 3428 1669 3622 1275 
L 4263 0 
L 3584 0 
L 2988 1197 
Q 2756 1666 2539 1819 
Q 2322 1972 1947 1972 
L 1259 1972 
L 1259 0 
L 628 0 
L 628 4666 
L 2053 4666 
Q 2853 4666 3247 4331 
Q 3641 3997 3641 3322 
Q 3641 2881 3436 2590 
Q 3231 2300 2841 2188 
z
M 1259 4147 
L 1259 2491 
L 2053 2491 
Q 2509 2491 2742 2702 
Q 2975 2913 2975 3322 
Q 2975 3731 2742 3939 
Q 2509 4147 2053 4147 
L 1259 4147 
z
" transform="scale(0.015625)"/>
       <path id="DejaVuSans-12" d="M 1625 4666 
L 2156 4666 
L 531 -594 
L 0 -594 
L 1625 4666 
z
" transform="scale(0.015625)"/>
       <path id="DejaVuSans-2a" d="M 3809 666 
L 3809 1919 
L 2778 1919 
L 2778 2438 
L 4434 2438 
L 4434 434 
Q 4069 175 3628 42 
Q 3188 -91 2688 -91 
Q 1594 -91 976 548 
Q 359 1188 359 2328 
Q 359 3472 976 4111 
Q 1594 4750 2688 4750 
Q 3144 4750 3555 4637 
Q 3966 4525 4313 4306 
L 4313 3634 
Q 3963 3931 3569 4081 
Q 3175 4231 2741 4231 
Q 1884 4231 1454 3753 
Q 1025 3275 1025 2328 
Q 1025 1384 1454 906 
Q 1884 428 2741 428 
Q 3075 428 3337 486 
Q 3600 544 3809 666 
z
" transform="scale(0.015625)"/>
       <path id="DejaVuSans-3a" d="M 213 4666 
L 850 4666 
L 1831 722 
L 2809 4666 
L 3519 4666 
L 4500 722 
L 5478 4666 
L 6119 4666 
L 4947 0 
L 4153 0 
L 3169 4050 
L 2175 0 
L 1381 0 
L 213 4666 
z
" transform="scale(0.015625)"/>
       <path id="DejaVuSans-40" d="M 1947 4863 
L 1947 -844 
L 622 -844 
L 622 -397 
L 1369 -397 
L 1369 4416 
L 622 4416 
L 622 4863 
L 1947 4863 
z
" transform="scale(0.015625)"/>
      </defs>
      <use xlink:href="#DejaVuSans-37" transform="translate(0 0.746875)"/>
      <use xlink:href="#DejaVuSans-52" transform="translate(44.083984 0.746875)"/>
      <use xlink:href="#DejaVuSans-57" transform="translate(105.265625 0.746875)"/>
      <use xlink:href="#DejaVuSans-44" transform="translate(144.474609 0.746875)"/>
      <use xlink:href="#DejaVuSans-4f" transform="translate(205.753906 0.746875)"/>
      <use xlink:href="#DejaVuSans-3" transform="translate(233.537109 0.746875)"/>
      <use xlink:href="#DejaVuSans-335" transform="translate(265.324219 0.746875)"/>
      <use xlink:href="#DejaVuSans-3" transform="translate(340.519531 0.746875)"/>
      <use xlink:href="#DejaVuSans-52" transform="translate(372.306641 0.746875)"/>
      <use xlink:href="#DejaVuSans-59" transform="translate(433.488281 0.746875)"/>
      <use xlink:href="#DejaVuSans-48" transform="translate(492.667969 0.746875)"/>
      <use xlink:href="#DejaVuSans-55" transform="translate(554.191406 0.746875)"/>
      <use xlink:href="#DejaVuSans-3" transform="translate(595.304688 0.746875)"/>
      <use xlink:href="#DejaVuSans-57" transform="translate(627.091797 0.746875)"/>
      <use xlink:href="#DejaVuSans-48" transform="translate(666.300781 0.746875)"/>
      <use xlink:href="#DejaVuSans-46" transform="translate(727.824219 0.746875)"/>
      <use xlink:href="#DejaVuSans-4b" transform="translate(782.804688 0.746875)"/>
      <use xlink:href="#DejaVuSans-51" transform="translate(846.183594 0.746875)"/>
      <use xlink:href="#DejaVuSans-52" transform="translate(909.5625 0.746875)"/>
      <use xlink:href="#DejaVuSans-4f" transform="translate(970.744141 0.746875)"/>
      <use xlink:href="#DejaVuSans-52" transform="translate(998.527344 0.746875)"/>
      <use xlink:href="#DejaVuSans-4a" transform="translate(1059.708984 0.746875)"/>
      <use xlink:href="#DejaVuSans-4c" transform="translate(1123.185547 0.746875)"/>
      <use xlink:href="#DejaVuSans-48" transform="translate(1150.96875 0.746875)"/>
      <use xlink:href="#DejaVuSans-56" transform="translate(1212.492188 0.746875)"/>
      <use xlink:href="#DejaVuSans-3" transform="translate(1264.591797 0.746875)"/>
      <use xlink:href="#DejaVuSans-9" transform="translate(1296.378906 0.746875)"/>
      <use xlink:href="#DejaVuSans-3" transform="translate(1374.357422 0.746875)"/>
      <use xlink:href="#DejaVuSans-51" transform="translate(1406.144531 0.746875)"/>
      <use xlink:href="#DejaVuSans-52" transform="translate(1469.523438 0.746875)"/>
      <use xlink:href="#DejaVuSans-47" transform="translate(1530.705078 0.746875)"/>
      <use xlink:href="#DejaVuSans-48" transform="translate(1594.181641 0.746875)"/>
      <use xlink:href="#DejaVuSans-56" transform="translate(1655.705078 0.746875)"/>
      <use xlink:href="#DejaVuSans-3" transform="translate(1707.804688 0.746875)"/>
      <use xlink:href="#DejaVuSans-3" transform="translate(1739.591797 0.746875)"/>
      <use xlink:href="#DejaVuSans-3e" transform="translate(1771.378906 0.746875)"/>
      <use xlink:href="#DejaVuSans-14" transform="translate(1810.392578 0.746875)"/>
      <use xlink:href="#DejaVuSans-13" transform="translate(1874.015625 0.746875)"/>
      <use xlink:href="#DejaVuSans-16" transform="translate(1938.595703 42.046875) scale(0.7)"/>
      <use xlink:href="#DejaVuSans-3" transform="translate(1985.866211 0.746875)"/>
      <use xlink:href="#DejaVuSans-30" transform="translate(2017.65332 0.746875)"/>
      <use xlink:href="#DejaVuSans-28" transform="translate(2103.932617 0.746875)"/>
      <use xlink:href="#DejaVuSans-38" transform="translate(2167.116211 0.746875)"/>
      <use xlink:href="#DejaVuSans-35" transform="translate(2240.30957 0.746875)"/>
      <use xlink:href="#DejaVuSans-12" transform="translate(2309.791992 0.746875)"/>
      <use xlink:href="#DejaVuSans-2a" transform="translate(2343.483398 0.746875)"/>
      <use xlink:href="#DejaVuSans-3a" transform="translate(2420.973633 0.746875)"/>
      <use xlink:href="#DejaVuSans-40" transform="translate(2519.850586 0.746875)"/>
     </g>
    </g>
   </g>
   <g id="line2d_39">
    <path d="M 70.530516 209.778953 
L 109.377486 209.778953 
L 148.224455 209.778953 
L 187.071425 209.778953 
L 225.918395 209.778953 
L 264.765365 209.778953 
L 303.612334 209.778953 
L 342.459304 209.778953 
L 381.306274 209.778953 
L 420.153243 209.778953 
L 459.000213 209.778953 
L 497.847183 209.778953 
" clip-path="url(#p9ba62f33f3)" style="fill: none; stroke: #440154; stroke-width: 1.8; stroke-linecap: square"/>
    <defs>
     <path id="m2d7b9d22a1" d="M 0 2 
C 0.530406 2 1.03916 1.789267 1.414214 1.414214 
C 1.789267 1.03916 2 0.530406 2 0 
C 2 -0.530406 1.789267 -1.03916 1.414214 -1.414214 
C 1.03916 -1.789267 0.530406 -2 0 -2 
C -0.530406 -2 -1.03916 -1.789267 -1.414214 -1.414214 
C -1.789267 -1.03916 -2 -0.530406 -2 0 
C -2 0.530406 -1.789267 1.03916 -1.414214 1.414214 
C -1.03916 1.789267 -0.530406 2 0 2 
z
" style="stroke: #440154"/>
    </defs>
    <g clip-path="url(#p9ba62f33f3)">
     <use xlink:href="#m2d7b9d22a1" x="70.530516" y="209.778953" style="fill: #440154; stroke: #440154"/>
     <use xlink:href="#m2d7b9d22a1" x="109.377486" y="209.778953" style="fill: #440154; stroke: #440154"/>
     <use xlink:href="#m2d7b9d22a1" x="148.224455" y="209.778953" style="fill: #440154; stroke: #440154"/>
     <use xlink:href="#m2d7b9d22a1" x="187.071425" y="209.778953" style="fill: #440154; stroke: #440154"/>
     <use xlink:href="#m2d7b9d22a1" x="225.918395" y="209.778953" style="fill: #440154; stroke: #440154"/>
     <use xlink:href="#m2d7b9d22a1" x="264.765365" y="209.778953" style="fill: #440154; stroke: #440154"/>
     <use xlink:href="#m2d7b9d22a1" x="303.612334" y="209.778953" style="fill: #440154; stroke: #440154"/>
     <use xlink:href="#m2d7b9d22a1" x="342.459304" y="209.778953" style="fill: #440154; stroke: #440154"/>
     <use xlink:href="#m2d7b9d22a1" x="381.306274" y="209.778953" style="fill: #440154; stroke: #440154"/>
     <use xlink:href="#m2d7b9d22a1" x="420.153243" y="209.778953" style="fill: #440154; stroke: #440154"/>
     <use xlink:href="#m2d7b9d22a1" x="459.000213" y="209.778953" style="fill: #440154; stroke: #440154"/>
     <use xlink:href="#m2d7b9d22a1" x="497.847183" y="209.778953" style="fill: #440154; stroke: #440154"/>
    </g>
   </g>
   <g id="line2d_40">
    <path d="M 70.530516 278.992231 
L 109.377486 273.928816 
L 148.224455 268.849038 
L 187.071425 258.524063 
L 225.918395 249.096619 
L 264.765365 240.217194 
L 303.612334 229.823378 
L 342.459304 219.983254 
L 381.306274 210.143559 
L 420.153243 200.13195 
L 459.000213 189.930809 
L 497.847183 186.086525 
" clip-path="url(#p9ba62f33f3)" style="fill: none; stroke: #453581; stroke-width: 1.8; stroke-linecap: square"/>
    <defs>
     <path id="mb31e0dd070" d="M 0 2 
C 0.530406 2 1.03916 1.789267 1.414214 1.414214 
C 1.789267 1.03916 2 0.530406 2 0 
C 2 -0.530406 1.789267 -1.03916 1.414214 -1.414214 
C 1.03916 -1.789267 0.530406 -2 0 -2 
C -0.530406 -2 -1.03916 -1.789267 -1.414214 -1.414214 
C -1.789267 -1.03916 -2 -0.530406 -2 0 
C -2 0.530406 -1.789267 1.03916 -1.414214 1.414214 
C -1.03916 1.789267 -0.530406 2 0 2 
z
" style="stroke: #453581"/>
    </defs>
    <g clip-path="url(#p9ba62f33f3)">
     <use xlink:href="#mb31e0dd070" x="70.530516" y="278.992231" style="fill: #453581; stroke: #453581"/>
     <use xlink:href="#mb31e0dd070" x="109.377486" y="273.928816" style="fill: #453581; stroke: #453581"/>
     <use xlink:href="#mb31e0dd070" x="148.224455" y="268.849038" style="fill: #453581; stroke: #453581"/>
     <use xlink:href="#mb31e0dd070" x="187.071425" y="258.524063" style="fill: #453581; stroke: #453581"/>
     <use xlink:href="#mb31e0dd070" x="225.918395" y="249.096619" style="fill: #453581; stroke: #453581"/>
     <use xlink:href="#mb31e0dd070" x="264.765365" y="240.217194" style="fill: #453581; stroke: #453581"/>
     <use xlink:href="#mb31e0dd070" x="303.612334" y="229.823378" style="fill: #453581; stroke: #453581"/>
     <use xlink:href="#mb31e0dd070" x="342.459304" y="219.983254" style="fill: #453581; stroke: #453581"/>
     <use xlink:href="#mb31e0dd070" x="381.306274" y="210.143559" style="fill: #453581; stroke: #453581"/>
     <use xlink:href="#mb31e0dd070" x="420.153243" y="200.13195" style="fill: #453581; stroke: #453581"/>
     <use xlink:href="#mb31e0dd070" x="459.000213" y="189.930809" style="fill: #453581; stroke: #453581"/>
     <use xlink:href="#mb31e0dd070" x="497.847183" y="186.086525" style="fill: #453581; stroke: #453581"/>
    </g>
   </g>
   <g id="line2d_41">
    <path d="M 70.530516 229.999696 
L 109.377486 223.212823 
L 148.224455 216.840351 
L 187.071425 204.788376 
L 225.918395 194.018076 
L 264.765365 184.360696 
L 303.612334 177.41399 
L 342.459304 175.048512 
L 381.306274 167.55832 
L 420.153243 160.908602 
L 459.000213 150.035295 
L 497.847183 146.945906 
" clip-path="url(#p9ba62f33f3)" style="fill: none; stroke: #34618d; stroke-width: 1.8; stroke-linecap: square"/>
    <defs>
     <path id="m33bfb6b912" d="M 0 2 
C 0.530406 2 1.03916 1.789267 1.414214 1.414214 
C 1.789267 1.03916 2 0.530406 2 0 
C 2 -0.530406 1.789267 -1.03916 1.414214 -1.414214 
C 1.03916 -1.789267 0.530406 -2 0 -2 
C -0.530406 -2 -1.03916 -1.789267 -1.414214 -1.414214 
C -1.789267 -1.03916 -2 -0.530406 -2 0 
C -2 0.530406 -1.789267 1.03916 -1.414214 1.414214 
C -1.03916 1.789267 -0.530406 2 0 2 
z
" style="stroke: #34618d"/>
    </defs>
    <g clip-path="url(#p9ba62f33f3)">
     <use xlink:href="#m33bfb6b912" x="70.530516" y="229.999696" style="fill: #34618d; stroke: #34618d"/>
     <use xlink:href="#m33bfb6b912" x="109.377486" y="223.212823" style="fill: #34618d; stroke: #34618d"/>
     <use xlink:href="#m33bfb6b912" x="148.224455" y="216.840351" style="fill: #34618d; stroke: #34618d"/>
     <use xlink:href="#m33bfb6b912" x="187.071425" y="204.788376" style="fill: #34618d; stroke: #34618d"/>
     <use xlink:href="#m33bfb6b912" x="225.918395" y="194.018076" style="fill: #34618d; stroke: #34618d"/>
     <use xlink:href="#m33bfb6b912" x="264.765365" y="184.360696" style="fill: #34618d; stroke: #34618d"/>
     <use xlink:href="#m33bfb6b912" x="303.612334" y="177.41399" style="fill: #34618d; stroke: #34618d"/>
     <use xlink:href="#m33bfb6b912" x="342.459304" y="175.048512" style="fill: #34618d; stroke: #34618d"/>
     <use xlink:href="#m33bfb6b912" x="381.306274" y="167.55832" style="fill: #34618d; stroke: #34618d"/>
     <use xlink:href="#m33bfb6b912" x="420.153243" y="160.908602" style="fill: #34618d; stroke: #34618d"/>
     <use xlink:href="#m33bfb6b912" x="459.000213" y="150.035295" style="fill: #34618d; stroke: #34618d"/>
     <use xlink:href="#m33bfb6b912" x="497.847183" y="146.945906" style="fill: #34618d; stroke: #34618d"/>
    </g>
   </g>
   <g id="line2d_42">
    <path d="M 70.530516 101.536241 
L 109.377486 89.297926 
L 148.224455 78.678962 
L 187.071425 62.591315 
L 225.918395 52.587114 
L 264.765365 33.818678 
L 303.612334 165.961387 
L 342.459304 158.556919 
L 381.306274 154.792385 
L 420.153243 144.997026 
L 459.000213 152.349552 
L 497.847183 153.937906 
" clip-path="url(#p9ba62f33f3)" style="fill: none; stroke: #24868e; stroke-width: 1.8; stroke-linecap: square"/>
    <defs>
     <path id="mf8649a44ab" d="M 0 2 
C 0.530406 2 1.03916 1.789267 1.414214 1.414214 
C 1.789267 1.03916 2 0.530406 2 0 
C 2 -0.530406 1.789267 -1.03916 1.414214 -1.414214 
C 1.03916 -1.789267 0.530406 -2 0 -2 
C -0.530406 -2 -1.03916 -1.789267 -1.414214 -1.414214 
C -1.789267 -1.03916 -2 -0.530406 -2 0 
C -2 0.530406 -1.789267 1.03916 -1.414214 1.414214 
C -1.03916 1.789267 -0.530406 2 0 2 
z
" style="stroke: #24868e"/>
    </defs>
    <g clip-path="url(#p9ba62f33f3)">
     <use xlink:href="#mf8649a44ab" x="70.530516" y="101.536241" style="fill: #24868e; stroke: #24868e"/>
     <use xlink:href="#mf8649a44ab" x="109.377486" y="89.297926" style="fill: #24868e; stroke: #24868e"/>
     <use xlink:href="#mf8649a44ab" x="148.224455" y="78.678962" style="fill: #24868e; stroke: #24868e"/>
     <use xlink:href="#mf8649a44ab" x="187.071425" y="62.591315" style="fill: #24868e; stroke: #24868e"/>
     <use xlink:href="#mf8649a44ab" x="225.918395" y="52.587114" style="fill: #24868e; stroke: #24868e"/>
     <use xlink:href="#mf8649a44ab" x="264.765365" y="33.818678" style="fill: #24868e; stroke: #24868e"/>
     <use xlink:href="#mf8649a44ab" x="303.612334" y="165.961387" style="fill: #24868e; stroke: #24868e"/>
     <use xlink:href="#mf8649a44ab" x="342.459304" y="158.556919" style="fill: #24868e; stroke: #24868e"/>
     <use xlink:href="#mf8649a44ab" x="381.306274" y="154.792385" style="fill: #24868e; stroke: #24868e"/>
     <use xlink:href="#mf8649a44ab" x="420.153243" y="144.997026" style="fill: #24868e; stroke: #24868e"/>
     <use xlink:href="#mf8649a44ab" x="459.000213" y="152.349552" style="fill: #24868e; stroke: #24868e"/>
     <use xlink:href="#mf8649a44ab" x="497.847183" y="153.937906" style="fill: #24868e; stroke: #24868e"/>
    </g>
   </g>
   <g id="line2d_43">
    <path d="M 70.530516 202.427693 
L 109.377486 197.995523 
L 148.224455 189.611334 
L 187.071425 185.377531 
L 225.918395 176.915819 
L 264.765365 186.9569 
L 303.612334 129.926721 
L 342.459304 125.903922 
L 381.306274 117.188015 
L 420.153243 116.374281 
L 459.000213 76.212979 
L 497.847183 81.460339 
" clip-path="url(#p9ba62f33f3)" style="fill: none; stroke: #25ac82; stroke-width: 1.8; stroke-linecap: square"/>
    <defs>
     <path id="m540c7d00b3" d="M 0 2 
C 0.530406 2 1.03916 1.789267 1.414214 1.414214 
C 1.789267 1.03916 2 0.530406 2 0 
C 2 -0.530406 1.789267 -1.03916 1.414214 -1.414214 
C 1.03916 -1.789267 0.530406 -2 0 -2 
C -0.530406 -2 -1.03916 -1.789267 -1.414214 -1.414214 
C -1.789267 -1.03916 -2 -0.530406 -2 0 
C -2 0.530406 -1.789267 1.03916 -1.414214 1.414214 
C -1.03916 1.789267 -0.530406 2 0 2 
z
" style="stroke: #25ac82"/>
    </defs>
    <g clip-path="url(#p9ba62f33f3)">
     <use xlink:href="#m540c7d00b3" x="70.530516" y="202.427693" style="fill: #25ac82; stroke: #25ac82"/>
     <use xlink:href="#m540c7d00b3" x="109.377486" y="197.995523" style="fill: #25ac82; stroke: #25ac82"/>
     <use xlink:href="#m540c7d00b3" x="148.224455" y="189.611334" style="fill: #25ac82; stroke: #25ac82"/>
     <use xlink:href="#m540c7d00b3" x="187.071425" y="185.377531" style="fill: #25ac82; stroke: #25ac82"/>
     <use xlink:href="#m540c7d00b3" x="225.918395" y="176.915819" style="fill: #25ac82; stroke: #25ac82"/>
     <use xlink:href="#m540c7d00b3" x="264.765365" y="186.9569" style="fill: #25ac82; stroke: #25ac82"/>
     <use xlink:href="#m540c7d00b3" x="303.612334" y="129.926721" style="fill: #25ac82; stroke: #25ac82"/>
     <use xlink:href="#m540c7d00b3" x="342.459304" y="125.903922" style="fill: #25ac82; stroke: #25ac82"/>
     <use xlink:href="#m540c7d00b3" x="381.306274" y="117.188015" style="fill: #25ac82; stroke: #25ac82"/>
     <use xlink:href="#m540c7d00b3" x="420.153243" y="116.374281" style="fill: #25ac82; stroke: #25ac82"/>
     <use xlink:href="#m540c7d00b3" x="459.000213" y="76.212979" style="fill: #25ac82; stroke: #25ac82"/>
     <use xlink:href="#m540c7d00b3" x="497.847183" y="81.460339" style="fill: #25ac82; stroke: #25ac82"/>
    </g>
   </g>
   <g id="line2d_44">
    <path d="M 70.530516 203.168101 
L 109.377486 197.020628 
L 148.224455 193.834777 
L 187.071425 180.266154 
L 225.918395 173.520848 
L 264.765365 174.555061 
L 303.612334 152.107804 
L 342.459304 154.372301 
L 381.306274 149.534998 
L 420.153243 146.969912 
L 459.000213 111.04417 
L 497.847183 131.094924 
" clip-path="url(#p9ba62f33f3)" style="fill: none; stroke: #67cc5c; stroke-width: 1.8; stroke-linecap: square"/>
    <defs>
     <path id="m5d766e78d7" d="M 0 2 
C 0.530406 2 1.03916 1.789267 1.414214 1.414214 
C 1.789267 1.03916 2 0.530406 2 0 
C 2 -0.530406 1.789267 -1.03916 1.414214 -1.414214 
C 1.03916 -1.789267 0.530406 -2 0 -2 
C -0.530406 -2 -1.03916 -1.789267 -1.414214 -1.414214 
C -1.789267 -1.03916 -2 -0.530406 -2 0 
C -2 0.530406 -1.789267 1.03916 -1.414214 1.414214 
C -1.03916 1.789267 -0.530406 2 0 2 
z
" style="stroke: #67cc5c"/>
    </defs>
    <g clip-path="url(#p9ba62f33f3)">
     <use xlink:href="#m5d766e78d7" x="70.530516" y="203.168101" style="fill: #67cc5c; stroke: #67cc5c"/>
     <use xlink:href="#m5d766e78d7" x="109.377486" y="197.020628" style="fill: #67cc5c; stroke: #67cc5c"/>
     <use xlink:href="#m5d766e78d7" x="148.224455" y="193.834777" style="fill: #67cc5c; stroke: #67cc5c"/>
     <use xlink:href="#m5d766e78d7" x="187.071425" y="180.266154" style="fill: #67cc5c; stroke: #67cc5c"/>
     <use xlink:href="#m5d766e78d7" x="225.918395" y="173.520848" style="fill: #67cc5c; stroke: #67cc5c"/>
     <use xlink:href="#m5d766e78d7" x="264.765365" y="174.555061" style="fill: #67cc5c; stroke: #67cc5c"/>
     <use xlink:href="#m5d766e78d7" x="303.612334" y="152.107804" style="fill: #67cc5c; stroke: #67cc5c"/>
     <use xlink:href="#m5d766e78d7" x="342.459304" y="154.372301" style="fill: #67cc5c; stroke: #67cc5c"/>
     <use xlink:href="#m5d766e78d7" x="381.306274" y="149.534998" style="fill: #67cc5c; stroke: #67cc5c"/>
     <use xlink:href="#m5d766e78d7" x="420.153243" y="146.969912" style="fill: #67cc5c; stroke: #67cc5c"/>
     <use xlink:href="#m5d766e78d7" x="459.000213" y="111.04417" style="fill: #67cc5c; stroke: #67cc5c"/>
     <use xlink:href="#m5d766e78d7" x="497.847183" y="131.094924" style="fill: #67cc5c; stroke: #67cc5c"/>
    </g>
   </g>
   <g id="line2d_45">
    <path d="M 70.530516 213.829282 
L 109.377486 209.645947 
L 148.224455 202.358589 
L 187.071425 194.343644 
L 225.918395 180.072571 
L 264.765365 181.839138 
L 303.612334 176.874456 
L 342.459304 172.765075 
L 381.306274 170.507031 
L 420.153243 176.649801 
L 459.000213 171.45697 
L 497.847183 179.611121 
" clip-path="url(#p9ba62f33f3)" style="fill: none; stroke: #cae11f; stroke-width: 1.8; stroke-linecap: square"/>
    <defs>
     <path id="m5bb8bb8074" d="M 0 2 
C 0.530406 2 1.03916 1.789267 1.414214 1.414214 
C 1.789267 1.03916 2 0.530406 2 0 
C 2 -0.530406 1.789267 -1.03916 1.414214 -1.414214 
C 1.03916 -1.789267 0.530406 -2 0 -2 
C -0.530406 -2 -1.03916 -1.789267 -1.414214 -1.414214 
C -1.789267 -1.03916 -2 -0.530406 -2 0 
C -2 0.530406 -1.789267 1.03916 -1.414214 1.414214 
C -1.03916 1.789267 -0.530406 2 0 2 
z
" style="stroke: #cae11f"/>
    </defs>
    <g clip-path="url(#p9ba62f33f3)">
     <use xlink:href="#m5bb8bb8074" x="70.530516" y="213.829282" style="fill: #cae11f; stroke: #cae11f"/>
     <use xlink:href="#m5bb8bb8074" x="109.377486" y="209.645947" style="fill: #cae11f; stroke: #cae11f"/>
     <use xlink:href="#m5bb8bb8074" x="148.224455" y="202.358589" style="fill: #cae11f; stroke: #cae11f"/>
     <use xlink:href="#m5bb8bb8074" x="187.071425" y="194.343644" style="fill: #cae11f; stroke: #cae11f"/>
     <use xlink:href="#m5bb8bb8074" x="225.918395" y="180.072571" style="fill: #cae11f; stroke: #cae11f"/>
     <use xlink:href="#m5bb8bb8074" x="264.765365" y="181.839138" style="fill: #cae11f; stroke: #cae11f"/>
     <use xlink:href="#m5bb8bb8074" x="303.612334" y="176.874456" style="fill: #cae11f; stroke: #cae11f"/>
     <use xlink:href="#m5bb8bb8074" x="342.459304" y="172.765075" style="fill: #cae11f; stroke: #cae11f"/>
     <use xlink:href="#m5bb8bb8074" x="381.306274" y="170.507031" style="fill: #cae11f; stroke: #cae11f"/>
     <use xlink:href="#m5bb8bb8074" x="420.153243" y="176.649801" style="fill: #cae11f; stroke: #cae11f"/>
     <use xlink:href="#m5bb8bb8074" x="459.000213" y="171.45697" style="fill: #cae11f; stroke: #cae11f"/>
     <use xlink:href="#m5bb8bb8074" x="497.847183" y="179.611121" style="fill: #cae11f; stroke: #cae11f"/>
    </g>
   </g>
   <g id="line2d_46">
    <path d="M 51.107031 209.778953 
L 517.270668 209.778953 
" clip-path="url(#p9ba62f33f3)" style="fill: none; stroke-dasharray: 1,1.65; stroke-dashoffset: 0; stroke: #222222"/>
   </g>
   <g id="patch_4">
    <path d="M 51.107031 291.250909 
L 51.107031 21.56 
" style="fill: none; stroke: #000000; stroke-width: 0.8; stroke-linejoin: miter; stroke-linecap: square"/>
   </g>
   <g id="patch_5">
    <path d="M 51.107031 291.250909 
L 517.270668 291.250909 
" style="fill: none; stroke: #000000; stroke-width: 0.8; stroke-linejoin: miter; stroke-linecap: square"/>
   </g>
   <g id="text_22">
    <!-- Endogeneity of $\Pi$: $\Pi$ drifts upward with $\omega$ (years $\geq 1$) -->
    <g transform="translate(137.943849 15.56) scale(0.11 -0.11)">
     <defs>
      <path id="DejaVuSans-5c" d="M 2059 -325 
Q 1816 -950 1584 -1140 
Q 1353 -1331 966 -1331 
L 506 -1331 
L 506 -850 
L 844 -850 
Q 1081 -850 1212 -737 
Q 1344 -625 1503 -206 
L 1606 56 
L 191 3500 
L 800 3500 
L 1894 763 
L 2988 3500 
L 3597 3500 
L 2059 -325 
z
" transform="scale(0.015625)"/>
      <path id="DejaVuSans-49" d="M 2375 4863 
L 2375 4384 
L 1825 4384 
Q 1516 4384 1395 4259 
Q 1275 4134 1275 3809 
L 1275 3500 
L 2222 3500 
L 2222 3053 
L 1275 3053 
L 1275 0 
L 697 0 
L 697 3053 
L 147 3053 
L 147 3500 
L 697 3500 
L 697 3744 
Q 697 4328 969 4595 
Q 1241 4863 1831 4863 
L 2375 4863 
z
" transform="scale(0.015625)"/>
      <path id="DejaVuSans-58" d="M 544 1381 
L 544 3500 
L 1119 3500 
L 1119 1403 
Q 1119 906 1312 657 
Q 1506 409 1894 409 
Q 2359 409 2629 706 
Q 2900 1003 2900 1516 
L 2900 3500 
L 3475 3500 
L 3475 0 
L 2900 0 
L 2900 538 
Q 2691 219 2414 64 
Q 2138 -91 1772 -91 
Q 1169 -91 856 284 
Q 544 659 544 1381 
z
M 1991 3584 
L 1991 3584 
z
" transform="scale(0.015625)"/>
      <path id="DejaVuSans-53" d="M 1159 525 
L 1159 -1331 
L 581 -1331 
L 581 3500 
L 1159 3500 
L 1159 2969 
Q 1341 3281 1617 3432 
Q 1894 3584 2278 3584 
Q 2916 3584 3314 3078 
Q 3713 2572 3713 1747 
Q 3713 922 3314 415 
Q 2916 -91 2278 -91 
Q 1894 -91 1617 61 
Q 1341 213 1159 525 
z
M 3116 1747 
Q 3116 2381 2855 2742 
Q 2594 3103 2138 3103 
Q 1681 3103 1420 2742 
Q 1159 2381 1159 1747 
Q 1159 1113 1420 752 
Q 1681 391 2138 391 
Q 2594 391 2855 752 
Q 3116 1113 3116 1747 
z
" transform="scale(0.015625)"/>
      <path id="DejaVuSans-cef" d="M 678 3175 
L 678 3725 
L 4684 2578 
L 4684 2047 
L 678 897 
L 678 1453 
L 3681 2309 
L 678 3175 
z
M 4684 531 
L 4684 0 
L 678 0 
L 678 531 
L 4684 531 
z
" transform="scale(0.015625)"/>
     </defs>
     <use xlink:href="#DejaVuSans-28" transform="translate(0 0.015625)"/>
     <use xlink:href="#DejaVuSans-51" transform="translate(63.183594 0.015625)"/>
     <use xlink:href="#DejaVuSans-47" transform="translate(126.5625 0.015625)"/>
     <use xlink:href="#DejaVuSans-52" transform="translate(190.039062 0.015625)"/>
     <use xlink:href="#DejaVuSans-4a" transform="translate(251.220703 0.015625)"/>
     <use xlink:href="#DejaVuSans-48" transform="translate(314.697266 0.015625)"/>
     <use xlink:href="#DejaVuSans-51" transform="translate(376.220703 0.015625)"/>
     <use xlink:href="#DejaVuSans-48" transform="translate(439.599609 0.015625)"/>
     <use xlink:href="#DejaVuSans-4c" transform="translate(501.123047 0.015625)"/>
     <use xlink:href="#DejaVuSans-57" transform="translate(528.90625 0.015625)"/>
     <use xlink:href="#DejaVuSans-5c" transform="translate(568.115234 0.015625)"/>
     <use xlink:href="#DejaVuSans-3" transform="translate(627.294922 0.015625)"/>
     <use xlink:href="#DejaVuSans-52" transform="translate(659.082031 0.015625)"/>
     <use xlink:href="#DejaVuSans-49" transform="translate(720.263672 0.015625)"/>
     <use xlink:href="#DejaVuSans-3" transform="translate(755.46875 0.015625)"/>
     <use xlink:href="#DejaVuSans-335" transform="translate(787.255859 0.015625)"/>
     <use xlink:href="#DejaVuSans-1d" transform="translate(862.451172 0.015625)"/>
     <use xlink:href="#DejaVuSans-3" transform="translate(896.142578 0.015625)"/>
     <use xlink:href="#DejaVuSans-335" transform="translate(927.929688 0.015625)"/>
     <use xlink:href="#DejaVuSans-3" transform="translate(1003.125 0.015625)"/>
     <use xlink:href="#DejaVuSans-47" transform="translate(1034.912109 0.015625)"/>
     <use xlink:href="#DejaVuSans-55" transform="translate(1098.388672 0.015625)"/>
     <use xlink:href="#DejaVuSans-4c" transform="translate(1139.501953 0.015625)"/>
     <use xlink:href="#DejaVuSans-49" transform="translate(1167.285156 0.015625)"/>
     <use xlink:href="#DejaVuSans-57" transform="translate(1200.490234 0.015625)"/>
     <use xlink:href="#DejaVuSans-56" transform="translate(1239.699219 0.015625)"/>
     <use xlink:href="#DejaVuSans-3" transform="translate(1291.798828 0.015625)"/>
     <use xlink:href="#DejaVuSans-58" transform="translate(1323.585938 0.015625)"/>
     <use xlink:href="#DejaVuSans-53" transform="translate(1386.964844 0.015625)"/>
     <use xlink:href="#DejaVuSans-5a" transform="translate(1450.441406 0.015625)"/>
     <use xlink:href="#DejaVuSans-44" transform="translate(1532.228516 0.015625)"/>
     <use xlink:href="#DejaVuSans-55" transform="translate(1593.507812 0.015625)"/>
     <use xlink:href="#DejaVuSans-47" transform="translate(1632.621094 0.015625)"/>
     <use xlink:href="#DejaVuSans-3" transform="translate(1696.097656 0.015625)"/>
     <use xlink:href="#DejaVuSans-5a" transform="translate(1727.884766 0.015625)"/>
     <use xlink:href="#DejaVuSans-4c" transform="translate(1809.671875 0.015625)"/>
     <use xlink:href="#DejaVuSans-57" transform="translate(1837.455078 0.015625)"/>
     <use xlink:href="#DejaVuSans-4b" transform="translate(1876.664062 0.015625)"/>
     <use xlink:href="#DejaVuSans-3" transform="translate(1940.042969 0.015625)"/>
     <use xlink:href="#DejaVuSans-Oblique-35d" transform="translate(1971.830078 0.015625)"/>
     <use xlink:href="#DejaVuSans-3" transform="translate(2055.570312 0.015625)"/>
     <use xlink:href="#DejaVuSans-b" transform="translate(2087.357422 0.015625)"/>
     <use xlink:href="#DejaVuSans-5c" transform="translate(2126.371094 0.015625)"/>
     <use xlink:href="#DejaVuSans-48" transform="translate(2185.550781 0.015625)"/>
     <use xlink:href="#DejaVuSans-44" transform="translate(2247.074219 0.015625)"/>
     <use xlink:href="#DejaVuSans-55" transform="translate(2308.353516 0.015625)"/>
     <use xlink:href="#DejaVuSans-56" transform="translate(2349.466797 0.015625)"/>
     <use xlink:href="#DejaVuSans-3" transform="translate(2401.566406 0.015625)"/>
     <use xlink:href="#DejaVuSans-cef" transform="translate(2452.835938 0.015625)"/>
     <use xlink:href="#DejaVuSans-14" transform="translate(2556.107422 0.015625)"/>
     <use xlink:href="#DejaVuSans-c" transform="translate(2619.730469 0.015625)"/>
    </g>
   </g>
   <g id="legend_1">
    <g id="patch_6">
     <path d="M 56.357031 86.313125 
L 164.134375 86.313125 
Q 165.634375 86.313125 165.634375 84.813125 
L 165.634375 26.81 
Q 165.634375 25.31 164.134375 25.31 
L 56.357031 25.31 
Q 54.857031 25.31 54.857031 26.81 
L 54.857031 84.813125 
Q 54.857031 86.313125 56.357031 86.313125 
z
" style="fill: #ffffff; opacity: 0.9; stroke: #cccccc; stroke-linejoin: miter"/>
    </g>
    <g id="text_23">
     <!-- decision year -->
     <g transform="translate(76.890234 35.908437) scale(0.1 -0.1)">
      <use xlink:href="#DejaVuSans-47"/>
      <use xlink:href="#DejaVuSans-48" transform="translate(63.484375 0)"/>
      <use xlink:href="#DejaVuSans-46" transform="translate(125.015625 0)"/>
      <use xlink:href="#DejaVuSans-4c" transform="translate(180 0)"/>
      <use xlink:href="#DejaVuSans-56" transform="translate(207.78125 0)"/>
      <use xlink:href="#DejaVuSans-4c" transform="translate(259.875 0)"/>
      <use xlink:href="#DejaVuSans-52" transform="translate(287.65625 0)"/>
      <use xlink:href="#DejaVuSans-51" transform="translate(348.84375 0)"/>
      <use xlink:href="#DejaVuSans-3" transform="translate(412.21875 0)"/>
      <use xlink:href="#DejaVuSans-5c" transform="translate(444 0)"/>
      <use xlink:href="#DejaVuSans-48" transform="translate(503.1875 0)"/>
      <use xlink:href="#DejaVuSans-44" transform="translate(564.71875 0)"/>
      <use xlink:href="#DejaVuSans-55" transform="translate(626 0)"/>
     </g>
    </g>
    <g id="line2d_47">
     <path d="M 57.857031 45.134609 
L 65.357031 45.134609 
L 72.857031 45.134609 
" style="fill: none; stroke: #440154; stroke-width: 1.8; stroke-linecap: square"/>
     <g>
      <use xlink:href="#m2d7b9d22a1" x="65.357031" y="45.134609" style="fill: #440154; stroke: #440154"/>
     </g>
    </g>
    <g id="text_24">
     <!-- year 0 -->
     <g transform="translate(78.857031 47.759609) scale(0.075 -0.075)">
      <use xlink:href="#DejaVuSans-5c"/>
      <use xlink:href="#DejaVuSans-48" transform="translate(59.1875 0)"/>
      <use xlink:href="#DejaVuSans-44" transform="translate(120.71875 0)"/>
      <use xlink:href="#DejaVuSans-55" transform="translate(182 0)"/>
      <use xlink:href="#DejaVuSans-3" transform="translate(223.109375 0)"/>
      <use xlink:href="#DejaVuSans-13" transform="translate(254.890625 0)"/>
     </g>
    </g>
    <g id="line2d_48">
     <path d="M 57.857031 56.385195 
L 65.357031 56.385195 
L 72.857031 56.385195 
" style="fill: none; stroke: #453581; stroke-width: 1.8; stroke-linecap: square"/>
     <g>
      <use xlink:href="#mb31e0dd070" x="65.357031" y="56.385195" style="fill: #453581; stroke: #453581"/>
     </g>
    </g>
    <g id="text_25">
     <!-- year 1 -->
     <g transform="translate(78.857031 59.010195) scale(0.075 -0.075)">
      <use xlink:href="#DejaVuSans-5c"/>
      <use xlink:href="#DejaVuSans-48" transform="translate(59.1875 0)"/>
      <use xlink:href="#DejaVuSans-44" transform="translate(120.71875 0)"/>
      <use xlink:href="#DejaVuSans-55" transform="translate(182 0)"/>
      <use xlink:href="#DejaVuSans-3" transform="translate(223.109375 0)"/>
      <use xlink:href="#DejaVuSans-14" transform="translate(254.890625 0)"/>
     </g>
    </g>
    <g id="line2d_49">
     <path d="M 57.857031 67.635781 
L 65.357031 67.635781 
L 72.857031 67.635781 
" style="fill: none; stroke: #34618d; stroke-width: 1.8; stroke-linecap: square"/>
     <g>
      <use xlink:href="#m33bfb6b912" x="65.357031" y="67.635781" style="fill: #34618d; stroke: #34618d"/>
     </g>
    </g>
    <g id="text_26">
     <!-- year 2 -->
     <g transform="translate(78.857031 70.260781) scale(0.075 -0.075)">
      <use xlink:href="#DejaVuSans-5c"/>
      <use xlink:href="#DejaVuSans-48" transform="translate(59.1875 0)"/>
      <use xlink:href="#DejaVuSans-44" transform="translate(120.71875 0)"/>
      <use xlink:href="#DejaVuSans-55" transform="translate(182 0)"/>
      <use xlink:href="#DejaVuSans-3" transform="translate(223.109375 0)"/>
      <use xlink:href="#DejaVuSans-15" transform="translate(254.890625 0)"/>
     </g>
    </g>
    <g id="line2d_50">
     <path d="M 57.857031 78.886367 
L 65.357031 78.886367 
L 72.857031 78.886367 
" style="fill: none; stroke: #24868e; stroke-width: 1.8; stroke-linecap: square"/>
     <g>
      <use xlink:href="#mf8649a44ab" x="65.357031" y="78.886367" style="fill: #24868e; stroke: #24868e"/>
     </g>
    </g>
    <g id="text_27">
     <!-- year 3 -->
     <g transform="translate(78.857031 81.511367) scale(0.075 -0.075)">
      <use xlink:href="#DejaVuSans-5c"/>
      <use xlink:href="#DejaVuSans-48" transform="translate(59.1875 0)"/>
      <use xlink:href="#DejaVuSans-44" transform="translate(120.71875 0)"/>
      <use xlink:href="#DejaVuSans-55" transform="translate(182 0)"/>
      <use xlink:href="#DejaVuSans-3" transform="translate(223.109375 0)"/>
      <use xlink:href="#DejaVuSans-16" transform="translate(254.890625 0)"/>
     </g>
    </g>
    <g id="line2d_51">
     <path d="M 117.745703 45.134609 
L 125.245703 45.134609 
L 132.745703 45.134609 
" style="fill: none; stroke: #25ac82; stroke-width: 1.8; stroke-linecap: square"/>
     <g>
      <use xlink:href="#m540c7d00b3" x="125.245703" y="45.134609" style="fill: #25ac82; stroke: #25ac82"/>
     </g>
    </g>
    <g id="text_28">
     <!-- year 4 -->
     <g transform="translate(138.745703 47.759609) scale(0.075 -0.075)">
      <use xlink:href="#DejaVuSans-5c"/>
      <use xlink:href="#DejaVuSans-48" transform="translate(59.1875 0)"/>
      <use xlink:href="#DejaVuSans-44" transform="translate(120.71875 0)"/>
      <use xlink:href="#DejaVuSans-55" transform="translate(182 0)"/>
      <use xlink:href="#DejaVuSans-3" transform="translate(223.109375 0)"/>
      <use xlink:href="#DejaVuSans-17" transform="translate(254.890625 0)"/>
     </g>
    </g>
    <g id="line2d_52">
     <path d="M 117.745703 56.385195 
L 125.245703 56.385195 
L 132.745703 56.385195 
" style="fill: none; stroke: #67cc5c; stroke-width: 1.8; stroke-linecap: square"/>
     <g>
      <use xlink:href="#m5d766e78d7" x="125.245703" y="56.385195" style="fill: #67cc5c; stroke: #67cc5c"/>
     </g>
    </g>
    <g id="text_29">
     <!-- year 5 -->
     <g transform="translate(138.745703 59.010195) scale(0.075 -0.075)">
      <use xlink:href="#DejaVuSans-5c"/>
      <use xlink:href="#DejaVuSans-48" transform="translate(59.1875 0)"/>
      <use xlink:href="#DejaVuSans-44" transform="translate(120.71875 0)"/>
      <use xlink:href="#DejaVuSans-55" transform="translate(182 0)"/>
      <use xlink:href="#DejaVuSans-3" transform="translate(223.109375 0)"/>
      <use xlink:href="#DejaVuSans-18" transform="translate(254.890625 0)"/>
     </g>
    </g>
    <g id="line2d_53">
     <path d="M 117.745703 67.635781 
L 125.245703 67.635781 
L 132.745703 67.635781 
" style="fill: none; stroke: #cae11f; stroke-width: 1.8; stroke-linecap: square"/>
     <g>
      <use xlink:href="#m5bb8bb8074" x="125.245703" y="67.635781" style="fill: #cae11f; stroke: #cae11f"/>
     </g>
    </g>
    <g id="text_30">
     <!-- year 6 -->
     <g transform="translate(138.745703 70.260781) scale(0.075 -0.075)">
      <use xlink:href="#DejaVuSans-5c"/>
      <use xlink:href="#DejaVuSans-48" transform="translate(59.1875 0)"/>
      <use xlink:href="#DejaVuSans-44" transform="translate(120.71875 0)"/>
      <use xlink:href="#DejaVuSans-55" transform="translate(182 0)"/>
      <use xlink:href="#DejaVuSans-3" transform="translate(223.109375 0)"/>
      <use xlink:href="#DejaVuSans-19" transform="translate(254.890625 0)"/>
     </g>
    </g>
   </g>
  </g>
 </g>
 <defs>
  <clipPath id="p9ba62f33f3">
   <rect x="51.107031" y="21.56" width="466.163636" height="269.690909"/>
  </clipPath>
 </defs>
</svg>
