<?xml version="1.0" encoding="utf-8" standalone="no"?>
<!DOCTYPE svg PUBLIC "-//W3C//DTD SVG 1.1//EN"
  "http://www.w3.org/Graphics/SVG/1.1/DTD/svg11.dtd">
<svg xmlns:xlink="http://www.w3.org/1999/xlink" width="918.004654pt" height="364.916023pt" viewBox="0 0 918.004654 364.916023" xmlns="http://www.w3.org/2000/svg" version="1.1">
 <metadata>
  <rdf:RDF xmlns:dc="http://purl.org/dc/elements/1.1/" xmlns:cc="http://creativecommons.org/ns#" xmlns:rdf="http://www.w3.org/1999/02/22-rdf-syntax-ns#">
   <cc:Work>
    <dc:type rdf:resource="http://purl.org/dc/dcmitype/StillImage"/>
    <dc:date>2026-06-20T21:41:54.853774</dc:date>
    <dc:format>image/svg+xml</dc:format>
    <dc:creator>
     <cc:Agent>
      <dc:title>Matplotlib v3.10.8, https://matplotlib.org/</dc:title>
     </cc:Agent>
    </dc:creator>
   </cc:Work>
  </rdf:RDF>
 </metadata>
 <defs>
  <style type="text/css">*{stroke-linejoin: round; stroke-linecap: butt}</style>
 </defs>
 <g id="figure_1">
  <g id="patch_1">
   <path d="M 0 364.916023 
L 918.004654 364.916023 
L 918.004654 -0 
L 0 -0 
z
" style="fill: #ffffff"/>
  </g>
  <g id="axes_1">
   <g id="patch_2">
    <path d="M 61.321563 307.387273 
L 426.214074 307.387273 
L 426.214074 76.625455 
L 61.321563 76.625455 
z
" style="fill: #ffffff"/>
   </g>
   <g id="patch_3">
    <path d="M 61.321563 307.387273 
L 280.25707 307.387273 
L 280.25707 76.625455 
L 61.321563 76.625455 
z
" clip-path="url(#p1417312b2e)" style="fill: #e8f1e8; stroke: #e8f1e8; stroke-linejoin: miter"/>
   </g>
   <g id="patch_4">
    <path d="M 334.990946 307.387273 
L 426.214074 307.387273 
L 426.214074 76.625455 
L 334.990946 76.625455 
z
" clip-path="url(#p1417312b2e)" style="fill: #fbeaea; stroke: #fbeaea; stroke-linejoin: miter"/>
   </g>
   <g id="matplotlib.axis_1">
    <g id="xtick_1">
     <g id="line2d_1">
      <path d="M 70.443875 307.387273 
L 70.443875 76.625455 
" clip-path="url(#p1417312b2e)" style="fill: none; stroke: #b0b0b0; stroke-opacity: 0.25; stroke-width: 0.6; stroke-linecap: square"/>
     </g>
     <g id="line2d_2">
      <defs>
       <path id="m9dd37c9d51" d="M 0 0 
L 0 3.5 
" style="stroke: #000000; stroke-width: 0.8"/>
      </defs>
      <g>
       <use xlink:href="#m9dd37c9d51" x="70.443875" y="307.387273" style="stroke: #000000; stroke-width: 0.8"/>
      </g>
     </g>
     <g id="text_1">
      <!-- 0 -->
      <g transform="translate(73.755125 322.022273) rotate(-90) scale(0.12 -0.12)">
       <defs>
        <path id="DejaVuSans-30" d="M 2034 4250 
Q 1547 4250 1301 3770 
Q 1056 3291 1056 2328 
Q 1056 1369 1301 889 
Q 1547 409 2034 409 
Q 2525 409 2770 889 
Q 3016 1369 3016 2328 
Q 3016 3291 2770 3770 
Q 2525 4250 2034 4250 
z
M 2034 4750 
Q 2819 4750 3233 4129 
Q 3647 3509 3647 2328 
Q 3647 1150 3233 529 
Q 2819 -91 2034 -91 
Q 1250 -91 836 529 
Q 422 1150 422 2328 
Q 422 3509 836 4129 
Q 1250 4750 2034 4750 
z
" transform="scale(0.015625)"/>
       </defs>
       <use xlink:href="#DejaVuSans-30"/>
      </g>
     </g>
    </g>
    <g id="xtick_2">
     <g id="line2d_3">
      <path d="M 88.688501 307.387273 
L 88.688501 76.625455 
" clip-path="url(#p1417312b2e)" style="fill: none; stroke: #b0b0b0; stroke-opacity: 0.25; stroke-width: 0.6; stroke-linecap: square"/>
     </g>
     <g id="line2d_4">
      <g>
       <use xlink:href="#m9dd37c9d51" x="88.688501" y="307.387273" style="stroke: #000000; stroke-width: 0.8"/>
      </g>
     </g>
     <g id="text_2">
      <!-- 0.05 -->
      <g transform="translate(91.999751 341.106023) rotate(-90) scale(0.12 -0.12)">
       <defs>
        <path id="DejaVuSans-2e" d="M 684 794 
L 1344 794 
L 1344 0 
L 684 0 
L 684 794 
z
" transform="scale(0.015625)"/>
        <path id="DejaVuSans-35" d="M 691 4666 
L 3169 4666 
L 3169 4134 
L 1269 4134 
L 1269 2991 
Q 1406 3038 1543 3061 
Q 1681 3084 1819 3084 
Q 2600 3084 3056 2656 
Q 3513 2228 3513 1497 
Q 3513 744 3044 326 
Q 2575 -91 1722 -91 
Q 1428 -91 1123 -41 
Q 819 9 494 109 
L 494 744 
Q 775 591 1075 516 
Q 1375 441 1709 441 
Q 2250 441 2565 725 
Q 2881 1009 2881 1497 
Q 2881 1984 2565 2268 
Q 2250 2553 1709 2553 
Q 1456 2553 1204 2497 
Q 953 2441 691 2322 
L 691 4666 
z
" transform="scale(0.015625)"/>
       </defs>
       <use xlink:href="#DejaVuSans-30"/>
       <use xlink:href="#DejaVuSans-2e" transform="translate(63.623047 0)"/>
       <use xlink:href="#DejaVuSans-30" transform="translate(95.410156 0)"/>
       <use xlink:href="#DejaVuSans-35" transform="translate(159.033203 0)"/>
      </g>
     </g>
    </g>
    <g id="xtick_3">
     <g id="line2d_5">
      <path d="M 106.933126 307.387273 
L 106.933126 76.625455 
" clip-path="url(#p1417312b2e)" style="fill: none; stroke: #b0b0b0; stroke-opacity: 0.25; stroke-width: 0.6; stroke-linecap: square"/>
     </g>
     <g id="line2d_6">
      <g>
       <use xlink:href="#m9dd37c9d51" x="106.933126" y="307.387273" style="stroke: #000000; stroke-width: 0.8"/>
      </g>
     </g>
     <g id="text_3">
      <!-- 0.1 -->
      <g transform="translate(110.244376 333.471023) rotate(-90) scale(0.12 -0.12)">
       <defs>
        <path id="DejaVuSans-31" d="M 794 531 
L 1825 531 
L 1825 4091 
L 703 3866 
L 703 4441 
L 1819 4666 
L 2450 4666 
L 2450 531 
L 3481 531 
L 3481 0 
L 794 0 
L 794 531 
z
" transform="scale(0.015625)"/>
       </defs>
       <use xlink:href="#DejaVuSans-30"/>
       <use xlink:href="#DejaVuSans-2e" transform="translate(63.623047 0)"/>
       <use xlink:href="#DejaVuSans-31" transform="translate(95.410156 0)"/>
      </g>
     </g>
    </g>
    <g id="xtick_4">
     <g id="line2d_7">
      <path d="M 125.177752 307.387273 
L 125.177752 76.625455 
" clip-path="url(#p1417312b2e)" style="fill: none; stroke: #b0b0b0; stroke-opacity: 0.25; stroke-width: 0.6; stroke-linecap: square"/>
     </g>
     <g id="line2d_8">
      <g>
       <use xlink:href="#m9dd37c9d51" x="125.177752" y="307.387273" style="stroke: #000000; stroke-width: 0.8"/>
      </g>
     </g>
     <g id="text_4">
      <!-- 0.2 -->
      <g transform="translate(128.489002 333.471023) rotate(-90) scale(0.12 -0.12)">
       <defs>
        <path id="DejaVuSans-32" d="M 1228 531 
L 3431 531 
L 3431 0 
L 469 0 
L 469 531 
Q 828 903 1448 1529 
Q 2069 2156 2228 2338 
Q 2531 2678 2651 2914 
Q 2772 3150 2772 3378 
Q 2772 3750 2511 3984 
Q 2250 4219 1831 4219 
Q 1534 4219 1204 4116 
Q 875 4013 500 3803 
L 500 4441 
Q 881 4594 1212 4672 
Q 1544 4750 1819 4750 
Q 2544 4750 2975 4387 
Q 3406 4025 3406 3419 
Q 3406 3131 3298 2873 
Q 3191 2616 2906 2266 
Q 2828 2175 2409 1742 
Q 1991 1309 1228 531 
z
" transform="scale(0.015625)"/>
       </defs>
       <use xlink:href="#DejaVuSans-30"/>
       <use xlink:href="#DejaVuSans-2e" transform="translate(63.623047 0)"/>
       <use xlink:href="#DejaVuSans-32" transform="translate(95.410156 0)"/>
      </g>
     </g>
    </g>
    <g id="xtick_5">
     <g id="line2d_9">
      <path d="M 143.422378 307.387273 
L 143.422378 76.625455 
" clip-path="url(#p1417312b2e)" style="fill: none; stroke: #b0b0b0; stroke-opacity: 0.25; stroke-width: 0.6; stroke-linecap: square"/>
     </g>
     <g id="line2d_10">
      <g>
       <use xlink:href="#m9dd37c9d51" x="143.422378" y="307.387273" style="stroke: #000000; stroke-width: 0.8"/>
      </g>
     </g>
     <g id="text_5">
      <!-- 0.3 -->
      <g transform="translate(146.733628 333.471023) rotate(-90) scale(0.12 -0.12)">
       <defs>
        <path id="DejaVuSans-33" d="M 2597 2516 
Q 3050 2419 3304 2112 
Q 3559 1806 3559 1356 
Q 3559 666 3084 287 
Q 2609 -91 1734 -91 
Q 1441 -91 1130 -33 
Q 819 25 488 141 
L 488 750 
Q 750 597 1062 519 
Q 1375 441 1716 441 
Q 2309 441 2620 675 
Q 2931 909 2931 1356 
Q 2931 1769 2642 2001 
Q 2353 2234 1838 2234 
L 1294 2234 
L 1294 2753 
L 1863 2753 
Q 2328 2753 2575 2939 
Q 2822 3125 2822 3475 
Q 2822 3834 2567 4026 
Q 2313 4219 1838 4219 
Q 1578 4219 1281 4162 
Q 984 4106 628 3988 
L 628 4550 
Q 988 4650 1302 4700 
Q 1616 4750 1894 4750 
Q 2613 4750 3031 4423 
Q 3450 4097 3450 3541 
Q 3450 3153 3228 2886 
Q 3006 2619 2597 2516 
z
" transform="scale(0.015625)"/>
       </defs>
       <use xlink:href="#DejaVuSans-30"/>
       <use xlink:href="#DejaVuSans-2e" transform="translate(63.623047 0)"/>
       <use xlink:href="#DejaVuSans-33" transform="translate(95.410156 0)"/>
      </g>
     </g>
    </g>
    <g id="xtick_6">
     <g id="line2d_11">
      <path d="M 161.667003 307.387273 
L 161.667003 76.625455 
" clip-path="url(#p1417312b2e)" style="fill: none; stroke: #b0b0b0; stroke-opacity: 0.25; stroke-width: 0.6; stroke-linecap: square"/>
     </g>
     <g id="line2d_12">
      <g>
       <use xlink:href="#m9dd37c9d51" x="161.667003" y="307.387273" style="stroke: #000000; stroke-width: 0.8"/>
      </g>
     </g>
     <g id="text_6">
      <!-- 0.4 -->
      <g transform="translate(164.978253 333.471023) rotate(-90) scale(0.12 -0.12)">
       <defs>
        <path id="DejaVuSans-34" d="M 2419 4116 
L 825 1625 
L 2419 1625 
L 2419 4116 
z
M 2253 4666 
L 3047 4666 
L 3047 1625 
L 3713 1625 
L 3713 1100 
L 3047 1100 
L 3047 0 
L 2419 0 
L 2419 1100 
L 313 1100 
L 313 1709 
L 2253 4666 
z
" transform="scale(0.015625)"/>
       </defs>
       <use xlink:href="#DejaVuSans-30"/>
       <use xlink:href="#DejaVuSans-2e" transform="translate(63.623047 0)"/>
       <use xlink:href="#DejaVuSans-34" transform="translate(95.410156 0)"/>
      </g>
     </g>
    </g>
    <g id="xtick_7">
     <g id="line2d_13">
      <path d="M 179.911629 307.387273 
L 179.911629 76.625455 
" clip-path="url(#p1417312b2e)" style="fill: none; stroke: #b0b0b0; stroke-opacity: 0.25; stroke-width: 0.6; stroke-linecap: square"/>
     </g>
     <g id="line2d_14">
      <g>
       <use xlink:href="#m9dd37c9d51" x="179.911629" y="307.387273" style="stroke: #000000; stroke-width: 0.8"/>
      </g>
     </g>
     <g id="text_7">
      <!-- 0.5 -->
      <g transform="translate(183.222879 333.471023) rotate(-90) scale(0.12 -0.12)">
       <use xlink:href="#DejaVuSans-30"/>
       <use xlink:href="#DejaVuSans-2e" transform="translate(63.623047 0)"/>
       <use xlink:href="#DejaVuSans-35" transform="translate(95.410156 0)"/>
      </g>
     </g>
    </g>
    <g id="xtick_8">
     <g id="line2d_15">
      <path d="M 198.156254 307.387273 
L 198.156254 76.625455 
" clip-path="url(#p1417312b2e)" style="fill: none; stroke: #b0b0b0; stroke-opacity: 0.25; stroke-width: 0.6; stroke-linecap: square"/>
     </g>
     <g id="line2d_16">
      <g>
       <use xlink:href="#m9dd37c9d51" x="198.156254" y="307.387273" style="stroke: #000000; stroke-width: 0.8"/>
      </g>
     </g>
     <g id="text_8">
      <!-- 0.6 -->
      <g transform="translate(201.467504 333.471023) rotate(-90) scale(0.12 -0.12)">
       <defs>
        <path id="DejaVuSans-36" d="M 2113 2584 
Q 1688 2584 1439 2293 
Q 1191 2003 1191 1497 
Q 1191 994 1439 701 
Q 1688 409 2113 409 
Q 2538 409 2786 701 
Q 3034 994 3034 1497 
Q 3034 2003 2786 2293 
Q 2538 2584 2113 2584 
z
M 3366 4563 
L 3366 3988 
Q 3128 4100 2886 4159 
Q 2644 4219 2406 4219 
Q 1781 4219 1451 3797 
Q 1122 3375 1075 2522 
Q 1259 2794 1537 2939 
Q 1816 3084 2150 3084 
Q 2853 3084 3261 2657 
Q 3669 2231 3669 1497 
Q 3669 778 3244 343 
Q 2819 -91 2113 -91 
Q 1303 -91 875 529 
Q 447 1150 447 2328 
Q 447 3434 972 4092 
Q 1497 4750 2381 4750 
Q 2619 4750 2861 4703 
Q 3103 4656 3366 4563 
z
" transform="scale(0.015625)"/>
       </defs>
       <use xlink:href="#DejaVuSans-30"/>
       <use xlink:href="#DejaVuSans-2e" transform="translate(63.623047 0)"/>
       <use xlink:href="#DejaVuSans-36" transform="translate(95.410156 0)"/>
      </g>
     </g>
    </g>
    <g id="xtick_9">
     <g id="line2d_17">
      <path d="M 216.40088 307.387273 
L 216.40088 76.625455 
" clip-path="url(#p1417312b2e)" style="fill: none; stroke: #b0b0b0; stroke-opacity: 0.25; stroke-width: 0.6; stroke-linecap: square"/>
     </g>
     <g id="line2d_18">
      <g>
       <use xlink:href="#m9dd37c9d51" x="216.40088" y="307.387273" style="stroke: #000000; stroke-width: 0.8"/>
      </g>
     </g>
     <g id="text_9">
      <!-- 0.7 -->
      <g transform="translate(219.71213 333.471023) rotate(-90) scale(0.12 -0.12)">
       <defs>
        <path id="DejaVuSans-37" d="M 525 4666 
L 3525 4666 
L 3525 4397 
L 1831 0 
L 1172 0 
L 2766 4134 
L 525 4134 
L 525 4666 
z
" transform="scale(0.015625)"/>
       </defs>
       <use xlink:href="#DejaVuSans-30"/>
       <use xlink:href="#DejaVuSans-2e" transform="translate(63.623047 0)"/>
       <use xlink:href="#DejaVuSans-37" transform="translate(95.410156 0)"/>
      </g>
     </g>
    </g>
    <g id="xtick_10">
     <g id="line2d_19">
      <path d="M 234.645506 307.387273 
L 234.645506 76.625455 
" clip-path="url(#p1417312b2e)" style="fill: none; stroke: #b0b0b0; stroke-opacity: 0.25; stroke-width: 0.6; stroke-linecap: square"/>
     </g>
     <g id="line2d_20">
      <g>
       <use xlink:href="#m9dd37c9d51" x="234.645506" y="307.387273" style="stroke: #000000; stroke-width: 0.8"/>
      </g>
     </g>
     <g id="text_10">
      <!-- 0.8 -->
      <g transform="translate(237.956756 333.471023) rotate(-90) scale(0.12 -0.12)">
       <defs>
        <path id="DejaVuSans-38" d="M 2034 2216 
Q 1584 2216 1326 1975 
Q 1069 1734 1069 1313 
Q 1069 891 1326 650 
Q 1584 409 2034 409 
Q 2484 409 2743 651 
Q 3003 894 3003 1313 
Q 3003 1734 2745 1975 
Q 2488 2216 2034 2216 
z
M 1403 2484 
Q 997 2584 770 2862 
Q 544 3141 544 3541 
Q 544 4100 942 4425 
Q 1341 4750 2034 4750 
Q 2731 4750 3128 4425 
Q 3525 4100 3525 3541 
Q 3525 3141 3298 2862 
Q 3072 2584 2669 2484 
Q 3125 2378 3379 2068 
Q 3634 1759 3634 1313 
Q 3634 634 3220 271 
Q 2806 -91 2034 -91 
Q 1263 -91 848 271 
Q 434 634 434 1313 
Q 434 1759 690 2068 
Q 947 2378 1403 2484 
z
M 1172 3481 
Q 1172 3119 1398 2916 
Q 1625 2713 2034 2713 
Q 2441 2713 2670 2916 
Q 2900 3119 2900 3481 
Q 2900 3844 2670 4047 
Q 2441 4250 2034 4250 
Q 1625 4250 1398 4047 
Q 1172 3844 1172 3481 
z
" transform="scale(0.015625)"/>
       </defs>
       <use xlink:href="#DejaVuSans-30"/>
       <use xlink:href="#DejaVuSans-2e" transform="translate(63.623047 0)"/>
       <use xlink:href="#DejaVuSans-38" transform="translate(95.410156 0)"/>
      </g>
     </g>
    </g>
    <g id="xtick_11">
     <g id="line2d_21">
      <path d="M 252.890131 307.387273 
L 252.890131 76.625455 
" clip-path="url(#p1417312b2e)" style="fill: none; stroke: #b0b0b0; stroke-opacity: 0.25; stroke-width: 0.6; stroke-linecap: square"/>
     </g>
     <g id="line2d_22">
      <g>
       <use xlink:href="#m9dd37c9d51" x="252.890131" y="307.387273" style="stroke: #000000; stroke-width: 0.8"/>
      </g>
     </g>
     <g id="text_11">
      <!-- 0.9 -->
      <g transform="translate(256.201381 333.471023) rotate(-90) scale(0.12 -0.12)">
       <defs>
        <path id="DejaVuSans-39" d="M 703 97 
L 703 672 
Q 941 559 1184 500 
Q 1428 441 1663 441 
Q 2288 441 2617 861 
Q 2947 1281 2994 2138 
Q 2813 1869 2534 1725 
Q 2256 1581 1919 1581 
Q 1219 1581 811 2004 
Q 403 2428 403 3163 
Q 403 3881 828 4315 
Q 1253 4750 1959 4750 
Q 2769 4750 3195 4129 
Q 3622 3509 3622 2328 
Q 3622 1225 3098 567 
Q 2575 -91 1691 -91 
Q 1453 -91 1209 -44 
Q 966 3 703 97 
z
M 1959 2075 
Q 2384 2075 2632 2365 
Q 2881 2656 2881 3163 
Q 2881 3666 2632 3958 
Q 2384 4250 1959 4250 
Q 1534 4250 1286 3958 
Q 1038 3666 1038 3163 
Q 1038 2656 1286 2365 
Q 1534 2075 1959 2075 
z
" transform="scale(0.015625)"/>
       </defs>
       <use xlink:href="#DejaVuSans-30"/>
       <use xlink:href="#DejaVuSans-2e" transform="translate(63.623047 0)"/>
       <use xlink:href="#DejaVuSans-39" transform="translate(95.410156 0)"/>
      </g>
     </g>
    </g>
    <g id="xtick_12">
     <g id="line2d_23">
      <path d="M 271.134757 307.387273 
L 271.134757 76.625455 
" clip-path="url(#p1417312b2e)" style="fill: none; stroke: #b0b0b0; stroke-opacity: 0.25; stroke-width: 0.6; stroke-linecap: square"/>
     </g>
     <g id="line2d_24">
      <g>
       <use xlink:href="#m9dd37c9d51" x="271.134757" y="307.387273" style="stroke: #000000; stroke-width: 0.8"/>
      </g>
     </g>
     <g id="text_12">
      <!-- 0.95 -->
      <g transform="translate(274.446007 341.106023) rotate(-90) scale(0.12 -0.12)">
       <use xlink:href="#DejaVuSans-30"/>
       <use xlink:href="#DejaVuSans-2e" transform="translate(63.623047 0)"/>
       <use xlink:href="#DejaVuSans-39" transform="translate(95.410156 0)"/>
       <use xlink:href="#DejaVuSans-35" transform="translate(159.033203 0)"/>
      </g>
     </g>
    </g>
    <g id="xtick_13">
     <g id="line2d_25">
      <path d="M 289.379382 307.387273 
L 289.379382 76.625455 
" clip-path="url(#p1417312b2e)" style="fill: none; stroke: #b0b0b0; stroke-opacity: 0.25; stroke-width: 0.6; stroke-linecap: square"/>
     </g>
     <g id="line2d_26">
      <g>
       <use xlink:href="#m9dd37c9d51" x="289.379382" y="307.387273" style="stroke: #000000; stroke-width: 0.8"/>
      </g>
     </g>
     <g id="text_13">
      <!-- 1 -->
      <g transform="translate(292.690632 322.022273) rotate(-90) scale(0.12 -0.12)">
       <use xlink:href="#DejaVuSans-31"/>
      </g>
     </g>
    </g>
    <g id="xtick_14">
     <g id="line2d_27">
      <path d="M 307.624008 307.387273 
L 307.624008 76.625455 
" clip-path="url(#p1417312b2e)" style="fill: none; stroke: #b0b0b0; stroke-opacity: 0.25; stroke-width: 0.6; stroke-linecap: square"/>
     </g>
     <g id="line2d_28">
      <g>
       <use xlink:href="#m9dd37c9d51" x="307.624008" y="307.387273" style="stroke: #000000; stroke-width: 0.8"/>
      </g>
     </g>
     <g id="text_14">
      <!-- 1.5 -->
      <g transform="translate(310.935258 333.471023) rotate(-90) scale(0.12 -0.12)">
       <use xlink:href="#DejaVuSans-31"/>
       <use xlink:href="#DejaVuSans-2e" transform="translate(63.623047 0)"/>
       <use xlink:href="#DejaVuSans-35" transform="translate(95.410156 0)"/>
      </g>
     </g>
    </g>
    <g id="xtick_15">
     <g id="line2d_29">
      <path d="M 325.868633 307.387273 
L 325.868633 76.625455 
" clip-path="url(#p1417312b2e)" style="fill: none; stroke: #b0b0b0; stroke-opacity: 0.25; stroke-width: 0.6; stroke-linecap: square"/>
     </g>
     <g id="line2d_30">
      <g>
       <use xlink:href="#m9dd37c9d51" x="325.868633" y="307.387273" style="stroke: #000000; stroke-width: 0.8"/>
      </g>
     </g>
     <g id="text_15">
      <!-- 2 -->
      <g transform="translate(329.179883 322.022273) rotate(-90) scale(0.12 -0.12)">
       <use xlink:href="#DejaVuSans-32"/>
      </g>
     </g>
    </g>
    <g id="xtick_16">
     <g id="line2d_31">
      <path d="M 344.113259 307.387273 
L 344.113259 76.625455 
" clip-path="url(#p1417312b2e)" style="fill: none; stroke: #b0b0b0; stroke-opacity: 0.25; stroke-width: 0.6; stroke-linecap: square"/>
     </g>
     <g id="line2d_32">
      <g>
       <use xlink:href="#m9dd37c9d51" x="344.113259" y="307.387273" style="stroke: #000000; stroke-width: 0.8"/>
      </g>
     </g>
     <g id="text_16">
      <!-- 3 -->
      <g transform="translate(347.424509 322.022273) rotate(-90) scale(0.12 -0.12)">
       <use xlink:href="#DejaVuSans-33"/>
      </g>
     </g>
    </g>
    <g id="xtick_17">
     <g id="line2d_33">
      <path d="M 362.357885 307.387273 
L 362.357885 76.625455 
" clip-path="url(#p1417312b2e)" style="fill: none; stroke: #b0b0b0; stroke-opacity: 0.25; stroke-width: 0.6; stroke-linecap: square"/>
     </g>
     <g id="line2d_34">
      <g>
       <use xlink:href="#m9dd37c9d51" x="362.357885" y="307.387273" style="stroke: #000000; stroke-width: 0.8"/>
      </g>
     </g>
     <g id="text_17">
      <!-- 5 -->
      <g transform="translate(365.669135 322.022273) rotate(-90) scale(0.12 -0.12)">
       <use xlink:href="#DejaVuSans-35"/>
      </g>
     </g>
    </g>
    <g id="xtick_18">
     <g id="line2d_35">
      <path d="M 380.60251 307.387273 
L 380.60251 76.625455 
" clip-path="url(#p1417312b2e)" style="fill: none; stroke: #b0b0b0; stroke-opacity: 0.25; stroke-width: 0.6; stroke-linecap: square"/>
     </g>
     <g id="line2d_36">
      <g>
       <use xlink:href="#m9dd37c9d51" x="380.60251" y="307.387273" style="stroke: #000000; stroke-width: 0.8"/>
      </g>
     </g>
     <g id="text_18">
      <!-- 10 -->
      <g transform="translate(383.91376 329.657273) rotate(-90) scale(0.12 -0.12)">
       <use xlink:href="#DejaVuSans-31"/>
       <use xlink:href="#DejaVuSans-30" transform="translate(63.623047 0)"/>
      </g>
     </g>
    </g>
    <g id="xtick_19">
     <g id="line2d_37">
      <path d="M 398.847136 307.387273 
L 398.847136 76.625455 
" clip-path="url(#p1417312b2e)" style="fill: none; stroke: #b0b0b0; stroke-opacity: 0.25; stroke-width: 0.6; stroke-linecap: square"/>
     </g>
     <g id="line2d_38">
      <g>
       <use xlink:href="#m9dd37c9d51" x="398.847136" y="307.387273" style="stroke: #000000; stroke-width: 0.8"/>
      </g>
     </g>
     <g id="text_19">
      <!-- 50 -->
      <g transform="translate(402.158386 329.657273) rotate(-90) scale(0.12 -0.12)">
       <use xlink:href="#DejaVuSans-35"/>
       <use xlink:href="#DejaVuSans-30" transform="translate(63.623047 0)"/>
      </g>
     </g>
    </g>
    <g id="xtick_20">
     <g id="line2d_39">
      <path d="M 417.091761 307.387273 
L 417.091761 76.625455 
" clip-path="url(#p1417312b2e)" style="fill: none; stroke: #b0b0b0; stroke-opacity: 0.25; stroke-width: 0.6; stroke-linecap: square"/>
     </g>
     <g id="line2d_40">
      <g>
       <use xlink:href="#m9dd37c9d51" x="417.091761" y="307.387273" style="stroke: #000000; stroke-width: 0.8"/>
      </g>
     </g>
     <g id="text_20">
      <!-- 100 -->
      <g transform="translate(420.403011 337.292273) rotate(-90) scale(0.12 -0.12)">
       <use xlink:href="#DejaVuSans-31"/>
       <use xlink:href="#DejaVuSans-30" transform="translate(63.623047 0)"/>
       <use xlink:href="#DejaVuSans-30" transform="translate(127.246094 0)"/>
      </g>
     </g>
    </g>
    <g id="text_21">
     <!-- Bias weight  $\omega$ -->
     <g transform="translate(196.512818 354.986023) scale(0.13 -0.13)">
      <defs>
       <path id="DejaVuSans-42" d="M 1259 2228 
L 1259 519 
L 2272 519 
Q 2781 519 3026 730 
Q 3272 941 3272 1375 
Q 3272 1813 3026 2020 
Q 2781 2228 2272 2228 
L 1259 2228 
z
M 1259 4147 
L 1259 2741 
L 2194 2741 
Q 2656 2741 2882 2914 
Q 3109 3088 3109 3444 
Q 3109 3797 2882 3972 
Q 2656 4147 2194 4147 
L 1259 4147 
z
M 628 4666 
L 2241 4666 
Q 2963 4666 3353 4366 
Q 3744 4066 3744 3513 
Q 3744 3084 3544 2831 
Q 3344 2578 2956 2516 
Q 3422 2416 3680 2098 
Q 3938 1781 3938 1306 
Q 3938 681 3513 340 
Q 3088 0 2303 0 
L 628 0 
L 628 4666 
z
" transform="scale(0.015625)"/>
       <path id="DejaVuSans-69" d="M 603 3500 
L 1178 3500 
L 1178 0 
L 603 0 
L 603 3500 
z
M 603 4863 
L 1178 4863 
L 1178 4134 
L 603 4134 
L 603 4863 
z
" transform="scale(0.015625)"/>
       <path id="DejaVuSans-61" d="M 2194 1759 
Q 1497 1759 1228 1600 
Q 959 1441 959 1056 
Q 959 750 1161 570 
Q 1363 391 1709 391 
Q 2188 391 2477 730 
Q 2766 1069 2766 1631 
L 2766 1759 
L 2194 1759 
z
M 3341 1997 
L 3341 0 
L 2766 0 
L 2766 531 
Q 2569 213 2275 61 
Q 1981 -91 1556 -91 
Q 1019 -91 701 211 
Q 384 513 384 1019 
Q 384 1609 779 1909 
Q 1175 2209 1959 2209 
L 2766 2209 
L 2766 2266 
Q 2766 2663 2505 2880 
Q 2244 3097 1772 3097 
Q 1472 3097 1187 3025 
Q 903 2953 641 2809 
L 641 3341 
Q 956 3463 1253 3523 
Q 1550 3584 1831 3584 
Q 2591 3584 2966 3190 
Q 3341 2797 3341 1997 
z
" transform="scale(0.015625)"/>
       <path id="DejaVuSans-73" d="M 2834 3397 
L 2834 2853 
Q 2591 2978 2328 3040 
Q 2066 3103 1784 3103 
Q 1356 3103 1142 2972 
Q 928 2841 928 2578 
Q 928 2378 1081 2264 
Q 1234 2150 1697 2047 
L 1894 2003 
Q 2506 1872 2764 1633 
Q 3022 1394 3022 966 
Q 3022 478 2636 193 
Q 2250 -91 1575 -91 
Q 1294 -91 989 -36 
Q 684 19 347 128 
L 347 722 
Q 666 556 975 473 
Q 1284 391 1588 391 
Q 1994 391 2212 530 
Q 2431 669 2431 922 
Q 2431 1156 2273 1281 
Q 2116 1406 1581 1522 
L 1381 1569 
Q 847 1681 609 1914 
Q 372 2147 372 2553 
Q 372 3047 722 3315 
Q 1072 3584 1716 3584 
Q 2034 3584 2315 3537 
Q 2597 3491 2834 3397 
z
" transform="scale(0.015625)"/>
       <path id="DejaVuSans-20" transform="scale(0.015625)"/>
       <path id="DejaVuSans-77" d="M 269 3500 
L 844 3500 
L 1563 769 
L 2278 3500 
L 2956 3500 
L 3675 769 
L 4391 3500 
L 4966 3500 
L 4050 0 
L 3372 0 
L 2619 2869 
L 1863 0 
L 1184 0 
L 269 3500 
z
" transform="scale(0.015625)"/>
       <path id="DejaVuSans-65" d="M 3597 1894 
L 3597 1613 
L 953 1613 
Q 991 1019 1311 708 
Q 1631 397 2203 397 
Q 2534 397 2845 478 
Q 3156 559 3463 722 
L 3463 178 
Q 3153 47 2828 -22 
Q 2503 -91 2169 -91 
Q 1331 -91 842 396 
Q 353 884 353 1716 
Q 353 2575 817 3079 
Q 1281 3584 2069 3584 
Q 2775 3584 3186 3129 
Q 3597 2675 3597 1894 
z
M 3022 2063 
Q 3016 2534 2758 2815 
Q 2500 3097 2075 3097 
Q 1594 3097 1305 2825 
Q 1016 2553 972 2059 
L 3022 2063 
z
" transform="scale(0.015625)"/>
       <path id="DejaVuSans-67" d="M 2906 1791 
Q 2906 2416 2648 2759 
Q 2391 3103 1925 3103 
Q 1463 3103 1205 2759 
Q 947 2416 947 1791 
Q 947 1169 1205 825 
Q 1463 481 1925 481 
Q 2391 481 2648 825 
Q 2906 1169 2906 1791 
z
M 3481 434 
Q 3481 -459 3084 -895 
Q 2688 -1331 1869 -1331 
Q 1566 -1331 1297 -1286 
Q 1028 -1241 775 -1147 
L 775 -588 
Q 1028 -725 1275 -790 
Q 1522 -856 1778 -856 
Q 2344 -856 2625 -561 
Q 2906 -266 2906 331 
L 2906 616 
Q 2728 306 2450 153 
Q 2172 0 1784 0 
Q 1141 0 747 490 
Q 353 981 353 1791 
Q 353 2603 747 3093 
Q 1141 3584 1784 3584 
Q 2172 3584 2450 3431 
Q 2728 3278 2906 2969 
L 2906 3500 
L 3481 3500 
L 3481 434 
z
" transform="scale(0.015625)"/>
       <path id="DejaVuSans-68" d="M 3513 2113 
L 3513 0 
L 2938 0 
L 2938 2094 
Q 2938 2591 2744 2837 
Q 2550 3084 2163 3084 
Q 1697 3084 1428 2787 
Q 1159 2491 1159 1978 
L 1159 0 
L 581 0 
L 581 4863 
L 1159 4863 
L 1159 2956 
Q 1366 3272 1645 3428 
Q 1925 3584 2291 3584 
Q 2894 3584 3203 3211 
Q 3513 2838 3513 2113 
z
" transform="scale(0.015625)"/>
       <path id="DejaVuSans-74" d="M 1172 4494 
L 1172 3500 
L 2356 3500 
L 2356 3053 
L 1172 3053 
L 1172 1153 
Q 1172 725 1289 603 
Q 1406 481 1766 481 
L 2356 481 
L 2356 0 
L 1766 0 
Q 1100 0 847 248 
Q 594 497 594 1153 
L 594 3053 
L 172 3053 
L 172 3500 
L 594 3500 
L 594 4494 
L 1172 4494 
z
" transform="scale(0.015625)"/>
       <path id="DejaVuSans-Oblique-3c9" d="M 1369 -91 
Q 72 -91 434 1766 
Q 575 2500 1256 3500 
L 1875 3500 
Q 1231 2500 1088 1750 
Q 819 397 1519 397 
Q 2166 397 2478 2078 
L 3009 2078 
Q 2669 388 3316 397 
Q 4013 403 4275 1750 
Q 4419 2500 4169 3500 
L 4788 3500 
Q 5075 2500 4934 1766 
Q 4578 -94 3278 -91 
Q 2428 -88 2503 844 
Q 2194 -91 1369 -91 
z
" transform="scale(0.015625)"/>
      </defs>
      <use xlink:href="#DejaVuSans-42" transform="translate(0 0.015625)"/>
      <use xlink:href="#DejaVuSans-69" transform="translate(68.603516 0.015625)"/>
      <use xlink:href="#DejaVuSans-61" transform="translate(96.386719 0.015625)"/>
      <use xlink:href="#DejaVuSans-73" transform="translate(157.666016 0.015625)"/>
      <use xlink:href="#DejaVuSans-20" transform="translate(209.765625 0.015625)"/>
      <use xlink:href="#DejaVuSans-77" transform="translate(241.552734 0.015625)"/>
      <use xlink:href="#DejaVuSans-65" transform="translate(323.339844 0.015625)"/>
      <use xlink:href="#DejaVuSans-69" transform="translate(384.863281 0.015625)"/>
      <use xlink:href="#DejaVuSans-67" transform="translate(412.646484 0.015625)"/>
      <use xlink:href="#DejaVuSans-68" transform="translate(476.123047 0.015625)"/>
      <use xlink:href="#DejaVuSans-74" transform="translate(539.501953 0.015625)"/>
      <use xlink:href="#DejaVuSans-20" transform="translate(578.710938 0.015625)"/>
      <use xlink:href="#DejaVuSans-20" transform="translate(610.498047 0.015625)"/>
      <use xlink:href="#DejaVuSans-Oblique-3c9" transform="translate(642.285156 0.015625)"/>
     </g>
    </g>
   </g>
   <g id="matplotlib.axis_2">
    <g id="ytick_1">
     <g id="line2d_41">
      <path d="M 61.321563 281.138522 
L 426.214074 281.138522 
" clip-path="url(#p1417312b2e)" style="fill: none; stroke: #b0b0b0; stroke-opacity: 0.25; stroke-width: 0.6; stroke-linecap: square"/>
     </g>
     <g id="line2d_42">
      <defs>
       <path id="m61b75b1edb" d="M 0 0 
L -3.5 0 
" style="stroke: #000000; stroke-width: 0.8"/>
      </defs>
      <g>
       <use xlink:href="#m61b75b1edb" x="61.321563" y="281.138522" style="stroke: #000000; stroke-width: 0.8"/>
      </g>
     </g>
     <g id="text_22">
      <!-- 3200 -->
      <g transform="translate(23.781563 285.697585) scale(0.12 -0.12)">
       <use xlink:href="#DejaVuSans-33"/>
       <use xlink:href="#DejaVuSans-32" transform="translate(63.623047 0)"/>
       <use xlink:href="#DejaVuSans-30" transform="translate(127.246094 0)"/>
       <use xlink:href="#DejaVuSans-30" transform="translate(190.869141 0)"/>
      </g>
     </g>
    </g>
    <g id="ytick_2">
     <g id="line2d_43">
      <path d="M 61.321563 252.04484 
L 426.214074 252.04484 
" clip-path="url(#p1417312b2e)" style="fill: none; stroke: #b0b0b0; stroke-opacity: 0.25; stroke-width: 0.6; stroke-linecap: square"/>
     </g>
     <g id="line2d_44">
      <g>
       <use xlink:href="#m61b75b1edb" x="61.321563" y="252.04484" style="stroke: #000000; stroke-width: 0.8"/>
      </g>
     </g>
     <g id="text_23">
      <!-- 3400 -->
      <g transform="translate(23.781563 256.603903) scale(0.12 -0.12)">
       <use xlink:href="#DejaVuSans-33"/>
       <use xlink:href="#DejaVuSans-34" transform="translate(63.623047 0)"/>
       <use xlink:href="#DejaVuSans-30" transform="translate(127.246094 0)"/>
       <use xlink:href="#DejaVuSans-30" transform="translate(190.869141 0)"/>
      </g>
     </g>
    </g>
    <g id="ytick_3">
     <g id="line2d_45">
      <path d="M 61.321563 222.951158 
L 426.214074 222.951158 
" clip-path="url(#p1417312b2e)" style="fill: none; stroke: #b0b0b0; stroke-opacity: 0.25; stroke-width: 0.6; stroke-linecap: square"/>
     </g>
     <g id="line2d_46">
      <g>
       <use xlink:href="#m61b75b1edb" x="61.321563" y="222.951158" style="stroke: #000000; stroke-width: 0.8"/>
      </g>
     </g>
     <g id="text_24">
      <!-- 3600 -->
      <g transform="translate(23.781563 227.510221) scale(0.12 -0.12)">
       <use xlink:href="#DejaVuSans-33"/>
       <use xlink:href="#DejaVuSans-36" transform="translate(63.623047 0)"/>
       <use xlink:href="#DejaVuSans-30" transform="translate(127.246094 0)"/>
       <use xlink:href="#DejaVuSans-30" transform="translate(190.869141 0)"/>
      </g>
     </g>
    </g>
    <g id="ytick_4">
     <g id="line2d_47">
      <path d="M 61.321563 193.857477 
L 426.214074 193.857477 
" clip-path="url(#p1417312b2e)" style="fill: none; stroke: #b0b0b0; stroke-opacity: 0.25; stroke-width: 0.6; stroke-linecap: square"/>
     </g>
     <g id="line2d_48">
      <g>
       <use xlink:href="#m61b75b1edb" x="61.321563" y="193.857477" style="stroke: #000000; stroke-width: 0.8"/>
      </g>
     </g>
     <g id="text_25">
      <!-- 3800 -->
      <g transform="translate(23.781563 198.416539) scale(0.12 -0.12)">
       <use xlink:href="#DejaVuSans-33"/>
       <use xlink:href="#DejaVuSans-38" transform="translate(63.623047 0)"/>
       <use xlink:href="#DejaVuSans-30" transform="translate(127.246094 0)"/>
       <use xlink:href="#DejaVuSans-30" transform="translate(190.869141 0)"/>
      </g>
     </g>
    </g>
    <g id="ytick_5">
     <g id="line2d_49">
      <path d="M 61.321563 164.763795 
L 426.214074 164.763795 
" clip-path="url(#p1417312b2e)" style="fill: none; stroke: #b0b0b0; stroke-opacity: 0.25; stroke-width: 0.6; stroke-linecap: square"/>
     </g>
     <g id="line2d_50">
      <g>
       <use xlink:href="#m61b75b1edb" x="61.321563" y="164.763795" style="stroke: #000000; stroke-width: 0.8"/>
      </g>
     </g>
     <g id="text_26">
      <!-- 4000 -->
      <g transform="translate(23.781563 169.322857) scale(0.12 -0.12)">
       <use xlink:href="#DejaVuSans-34"/>
       <use xlink:href="#DejaVuSans-30" transform="translate(63.623047 0)"/>
       <use xlink:href="#DejaVuSans-30" transform="translate(127.246094 0)"/>
       <use xlink:href="#DejaVuSans-30" transform="translate(190.869141 0)"/>
      </g>
     </g>
    </g>
    <g id="ytick_6">
     <g id="line2d_51">
      <path d="M 61.321563 135.670113 
L 426.214074 135.670113 
" clip-path="url(#p1417312b2e)" style="fill: none; stroke: #b0b0b0; stroke-opacity: 0.25; stroke-width: 0.6; stroke-linecap: square"/>
     </g>
     <g id="line2d_52">
      <g>
       <use xlink:href="#m61b75b1edb" x="61.321563" y="135.670113" style="stroke: #000000; stroke-width: 0.8"/>
      </g>
     </g>
     <g id="text_27">
      <!-- 4200 -->
      <g transform="translate(23.781563 140.229175) scale(0.12 -0.12)">
       <use xlink:href="#DejaVuSans-34"/>
       <use xlink:href="#DejaVuSans-32" transform="translate(63.623047 0)"/>
       <use xlink:href="#DejaVuSans-30" transform="translate(127.246094 0)"/>
       <use xlink:href="#DejaVuSans-30" transform="translate(190.869141 0)"/>
      </g>
     </g>
    </g>
    <g id="ytick_7">
     <g id="line2d_53">
      <path d="M 61.321563 106.576431 
L 426.214074 106.576431 
" clip-path="url(#p1417312b2e)" style="fill: none; stroke: #b0b0b0; stroke-opacity: 0.25; stroke-width: 0.6; stroke-linecap: square"/>
     </g>
     <g id="line2d_54">
      <g>
       <use xlink:href="#m61b75b1edb" x="61.321563" y="106.576431" style="stroke: #000000; stroke-width: 0.8"/>
      </g>
     </g>
     <g id="text_28">
      <!-- 4400 -->
      <g transform="translate(23.781563 111.135493) scale(0.12 -0.12)">
       <use xlink:href="#DejaVuSans-34"/>
       <use xlink:href="#DejaVuSans-34" transform="translate(63.623047 0)"/>
       <use xlink:href="#DejaVuSans-30" transform="translate(127.246094 0)"/>
       <use xlink:href="#DejaVuSans-30" transform="translate(190.869141 0)"/>
      </g>
     </g>
    </g>
    <g id="ytick_8">
     <g id="line2d_55">
      <path d="M 61.321563 77.482749 
L 426.214074 77.482749 
" clip-path="url(#p1417312b2e)" style="fill: none; stroke: #b0b0b0; stroke-opacity: 0.25; stroke-width: 0.6; stroke-linecap: square"/>
     </g>
     <g id="line2d_56">
      <g>
       <use xlink:href="#m61b75b1edb" x="61.321563" y="77.482749" style="stroke: #000000; stroke-width: 0.8"/>
      </g>
     </g>
     <g id="text_29">
      <!-- 4600 -->
      <g transform="translate(23.781563 82.041812) scale(0.12 -0.12)">
       <use xlink:href="#DejaVuSans-34"/>
       <use xlink:href="#DejaVuSans-36" transform="translate(63.623047 0)"/>
       <use xlink:href="#DejaVuSans-30" transform="translate(127.246094 0)"/>
       <use xlink:href="#DejaVuSans-30" transform="translate(190.869141 0)"/>
      </g>
     </g>
    </g>
    <g id="text_30">
     <!-- Total CO$_2$ emissions  [Mt CO$_2$] -->
     <g transform="translate(17.077969 289.636364) rotate(-90) scale(0.13 -0.13)">
      <defs>
       <path id="DejaVuSans-54" d="M -19 4666 
L 3928 4666 
L 3928 4134 
L 2272 4134 
L 2272 0 
L 1638 0 
L 1638 4134 
L -19 4134 
L -19 4666 
z
" transform="scale(0.015625)"/>
       <path id="DejaVuSans-6f" d="M 1959 3097 
Q 1497 3097 1228 2736 
Q 959 2375 959 1747 
Q 959 1119 1226 758 
Q 1494 397 1959 397 
Q 2419 397 2687 759 
Q 2956 1122 2956 1747 
Q 2956 2369 2687 2733 
Q 2419 3097 1959 3097 
z
M 1959 3584 
Q 2709 3584 3137 3096 
Q 3566 2609 3566 1747 
Q 3566 888 3137 398 
Q 2709 -91 1959 -91 
Q 1206 -91 779 398 
Q 353 888 353 1747 
Q 353 2609 779 3096 
Q 1206 3584 1959 3584 
z
" transform="scale(0.015625)"/>
       <path id="DejaVuSans-6c" d="M 603 4863 
L 1178 4863 
L 1178 0 
L 603 0 
L 603 4863 
z
" transform="scale(0.015625)"/>
       <path id="DejaVuSans-43" d="M 4122 4306 
L 4122 3641 
Q 3803 3938 3442 4084 
Q 3081 4231 2675 4231 
Q 1875 4231 1450 3742 
Q 1025 3253 1025 2328 
Q 1025 1406 1450 917 
Q 1875 428 2675 428 
Q 3081 428 3442 575 
Q 3803 722 4122 1019 
L 4122 359 
Q 3791 134 3420 21 
Q 3050 -91 2638 -91 
Q 1578 -91 968 557 
Q 359 1206 359 2328 
Q 359 3453 968 4101 
Q 1578 4750 2638 4750 
Q 3056 4750 3426 4639 
Q 3797 4528 4122 4306 
z
" transform="scale(0.015625)"/>
       <path id="DejaVuSans-4f" d="M 2522 4238 
Q 1834 4238 1429 3725 
Q 1025 3213 1025 2328 
Q 1025 1447 1429 934 
Q 1834 422 2522 422 
Q 3209 422 3611 934 
Q 4013 1447 4013 2328 
Q 4013 3213 3611 3725 
Q 3209 4238 2522 4238 
z
M 2522 4750 
Q 3503 4750 4090 4092 
Q 4678 3434 4678 2328 
Q 4678 1225 4090 567 
Q 3503 -91 2522 -91 
Q 1538 -91 948 565 
Q 359 1222 359 2328 
Q 359 3434 948 4092 
Q 1538 4750 2522 4750 
z
" transform="scale(0.015625)"/>
       <path id="DejaVuSans-6d" d="M 3328 2828 
Q 3544 3216 3844 3400 
Q 4144 3584 4550 3584 
Q 5097 3584 5394 3201 
Q 5691 2819 5691 2113 
L 5691 0 
L 5113 0 
L 5113 2094 
Q 5113 2597 4934 2840 
Q 4756 3084 4391 3084 
Q 3944 3084 3684 2787 
Q 3425 2491 3425 1978 
L 3425 0 
L 2847 0 
L 2847 2094 
Q 2847 2600 2669 2842 
Q 2491 3084 2119 3084 
Q 1678 3084 1418 2786 
Q 1159 2488 1159 1978 
L 1159 0 
L 581 0 
L 581 3500 
L 1159 3500 
L 1159 2956 
Q 1356 3278 1631 3431 
Q 1906 3584 2284 3584 
Q 2666 3584 2933 3390 
Q 3200 3197 3328 2828 
z
" transform="scale(0.015625)"/>
       <path id="DejaVuSans-6e" d="M 3513 2113 
L 3513 0 
L 2938 0 
L 2938 2094 
Q 2938 2591 2744 2837 
Q 2550 3084 2163 3084 
Q 1697 3084 1428 2787 
Q 1159 2491 1159 1978 
L 1159 0 
L 581 0 
L 581 3500 
L 1159 3500 
L 1159 2956 
Q 1366 3272 1645 3428 
Q 1925 3584 2291 3584 
Q 2894 3584 3203 3211 
Q 3513 2838 3513 2113 
z
" transform="scale(0.015625)"/>
       <path id="DejaVuSans-5b" d="M 550 4863 
L 1875 4863 
L 1875 4416 
L 1125 4416 
L 1125 -397 
L 1875 -397 
L 1875 -844 
L 550 -844 
L 550 4863 
z
" transform="scale(0.015625)"/>
       <path id="DejaVuSans-4d" d="M 628 4666 
L 1569 4666 
L 2759 1491 
L 3956 4666 
L 4897 4666 
L 4897 0 
L 4281 0 
L 4281 4097 
L 3078 897 
L 2444 897 
L 1241 4097 
L 1241 0 
L 628 0 
L 628 4666 
z
" transform="scale(0.015625)"/>
       <path id="DejaVuSans-5d" d="M 1947 4863 
L 1947 -844 
L 622 -844 
L 622 -397 
L 1369 -397 
L 1369 4416 
L 622 4416 
L 622 4863 
L 1947 4863 
z
" transform="scale(0.015625)"/>
      </defs>
      <use xlink:href="#DejaVuSans-54" transform="translate(0 0.015625)"/>
      <use xlink:href="#DejaVuSans-6f" transform="translate(61.083984 0.015625)"/>
      <use xlink:href="#DejaVuSans-74" transform="translate(122.265625 0.015625)"/>
      <use xlink:href="#DejaVuSans-61" transform="translate(161.474609 0.015625)"/>
      <use xlink:href="#DejaVuSans-6c" transform="translate(222.753906 0.015625)"/>
      <use xlink:href="#DejaVuSans-20" transform="translate(250.537109 0.015625)"/>
      <use xlink:href="#DejaVuSans-43" transform="translate(282.324219 0.015625)"/>
      <use xlink:href="#DejaVuSans-4f" transform="translate(352.148438 0.015625)"/>
      <use xlink:href="#DejaVuSans-32" transform="translate(431.816406 -16.390625) scale(0.7)"/>
      <use xlink:href="#DejaVuSans-20" transform="translate(479.086914 0.015625)"/>
      <use xlink:href="#DejaVuSans-65" transform="translate(510.874023 0.015625)"/>
      <use xlink:href="#DejaVuSans-6d" transform="translate(572.397461 0.015625)"/>
      <use xlink:href="#DejaVuSans-69" transform="translate(669.80957 0.015625)"/>
      <use xlink:href="#DejaVuSans-73" transform="translate(697.592773 0.015625)"/>
      <use xlink:href="#DejaVuSans-73" transform="translate(749.692383 0.015625)"/>
      <use xlink:href="#DejaVuSans-69" transform="translate(801.791992 0.015625)"/>
      <use xlink:href="#DejaVuSans-6f" transform="translate(829.575195 0.015625)"/>
      <use xlink:href="#DejaVuSans-6e" transform="translate(890.756836 0.015625)"/>
      <use xlink:href="#DejaVuSans-73" transform="translate(954.135742 0.015625)"/>
      <use xlink:href="#DejaVuSans-20" transform="translate(1006.235352 0.015625)"/>
      <use xlink:href="#DejaVuSans-20" transform="translate(1038.022461 0.015625)"/>
      <use xlink:href="#DejaVuSans-5b" transform="translate(1069.80957 0.015625)"/>
      <use xlink:href="#DejaVuSans-4d" transform="translate(1108.823242 0.015625)"/>
      <use xlink:href="#DejaVuSans-74" transform="translate(1195.102539 0.015625)"/>
      <use xlink:href="#DejaVuSans-20" transform="translate(1234.311523 0.015625)"/>
      <use xlink:href="#DejaVuSans-43" transform="translate(1266.098633 0.015625)"/>
      <use xlink:href="#DejaVuSans-4f" transform="translate(1335.922852 0.015625)"/>
      <use xlink:href="#DejaVuSans-32" transform="translate(1415.59082 -16.390625) scale(0.7)"/>
      <use xlink:href="#DejaVuSans-5d" transform="translate(1462.861328 0.015625)"/>
     </g>
    </g>
   </g>
   <g id="line2d_57">
    <path d="M 61.321563 87.114628 
L 426.214074 87.114628 
" clip-path="url(#p1417312b2e)" style="fill: none; stroke-dasharray: 7.4,3.2; stroke-dashoffset: 0; stroke: #c46a3f; stroke-width: 2"/>
   </g>
   <g id="patch_5">
    <path d="M 61.321563 307.387273 
L 61.321563 76.625455 
" style="fill: none; stroke: #000000; stroke-width: 0.8; stroke-linejoin: miter; stroke-linecap: square"/>
   </g>
   <g id="patch_6">
    <path d="M 61.321563 307.387273 
L 426.214074 307.387273 
" style="fill: none; stroke: #000000; stroke-width: 0.8; stroke-linejoin: miter; stroke-linecap: square"/>
   </g>
   <g id="line2d_58">
    <path d="M 70.443875 87.114628 
L 88.688501 87.894409 
L 106.933126 89.147729 
L 125.177752 90.401868 
L 143.422378 92.856324 
L 161.667003 93.590258 
L 179.911629 94.480325 
L 198.156254 101.610766 
L 216.40088 102.551739 
L 234.645506 107.235824 
L 252.890131 105.423927 
L 271.134757 113.222575 
L 289.379382 117.467835 
L 307.624008 145.529502 
L 325.868633 152.104181 
L 344.113259 144.491431 
L 362.357885 233.850727 
L 380.60251 277.467918 
L 398.847136 296.898099 
L 417.091761 296.801099 
" clip-path="url(#p1417312b2e)" style="fill: none; stroke: #3a7d44; stroke-width: 1.8; stroke-linecap: square"/>
    <defs>
     <path id="mebfa9717c8" d="M 0 2 
C 0.530406 2 1.03916 1.789267 1.414214 1.414214 
C 1.789267 1.03916 2 0.530406 2 0 
C 2 -0.530406 1.789267 -1.03916 1.414214 -1.414214 
C 1.03916 -1.789267 0.530406 -2 0 -2 
C -0.530406 -2 -1.03916 -1.789267 -1.414214 -1.414214 
C -1.789267 -1.03916 -2 -0.530406 -2 0 
C -2 0.530406 -1.789267 1.03916 -1.414214 1.414214 
C -1.03916 1.789267 -0.530406 2 0 2 
z
" style="stroke: #3a7d44"/>
    </defs>
    <g clip-path="url(#p1417312b2e)">
     <use xlink:href="#mebfa9717c8" x="70.443875" y="87.114628" style="fill: #3a7d44; stroke: #3a7d44"/>
     <use xlink:href="#mebfa9717c8" x="88.688501" y="87.894409" style="fill: #3a7d44; stroke: #3a7d44"/>
     <use xlink:href="#mebfa9717c8" x="106.933126" y="89.147729" style="fill: #3a7d44; stroke: #3a7d44"/>
     <use xlink:href="#mebfa9717c8" x="125.177752" y="90.401868" style="fill: #3a7d44; stroke: #3a7d44"/>
     <use xlink:href="#mebfa9717c8" x="143.422378" y="92.856324" style="fill: #3a7d44; stroke: #3a7d44"/>
     <use xlink:href="#mebfa9717c8" x="161.667003" y="93.590258" style="fill: #3a7d44; stroke: #3a7d44"/>
     <use xlink:href="#mebfa9717c8" x="179.911629" y="94.480325" style="fill: #3a7d44; stroke: #3a7d44"/>
     <use xlink:href="#mebfa9717c8" x="198.156254" y="101.610766" style="fill: #3a7d44; stroke: #3a7d44"/>
     <use xlink:href="#mebfa9717c8" x="216.40088" y="102.551739" style="fill: #3a7d44; stroke: #3a7d44"/>
     <use xlink:href="#mebfa9717c8" x="234.645506" y="107.235824" style="fill: #3a7d44; stroke: #3a7d44"/>
     <use xlink:href="#mebfa9717c8" x="252.890131" y="105.423927" style="fill: #3a7d44; stroke: #3a7d44"/>
     <use xlink:href="#mebfa9717c8" x="271.134757" y="113.222575" style="fill: #3a7d44; stroke: #3a7d44"/>
     <use xlink:href="#mebfa9717c8" x="289.379382" y="117.467835" style="fill: #3a7d44; stroke: #3a7d44"/>
     <use xlink:href="#mebfa9717c8" x="307.624008" y="145.529502" style="fill: #3a7d44; stroke: #3a7d44"/>
     <use xlink:href="#mebfa9717c8" x="325.868633" y="152.104181" style="fill: #3a7d44; stroke: #3a7d44"/>
     <use xlink:href="#mebfa9717c8" x="344.113259" y="144.491431" style="fill: #3a7d44; stroke: #3a7d44"/>
     <use xlink:href="#mebfa9717c8" x="362.357885" y="233.850727" style="fill: #3a7d44; stroke: #3a7d44"/>
     <use xlink:href="#mebfa9717c8" x="380.60251" y="277.467918" style="fill: #3a7d44; stroke: #3a7d44"/>
     <use xlink:href="#mebfa9717c8" x="398.847136" y="296.898099" style="fill: #3a7d44; stroke: #3a7d44"/>
     <use xlink:href="#mebfa9717c8" x="417.091761" y="296.801099" style="fill: #3a7d44; stroke: #3a7d44"/>
    </g>
   </g>
   <g id="text_31">
    <!-- -5% -->
    <g style="fill: #2e6336" transform="translate(293.379382 110.467835) scale(0.11 -0.11)">
     <defs>
      <path id="DejaVuSans-2d" d="M 313 2009 
L 1997 2009 
L 1997 1497 
L 313 1497 
L 313 2009 
z
" transform="scale(0.015625)"/>
      <path id="DejaVuSans-25" d="M 4653 2053 
Q 4381 2053 4226 1822 
Q 4072 1591 4072 1178 
Q 4072 772 4226 539 
Q 4381 306 4653 306 
Q 4919 306 5073 539 
Q 5228 772 5228 1178 
Q 5228 1588 5073 1820 
Q 4919 2053 4653 2053 
z
M 4653 2450 
Q 5147 2450 5437 2106 
Q 5728 1763 5728 1178 
Q 5728 594 5436 251 
Q 5144 -91 4653 -91 
Q 4153 -91 3862 251 
Q 3572 594 3572 1178 
Q 3572 1766 3864 2108 
Q 4156 2450 4653 2450 
z
M 1428 4353 
Q 1159 4353 1004 4120 
Q 850 3888 850 3481 
Q 850 3069 1003 2837 
Q 1156 2606 1428 2606 
Q 1700 2606 1854 2837 
Q 2009 3069 2009 3481 
Q 2009 3884 1853 4118 
Q 1697 4353 1428 4353 
z
M 4250 4750 
L 4750 4750 
L 1831 -91 
L 1331 -91 
L 4250 4750 
z
M 1428 4750 
Q 1922 4750 2215 4408 
Q 2509 4066 2509 3481 
Q 2509 2891 2217 2550 
Q 1925 2209 1428 2209 
Q 931 2209 642 2551 
Q 353 2894 353 3481 
Q 353 4063 643 4406 
Q 934 4750 1428 4750 
z
" transform="scale(0.015625)"/>
     </defs>
     <use xlink:href="#DejaVuSans-2d"/>
     <use xlink:href="#DejaVuSans-35" transform="translate(36.083984 0)"/>
     <use xlink:href="#DejaVuSans-25" transform="translate(99.707031 0)"/>
    </g>
   </g>
   <g id="text_32">
    <!-- -32% -->
    <g style="fill: #2e6336" transform="translate(421.091761 289.801099) scale(0.11 -0.11)">
     <use xlink:href="#DejaVuSans-2d"/>
     <use xlink:href="#DejaVuSans-33" transform="translate(36.083984 0)"/>
     <use xlink:href="#DejaVuSans-32" transform="translate(99.707031 0)"/>
     <use xlink:href="#DejaVuSans-25" transform="translate(163.330078 0)"/>
    </g>
   </g>
   <g id="text_33">
    <!-- (a)  Emissions vs. bias weight  (no policy) -->
    <g transform="translate(98.698287 70.625455) scale(0.14 -0.14)">
     <defs>
      <path id="DejaVuSans-28" d="M 1984 4856 
Q 1566 4138 1362 3434 
Q 1159 2731 1159 2009 
Q 1159 1288 1364 580 
Q 1569 -128 1984 -844 
L 1484 -844 
Q 1016 -109 783 600 
Q 550 1309 550 2009 
Q 550 2706 781 3412 
Q 1013 4119 1484 4856 
L 1984 4856 
z
" transform="scale(0.015625)"/>
      <path id="DejaVuSans-29" d="M 513 4856 
L 1013 4856 
Q 1481 4119 1714 3412 
Q 1947 2706 1947 2009 
Q 1947 1309 1714 600 
Q 1481 -109 1013 -844 
L 513 -844 
Q 928 -128 1133 580 
Q 1338 1288 1338 2009 
Q 1338 2731 1133 3434 
Q 928 4138 513 4856 
z
" transform="scale(0.015625)"/>
      <path id="DejaVuSans-45" d="M 628 4666 
L 3578 4666 
L 3578 4134 
L 1259 4134 
L 1259 2753 
L 3481 2753 
L 3481 2222 
L 1259 2222 
L 1259 531 
L 3634 531 
L 3634 0 
L 628 0 
L 628 4666 
z
" transform="scale(0.015625)"/>
      <path id="DejaVuSans-76" d="M 191 3500 
L 800 3500 
L 1894 563 
L 2988 3500 
L 3597 3500 
L 2284 0 
L 1503 0 
L 191 3500 
z
" transform="scale(0.015625)"/>
      <path id="DejaVuSans-62" d="M 3116 1747 
Q 3116 2381 2855 2742 
Q 2594 3103 2138 3103 
Q 1681 3103 1420 2742 
Q 1159 2381 1159 1747 
Q 1159 1113 1420 752 
Q 1681 391 2138 391 
Q 2594 391 2855 752 
Q 3116 1113 3116 1747 
z
M 1159 2969 
Q 1341 3281 1617 3432 
Q 1894 3584 2278 3584 
Q 2916 3584 3314 3078 
Q 3713 2572 3713 1747 
Q 3713 922 3314 415 
Q 2916 -91 2278 -91 
Q 1894 -91 1617 61 
Q 1341 213 1159 525 
L 1159 0 
L 581 0 
L 581 4863 
L 1159 4863 
L 1159 2969 
z
" transform="scale(0.015625)"/>
      <path id="DejaVuSans-70" d="M 1159 525 
L 1159 -1331 
L 581 -1331 
L 581 3500 
L 1159 3500 
L 1159 2969 
Q 1341 3281 1617 3432 
Q 1894 3584 2278 3584 
Q 2916 3584 3314 3078 
Q 3713 2572 3713 1747 
Q 3713 922 3314 415 
Q 2916 -91 2278 -91 
Q 1894 -91 1617 61 
Q 1341 213 1159 525 
z
M 3116 1747 
Q 3116 2381 2855 2742 
Q 2594 3103 2138 3103 
Q 1681 3103 1420 2742 
Q 1159 2381 1159 1747 
Q 1159 1113 1420 752 
Q 1681 391 2138 391 
Q 2594 391 2855 752 
Q 3116 1113 3116 1747 
z
" transform="scale(0.015625)"/>
      <path id="DejaVuSans-63" d="M 3122 3366 
L 3122 2828 
Q 2878 2963 2633 3030 
Q 2388 3097 2138 3097 
Q 1578 3097 1268 2742 
Q 959 2388 959 1747 
Q 959 1106 1268 751 
Q 1578 397 2138 397 
Q 2388 397 2633 464 
Q 2878 531 3122 666 
L 3122 134 
Q 2881 22 2623 -34 
Q 2366 -91 2075 -91 
Q 1284 -91 818 406 
Q 353 903 353 1747 
Q 353 2603 823 3093 
Q 1294 3584 2113 3584 
Q 2378 3584 2631 3529 
Q 2884 3475 3122 3366 
z
" transform="scale(0.015625)"/>
      <path id="DejaVuSans-79" d="M 2059 -325 
Q 1816 -950 1584 -1140 
Q 1353 -1331 966 -1331 
L 506 -1331 
L 506 -850 
L 844 -850 
Q 1081 -850 1212 -737 
Q 1344 -625 1503 -206 
L 1606 56 
L 191 3500 
L 800 3500 
L 1894 763 
L 2988 3500 
L 3597 3500 
L 2059 -325 
z
" transform="scale(0.015625)"/>
     </defs>
     <use xlink:href="#DejaVuSans-28"/>
     <use xlink:href="#DejaVuSans-61" transform="translate(39.013672 0)"/>
     <use xlink:href="#DejaVuSans-29" transform="translate(100.292969 0)"/>
     <use xlink:href="#DejaVuSans-20" transform="translate(139.306641 0)"/>
     <use xlink:href="#DejaVuSans-20" transform="translate(171.09375 0)"/>
     <use xlink:href="#DejaVuSans-45" transform="translate(202.880859 0)"/>
     <use xlink:href="#DejaVuSans-6d" transform="translate(266.064453 0)"/>
     <use xlink:href="#DejaVuSans-69" transform="translate(363.476562 0)"/>
     <use xlink:href="#DejaVuSans-73" transform="translate(391.259766 0)"/>
     <use xlink:href="#DejaVuSans-73" transform="translate(443.359375 0)"/>
     <use xlink:href="#DejaVuSans-69" transform="translate(495.458984 0)"/>
     <use xlink:href="#DejaVuSans-6f" transform="translate(523.242188 0)"/>
     <use xlink:href="#DejaVuSans-6e" transform="translate(584.423828 0)"/>
     <use xlink:href="#DejaVuSans-73" transform="translate(647.802734 0)"/>
     <use xlink:href="#DejaVuSans-20" transform="translate(699.902344 0)"/>
     <use xlink:href="#DejaVuSans-76" transform="translate(731.689453 0)"/>
     <use xlink:href="#DejaVuSans-73" transform="translate(790.869141 0)"/>
     <use xlink:href="#DejaVuSans-2e" transform="translate(842.96875 0)"/>
     <use xlink:href="#DejaVuSans-20" transform="translate(874.755859 0)"/>
     <use xlink:href="#DejaVuSans-62" transform="translate(906.542969 0)"/>
     <use xlink:href="#DejaVuSans-69" transform="translate(970.019531 0)"/>
     <use xlink:href="#DejaVuSans-61" transform="translate(997.802734 0)"/>
     <use xlink:href="#DejaVuSans-73" transform="translate(1059.082031 0)"/>
     <use xlink:href="#DejaVuSans-20" transform="translate(1111.181641 0)"/>
     <use xlink:href="#DejaVuSans-77" transform="translate(1142.96875 0)"/>
     <use xlink:href="#DejaVuSans-65" transform="translate(1224.755859 0)"/>
     <use xlink:href="#DejaVuSans-69" transform="translate(1286.279297 0)"/>
     <use xlink:href="#DejaVuSans-67" transform="translate(1314.0625 0)"/>
     <use xlink:href="#DejaVuSans-68" transform="translate(1377.539062 0)"/>
     <use xlink:href="#DejaVuSans-74" transform="translate(1440.917969 0)"/>
     <use xlink:href="#DejaVuSans-20" transform="translate(1480.126953 0)"/>
     <use xlink:href="#DejaVuSans-20" transform="translate(1511.914062 0)"/>
     <use xlink:href="#DejaVuSans-28" transform="translate(1543.701172 0)"/>
     <use xlink:href="#DejaVuSans-6e" transform="translate(1582.714844 0)"/>
     <use xlink:href="#DejaVuSans-6f" transform="translate(1646.09375 0)"/>
     <use xlink:href="#DejaVuSans-20" transform="translate(1707.275391 0)"/>
     <use xlink:href="#DejaVuSans-70" transform="translate(1739.0625 0)"/>
     <use xlink:href="#DejaVuSans-6f" transform="translate(1802.539062 0)"/>
     <use xlink:href="#DejaVuSans-6c" transform="translate(1863.720703 0)"/>
     <use xlink:href="#DejaVuSans-69" transform="translate(1891.503906 0)"/>
     <use xlink:href="#DejaVuSans-63" transform="translate(1919.287109 0)"/>
     <use xlink:href="#DejaVuSans-79" transform="translate(1974.267578 0)"/>
     <use xlink:href="#DejaVuSans-29" transform="translate(2033.447266 0)"/>
    </g>
   </g>
   <g id="legend_1">
    <g id="patch_7">
     <path d="M 69.721563 301.387273 
L 197.041562 301.387273 
Q 199.441563 301.387273 199.441563 298.987273 
L 199.441563 282.573523 
Q 199.441563 280.173523 197.041562 280.173523 
L 69.721563 280.173523 
Q 67.321562 280.173523 67.321562 282.573523 
L 67.321562 298.987273 
Q 67.321562 301.387273 69.721563 301.387273 
z
" style="fill: #ffffff; opacity: 0.8; stroke: #cccccc; stroke-linejoin: miter"/>
    </g>
    <g id="line2d_59">
     <path d="M 72.121562 289.891648 
L 84.121562 289.891648 
L 96.121562 289.891648 
" style="fill: none; stroke-dasharray: 7.4,3.2; stroke-dashoffset: 0; stroke: #c46a3f; stroke-width: 2"/>
    </g>
    <g id="text_34">
     <!-- no bias ($\omega=0$) -->
     <g transform="translate(105.721563 294.091648) scale(0.12 -0.12)">
      <defs>
       <path id="DejaVuSans-3d" d="M 678 2906 
L 4684 2906 
L 4684 2381 
L 678 2381 
L 678 2906 
z
M 678 1631 
L 4684 1631 
L 4684 1100 
L 678 1100 
L 678 1631 
z
" transform="scale(0.015625)"/>
      </defs>
      <use xlink:href="#DejaVuSans-6e" transform="translate(0 0.015625)"/>
      <use xlink:href="#DejaVuSans-6f" transform="translate(63.378906 0.015625)"/>
      <use xlink:href="#DejaVuSans-20" transform="translate(124.560547 0.015625)"/>
      <use xlink:href="#DejaVuSans-62" transform="translate(156.347656 0.015625)"/>
      <use xlink:href="#DejaVuSans-69" transform="translate(219.824219 0.015625)"/>
      <use xlink:href="#DejaVuSans-61" transform="translate(247.607422 0.015625)"/>
      <use xlink:href="#DejaVuSans-73" transform="translate(308.886719 0.015625)"/>
      <use xlink:href="#DejaVuSans-20" transform="translate(360.986328 0.015625)"/>
      <use xlink:href="#DejaVuSans-28" transform="translate(392.773438 0.015625)"/>
      <use xlink:href="#DejaVuSans-Oblique-3c9" transform="translate(431.787109 0.015625)"/>
      <use xlink:href="#DejaVuSans-3d" transform="translate(535.009766 0.015625)"/>
      <use xlink:href="#DejaVuSans-30" transform="translate(638.28125 0.015625)"/>
      <use xlink:href="#DejaVuSans-29" transform="translate(701.904297 0.015625)"/>
     </g>
    </g>
   </g>
  </g>
  <g id="axes_2">
   <g id="patch_8">
    <path d="M 520.598165 307.387273 
L 885.490677 307.387273 
L 885.490677 76.625455 
L 520.598165 76.625455 
z
" style="fill: #ffffff"/>
   </g>
   <g id="line2d_60">
    <path d="M 537.184188 87.114628 
L 537.216348 87.894409 
L 537.207554 89.147729 
L 537.24766 90.401868 
L 537.300168 92.856324 
L 537.311261 93.590258 
L 537.364771 94.480325 
L 537.757672 101.610766 
L 537.8249 102.551739 
L 538.370293 107.235824 
L 538.985681 105.423927 
L 539.336561 113.222575 
L 539.47679 117.467835 
L 541.557767 145.529502 
L 542.24925 152.104181 
L 586.060008 144.491431 
L 679.678474 233.850727 
L 694.418811 277.467918 
L 867.03097 296.898099 
L 868.904654 296.801099 
" clip-path="url(#p4af1788705)" style="fill: none; stroke: #cccccc; stroke-linecap: square"/>
   </g>
   <g id="matplotlib.axis_3">
    <g id="xtick_21">
     <g id="line2d_61">
      <path d="M 541.714536 307.387273 
L 541.714536 76.625455 
" clip-path="url(#p4af1788705)" style="fill: none; stroke: #b0b0b0; stroke-opacity: 0.25; stroke-width: 0.6; stroke-linecap: square"/>
     </g>
     <g id="line2d_62">
      <g>
       <use xlink:href="#m9dd37c9d51" x="541.714536" y="307.387273" style="stroke: #000000; stroke-width: 0.8"/>
      </g>
     </g>
     <g id="text_35">
      <!-- 1000 -->
      <g transform="translate(526.444536 323.505398) scale(0.12 -0.12)">
       <use xlink:href="#DejaVuSans-31"/>
       <use xlink:href="#DejaVuSans-30" transform="translate(63.623047 0)"/>
       <use xlink:href="#DejaVuSans-30" transform="translate(127.246094 0)"/>
       <use xlink:href="#DejaVuSans-30" transform="translate(190.869141 0)"/>
      </g>
     </g>
    </g>
    <g id="xtick_22">
     <g id="line2d_63">
      <path d="M 584.082556 307.387273 
L 584.082556 76.625455 
" clip-path="url(#p4af1788705)" style="fill: none; stroke: #b0b0b0; stroke-opacity: 0.25; stroke-width: 0.6; stroke-linecap: square"/>
     </g>
     <g id="line2d_64">
      <g>
       <use xlink:href="#m9dd37c9d51" x="584.082556" y="307.387273" style="stroke: #000000; stroke-width: 0.8"/>
      </g>
     </g>
     <g id="text_36">
      <!-- 1050 -->
      <g transform="translate(568.812556 323.505398) scale(0.12 -0.12)">
       <use xlink:href="#DejaVuSans-31"/>
       <use xlink:href="#DejaVuSans-30" transform="translate(63.623047 0)"/>
       <use xlink:href="#DejaVuSans-35" transform="translate(127.246094 0)"/>
       <use xlink:href="#DejaVuSans-30" transform="translate(190.869141 0)"/>
      </g>
     </g>
    </g>
    <g id="xtick_23">
     <g id="line2d_65">
      <path d="M 626.450577 307.387273 
L 626.450577 76.625455 
" clip-path="url(#p4af1788705)" style="fill: none; stroke: #b0b0b0; stroke-opacity: 0.25; stroke-width: 0.6; stroke-linecap: square"/>
     </g>
     <g id="line2d_66">
      <g>
       <use xlink:href="#m9dd37c9d51" x="626.450577" y="307.387273" style="stroke: #000000; stroke-width: 0.8"/>
      </g>
     </g>
     <g id="text_37">
      <!-- 1100 -->
      <g transform="translate(611.180577 323.505398) scale(0.12 -0.12)">
       <use xlink:href="#DejaVuSans-31"/>
       <use xlink:href="#DejaVuSans-31" transform="translate(63.623047 0)"/>
       <use xlink:href="#DejaVuSans-30" transform="translate(127.246094 0)"/>
       <use xlink:href="#DejaVuSans-30" transform="translate(190.869141 0)"/>
      </g>
     </g>
    </g>
    <g id="xtick_24">
     <g id="line2d_67">
      <path d="M 668.818597 307.387273 
L 668.818597 76.625455 
" clip-path="url(#p4af1788705)" style="fill: none; stroke: #b0b0b0; stroke-opacity: 0.25; stroke-width: 0.6; stroke-linecap: square"/>
     </g>
     <g id="line2d_68">
      <g>
       <use xlink:href="#m9dd37c9d51" x="668.818597" y="307.387273" style="stroke: #000000; stroke-width: 0.8"/>
      </g>
     </g>
     <g id="text_38">
      <!-- 1150 -->
      <g transform="translate(653.548597 323.505398) scale(0.12 -0.12)">
       <use xlink:href="#DejaVuSans-31"/>
       <use xlink:href="#DejaVuSans-31" transform="translate(63.623047 0)"/>
       <use xlink:href="#DejaVuSans-35" transform="translate(127.246094 0)"/>
       <use xlink:href="#DejaVuSans-30" transform="translate(190.869141 0)"/>
      </g>
     </g>
    </g>
    <g id="xtick_25">
     <g id="line2d_69">
      <path d="M 711.186617 307.387273 
L 711.186617 76.625455 
" clip-path="url(#p4af1788705)" style="fill: none; stroke: #b0b0b0; stroke-opacity: 0.25; stroke-width: 0.6; stroke-linecap: square"/>
     </g>
     <g id="line2d_70">
      <g>
       <use xlink:href="#m9dd37c9d51" x="711.186617" y="307.387273" style="stroke: #000000; stroke-width: 0.8"/>
      </g>
     </g>
     <g id="text_39">
      <!-- 1200 -->
      <g transform="translate(695.916617 323.505398) scale(0.12 -0.12)">
       <use xlink:href="#DejaVuSans-31"/>
       <use xlink:href="#DejaVuSans-32" transform="translate(63.623047 0)"/>
       <use xlink:href="#DejaVuSans-30" transform="translate(127.246094 0)"/>
       <use xlink:href="#DejaVuSans-30" transform="translate(190.869141 0)"/>
      </g>
     </g>
    </g>
    <g id="xtick_26">
     <g id="line2d_71">
      <path d="M 753.554638 307.387273 
L 753.554638 76.625455 
" clip-path="url(#p4af1788705)" style="fill: none; stroke: #b0b0b0; stroke-opacity: 0.25; stroke-width: 0.6; stroke-linecap: square"/>
     </g>
     <g id="line2d_72">
      <g>
       <use xlink:href="#m9dd37c9d51" x="753.554638" y="307.387273" style="stroke: #000000; stroke-width: 0.8"/>
      </g>
     </g>
     <g id="text_40">
      <!-- 1250 -->
      <g transform="translate(738.284638 323.505398) scale(0.12 -0.12)">
       <use xlink:href="#DejaVuSans-31"/>
       <use xlink:href="#DejaVuSans-32" transform="translate(63.623047 0)"/>
       <use xlink:href="#DejaVuSans-35" transform="translate(127.246094 0)"/>
       <use xlink:href="#DejaVuSans-30" transform="translate(190.869141 0)"/>
      </g>
     </g>
    </g>
    <g id="xtick_27">
     <g id="line2d_73">
      <path d="M 795.922658 307.387273 
L 795.922658 76.625455 
" clip-path="url(#p4af1788705)" style="fill: none; stroke: #b0b0b0; stroke-opacity: 0.25; stroke-width: 0.6; stroke-linecap: square"/>
     </g>
     <g id="line2d_74">
      <g>
       <use xlink:href="#m9dd37c9d51" x="795.922658" y="307.387273" style="stroke: #000000; stroke-width: 0.8"/>
      </g>
     </g>
     <g id="text_41">
      <!-- 1300 -->
      <g transform="translate(780.652658 323.505398) scale(0.12 -0.12)">
       <use xlink:href="#DejaVuSans-31"/>
       <use xlink:href="#DejaVuSans-33" transform="translate(63.623047 0)"/>
       <use xlink:href="#DejaVuSans-30" transform="translate(127.246094 0)"/>
       <use xlink:href="#DejaVuSans-30" transform="translate(190.869141 0)"/>
      </g>
     </g>
    </g>
    <g id="xtick_28">
     <g id="line2d_75">
      <path d="M 838.290679 307.387273 
L 838.290679 76.625455 
" clip-path="url(#p4af1788705)" style="fill: none; stroke: #b0b0b0; stroke-opacity: 0.25; stroke-width: 0.6; stroke-linecap: square"/>
     </g>
     <g id="line2d_76">
      <g>
       <use xlink:href="#m9dd37c9d51" x="838.290679" y="307.387273" style="stroke: #000000; stroke-width: 0.8"/>
      </g>
     </g>
     <g id="text_42">
      <!-- 1350 -->
      <g transform="translate(823.020679 323.505398) scale(0.12 -0.12)">
       <use xlink:href="#DejaVuSans-31"/>
       <use xlink:href="#DejaVuSans-33" transform="translate(63.623047 0)"/>
       <use xlink:href="#DejaVuSans-35" transform="translate(127.246094 0)"/>
       <use xlink:href="#DejaVuSans-30" transform="translate(190.869141 0)"/>
      </g>
     </g>
    </g>
    <g id="xtick_29">
     <g id="line2d_77">
      <path d="M 880.658699 307.387273 
L 880.658699 76.625455 
" clip-path="url(#p4af1788705)" style="fill: none; stroke: #b0b0b0; stroke-opacity: 0.25; stroke-width: 0.6; stroke-linecap: square"/>
     </g>
     <g id="line2d_78">
      <g>
       <use xlink:href="#m9dd37c9d51" x="880.658699" y="307.387273" style="stroke: #000000; stroke-width: 0.8"/>
      </g>
     </g>
     <g id="text_43">
      <!-- 1400 -->
      <g transform="translate(865.388699 323.505398) scale(0.12 -0.12)">
       <use xlink:href="#DejaVuSans-31"/>
       <use xlink:href="#DejaVuSans-34" transform="translate(63.623047 0)"/>
       <use xlink:href="#DejaVuSans-30" transform="translate(127.246094 0)"/>
       <use xlink:href="#DejaVuSans-30" transform="translate(190.869141 0)"/>
      </g>
     </g>
    </g>
    <g id="text_44">
     <!-- Total system cost  [$10^3$ MEUR] -->
     <g transform="translate(604.114421 341.831023) scale(0.13 -0.13)">
      <defs>
       <path id="DejaVuSans-55" d="M 556 4666 
L 1191 4666 
L 1191 1831 
Q 1191 1081 1462 751 
Q 1734 422 2344 422 
Q 2950 422 3222 751 
Q 3494 1081 3494 1831 
L 3494 4666 
L 4128 4666 
L 4128 1753 
Q 4128 841 3676 375 
Q 3225 -91 2344 -91 
Q 1459 -91 1007 375 
Q 556 841 556 1753 
L 556 4666 
z
" transform="scale(0.015625)"/>
       <path id="DejaVuSans-52" d="M 2841 2188 
Q 3044 2119 3236 1894 
Q 3428 1669 3622 1275 
L 4263 0 
L 3584 0 
L 2988 1197 
Q 2756 1666 2539 1819 
Q 2322 1972 1947 1972 
L 1259 1972 
L 1259 0 
L 628 0 
L 628 4666 
L 2053 4666 
Q 2853 4666 3247 4331 
Q 3641 3997 3641 3322 
Q 3641 2881 3436 2590 
Q 3231 2300 2841 2188 
z
M 1259 4147 
L 1259 2491 
L 2053 2491 
Q 2509 2491 2742 2702 
Q 2975 2913 2975 3322 
Q 2975 3731 2742 3939 
Q 2509 4147 2053 4147 
L 1259 4147 
z
" transform="scale(0.015625)"/>
      </defs>
      <use xlink:href="#DejaVuSans-54" transform="translate(0 0.765625)"/>
      <use xlink:href="#DejaVuSans-6f" transform="translate(61.083984 0.765625)"/>
      <use xlink:href="#DejaVuSans-74" transform="translate(122.265625 0.765625)"/>
      <use xlink:href="#DejaVuSans-61" transform="translate(161.474609 0.765625)"/>
      <use xlink:href="#DejaVuSans-6c" transform="translate(222.753906 0.765625)"/>
      <use xlink:href="#DejaVuSans-20" transform="translate(250.537109 0.765625)"/>
      <use xlink:href="#DejaVuSans-73" transform="translate(282.324219 0.765625)"/>
      <use xlink:href="#DejaVuSans-79" transform="translate(334.423828 0.765625)"/>
      <use xlink:href="#DejaVuSans-73" transform="translate(393.603516 0.765625)"/>
      <use xlink:href="#DejaVuSans-74" transform="translate(445.703125 0.765625)"/>
      <use xlink:href="#DejaVuSans-65" transform="translate(484.912109 0.765625)"/>
      <use xlink:href="#DejaVuSans-6d" transform="translate(546.435547 0.765625)"/>
      <use xlink:href="#DejaVuSans-20" transform="translate(643.847656 0.765625)"/>
      <use xlink:href="#DejaVuSans-63" transform="translate(675.634766 0.765625)"/>
      <use xlink:href="#DejaVuSans-6f" transform="translate(730.615234 0.765625)"/>
      <use xlink:href="#DejaVuSans-73" transform="translate(791.796875 0.765625)"/>
      <use xlink:href="#DejaVuSans-74" transform="translate(843.896484 0.765625)"/>
      <use xlink:href="#DejaVuSans-20" transform="translate(883.105469 0.765625)"/>
      <use xlink:href="#DejaVuSans-20" transform="translate(914.892578 0.765625)"/>
      <use xlink:href="#DejaVuSans-5b" transform="translate(946.679688 0.765625)"/>
      <use xlink:href="#DejaVuSans-31" transform="translate(985.693359 0.765625)"/>
      <use xlink:href="#DejaVuSans-30" transform="translate(1049.316406 0.765625)"/>
      <use xlink:href="#DejaVuSans-33" transform="translate(1113.896484 39.046875) scale(0.7)"/>
      <use xlink:href="#DejaVuSans-20" transform="translate(1161.166992 0.765625)"/>
      <use xlink:href="#DejaVuSans-4d" transform="translate(1192.954102 0.765625)"/>
      <use xlink:href="#DejaVuSans-45" transform="translate(1279.233398 0.765625)"/>
      <use xlink:href="#DejaVuSans-55" transform="translate(1342.416992 0.765625)"/>
      <use xlink:href="#DejaVuSans-52" transform="translate(1413.360352 0.765625)"/>
      <use xlink:href="#DejaVuSans-5d" transform="translate(1482.842773 0.765625)"/>
     </g>
    </g>
   </g>
   <g id="matplotlib.axis_4">
    <g id="ytick_9">
     <g id="line2d_79">
      <path d="M 520.598165 281.138522 
L 885.490677 281.138522 
" clip-path="url(#p4af1788705)" style="fill: none; stroke: #b0b0b0; stroke-opacity: 0.25; stroke-width: 0.6; stroke-linecap: square"/>
     </g>
     <g id="line2d_80">
      <g>
       <use xlink:href="#m61b75b1edb" x="520.598165" y="281.138522" style="stroke: #000000; stroke-width: 0.8"/>
      </g>
     </g>
     <g id="text_45">
      <!-- 3200 -->
      <g transform="translate(483.058165 285.697585) scale(0.12 -0.12)">
       <use xlink:href="#DejaVuSans-33"/>
       <use xlink:href="#DejaVuSans-32" transform="translate(63.623047 0)"/>
       <use xlink:href="#DejaVuSans-30" transform="translate(127.246094 0)"/>
       <use xlink:href="#DejaVuSans-30" transform="translate(190.869141 0)"/>
      </g>
     </g>
    </g>
    <g id="ytick_10">
     <g id="line2d_81">
      <path d="M 520.598165 252.04484 
L 885.490677 252.04484 
" clip-path="url(#p4af1788705)" style="fill: none; stroke: #b0b0b0; stroke-opacity: 0.25; stroke-width: 0.6; stroke-linecap: square"/>
     </g>
     <g id="line2d_82">
      <g>
       <use xlink:href="#m61b75b1edb" x="520.598165" y="252.04484" style="stroke: #000000; stroke-width: 0.8"/>
      </g>
     </g>
     <g id="text_46">
      <!-- 3400 -->
      <g transform="translate(483.058165 256.603903) scale(0.12 -0.12)">
       <use xlink:href="#DejaVuSans-33"/>
       <use xlink:href="#DejaVuSans-34" transform="translate(63.623047 0)"/>
       <use xlink:href="#DejaVuSans-30" transform="translate(127.246094 0)"/>
       <use xlink:href="#DejaVuSans-30" transform="translate(190.869141 0)"/>
      </g>
     </g>
    </g>
    <g id="ytick_11">
     <g id="line2d_83">
      <path d="M 520.598165 222.951158 
L 885.490677 222.951158 
" clip-path="url(#p4af1788705)" style="fill: none; stroke: #b0b0b0; stroke-opacity: 0.25; stroke-width: 0.6; stroke-linecap: square"/>
     </g>
     <g id="line2d_84">
      <g>
       <use xlink:href="#m61b75b1edb" x="520.598165" y="222.951158" style="stroke: #000000; stroke-width: 0.8"/>
      </g>
     </g>
     <g id="text_47">
      <!-- 3600 -->
      <g transform="translate(483.058165 227.510221) scale(0.12 -0.12)">
       <use xlink:href="#DejaVuSans-33"/>
       <use xlink:href="#DejaVuSans-36" transform="translate(63.623047 0)"/>
       <use xlink:href="#DejaVuSans-30" transform="translate(127.246094 0)"/>
       <use xlink:href="#DejaVuSans-30" transform="translate(190.869141 0)"/>
      </g>
     </g>
    </g>
    <g id="ytick_12">
     <g id="line2d_85">
      <path d="M 520.598165 193.857477 
L 885.490677 193.857477 
" clip-path="url(#p4af1788705)" style="fill: none; stroke: #b0b0b0; stroke-opacity: 0.25; stroke-width: 0.6; stroke-linecap: square"/>
     </g>
     <g id="line2d_86">
      <g>
       <use xlink:href="#m61b75b1edb" x="520.598165" y="193.857477" style="stroke: #000000; stroke-width: 0.8"/>
      </g>
     </g>
     <g id="text_48">
      <!-- 3800 -->
      <g transform="translate(483.058165 198.416539) scale(0.12 -0.12)">
       <use xlink:href="#DejaVuSans-33"/>
       <use xlink:href="#DejaVuSans-38" transform="translate(63.623047 0)"/>
       <use xlink:href="#DejaVuSans-30" transform="translate(127.246094 0)"/>
       <use xlink:href="#DejaVuSans-30" transform="translate(190.869141 0)"/>
      </g>
     </g>
    </g>
    <g id="ytick_13">
     <g id="line2d_87">
      <path d="M 520.598165 164.763795 
L 885.490677 164.763795 
" clip-path="url(#p4af1788705)" style="fill: none; stroke: #b0b0b0; stroke-opacity: 0.25; stroke-width: 0.6; stroke-linecap: square"/>
     </g>
     <g id="line2d_88">
      <g>
       <use xlink:href="#m61b75b1edb" x="520.598165" y="164.763795" style="stroke: #000000; stroke-width: 0.8"/>
      </g>
     </g>
     <g id="text_49">
      <!-- 4000 -->
      <g transform="translate(483.058165 169.322857) scale(0.12 -0.12)">
       <use xlink:href="#DejaVuSans-34"/>
       <use xlink:href="#DejaVuSans-30" transform="translate(63.623047 0)"/>
       <use xlink:href="#DejaVuSans-30" transform="translate(127.246094 0)"/>
       <use xlink:href="#DejaVuSans-30" transform="translate(190.869141 0)"/>
      </g>
     </g>
    </g>
    <g id="ytick_14">
     <g id="line2d_89">
      <path d="M 520.598165 135.670113 
L 885.490677 135.670113 
" clip-path="url(#p4af1788705)" style="fill: none; stroke: #b0b0b0; stroke-opacity: 0.25; stroke-width: 0.6; stroke-linecap: square"/>
     </g>
     <g id="line2d_90">
      <g>
       <use xlink:href="#m61b75b1edb" x="520.598165" y="135.670113" style="stroke: #000000; stroke-width: 0.8"/>
      </g>
     </g>
     <g id="text_50">
      <!-- 4200 -->
      <g transform="translate(483.058165 140.229175) scale(0.12 -0.12)">
       <use xlink:href="#DejaVuSans-34"/>
       <use xlink:href="#DejaVuSans-32" transform="translate(63.623047 0)"/>
       <use xlink:href="#DejaVuSans-30" transform="translate(127.246094 0)"/>
       <use xlink:href="#DejaVuSans-30" transform="translate(190.869141 0)"/>
      </g>
     </g>
    </g>
    <g id="ytick_15">
     <g id="line2d_91">
      <path d="M 520.598165 106.576431 
L 885.490677 106.576431 
" clip-path="url(#p4af1788705)" style="fill: none; stroke: #b0b0b0; stroke-opacity: 0.25; stroke-width: 0.6; stroke-linecap: square"/>
     </g>
     <g id="line2d_92">
      <g>
       <use xlink:href="#m61b75b1edb" x="520.598165" y="106.576431" style="stroke: #000000; stroke-width: 0.8"/>
      </g>
     </g>
     <g id="text_51">
      <!-- 4400 -->
      <g transform="translate(483.058165 111.135493) scale(0.12 -0.12)">
       <use xlink:href="#DejaVuSans-34"/>
       <use xlink:href="#DejaVuSans-34" transform="translate(63.623047 0)"/>
       <use xlink:href="#DejaVuSans-30" transform="translate(127.246094 0)"/>
       <use xlink:href="#DejaVuSans-30" transform="translate(190.869141 0)"/>
      </g>
     </g>
    </g>
    <g id="ytick_16">
     <g id="line2d_93">
      <path d="M 520.598165 77.482749 
L 885.490677 77.482749 
" clip-path="url(#p4af1788705)" style="fill: none; stroke: #b0b0b0; stroke-opacity: 0.25; stroke-width: 0.6; stroke-linecap: square"/>
     </g>
     <g id="line2d_94">
      <g>
       <use xlink:href="#m61b75b1edb" x="520.598165" y="77.482749" style="stroke: #000000; stroke-width: 0.8"/>
      </g>
     </g>
     <g id="text_52">
      <!-- 4600 -->
      <g transform="translate(483.058165 82.041812) scale(0.12 -0.12)">
       <use xlink:href="#DejaVuSans-34"/>
       <use xlink:href="#DejaVuSans-36" transform="translate(63.623047 0)"/>
       <use xlink:href="#DejaVuSans-30" transform="translate(127.246094 0)"/>
       <use xlink:href="#DejaVuSans-30" transform="translate(190.869141 0)"/>
      </g>
     </g>
    </g>
    <g id="text_53">
     <!-- Total CO$_2$ emissions  [Mt CO$_2$] -->
     <g transform="translate(476.354571 289.636364) rotate(-90) scale(0.13 -0.13)">
      <use xlink:href="#DejaVuSans-54" transform="translate(0 0.015625)"/>
      <use xlink:href="#DejaVuSans-6f" transform="translate(61.083984 0.015625)"/>
      <use xlink:href="#DejaVuSans-74" transform="translate(122.265625 0.015625)"/>
      <use xlink:href="#DejaVuSans-61" transform="translate(161.474609 0.015625)"/>
      <use xlink:href="#DejaVuSans-6c" transform="translate(222.753906 0.015625)"/>
      <use xlink:href="#DejaVuSans-20" transform="translate(250.537109 0.015625)"/>
      <use xlink:href="#DejaVuSans-43" transform="translate(282.324219 0.015625)"/>
      <use xlink:href="#DejaVuSans-4f" transform="translate(352.148438 0.015625)"/>
      <use xlink:href="#DejaVuSans-32" transform="translate(431.816406 -16.390625) scale(0.7)"/>
      <use xlink:href="#DejaVuSans-20" transform="translate(479.086914 0.015625)"/>
      <use xlink:href="#DejaVuSans-65" transform="translate(510.874023 0.015625)"/>
      <use xlink:href="#DejaVuSans-6d" transform="translate(572.397461 0.015625)"/>
      <use xlink:href="#DejaVuSans-69" transform="translate(669.80957 0.015625)"/>
      <use xlink:href="#DejaVuSans-73" transform="translate(697.592773 0.015625)"/>
      <use xlink:href="#DejaVuSans-73" transform="translate(749.692383 0.015625)"/>
      <use xlink:href="#DejaVuSans-69" transform="translate(801.791992 0.015625)"/>
      <use xlink:href="#DejaVuSans-6f" transform="translate(829.575195 0.015625)"/>
      <use xlink:href="#DejaVuSans-6e" transform="translate(890.756836 0.015625)"/>
      <use xlink:href="#DejaVuSans-73" transform="translate(954.135742 0.015625)"/>
      <use xlink:href="#DejaVuSans-20" transform="translate(1006.235352 0.015625)"/>
      <use xlink:href="#DejaVuSans-20" transform="translate(1038.022461 0.015625)"/>
      <use xlink:href="#DejaVuSans-5b" transform="translate(1069.80957 0.015625)"/>
      <use xlink:href="#DejaVuSans-4d" transform="translate(1108.823242 0.015625)"/>
      <use xlink:href="#DejaVuSans-74" transform="translate(1195.102539 0.015625)"/>
      <use xlink:href="#DejaVuSans-20" transform="translate(1234.311523 0.015625)"/>
      <use xlink:href="#DejaVuSans-43" transform="translate(1266.098633 0.015625)"/>
      <use xlink:href="#DejaVuSans-4f" transform="translate(1335.922852 0.015625)"/>
      <use xlink:href="#DejaVuSans-32" transform="translate(1415.59082 -16.390625) scale(0.7)"/>
      <use xlink:href="#DejaVuSans-5d" transform="translate(1462.861328 0.015625)"/>
     </g>
    </g>
   </g>
   <g id="patch_9">
    <path d="M 520.598165 307.387273 
L 520.598165 76.625455 
" style="fill: none; stroke: #000000; stroke-width: 0.8; stroke-linejoin: miter; stroke-linecap: square"/>
   </g>
   <g id="patch_10">
    <path d="M 520.598165 307.387273 
L 885.490677 307.387273 
" style="fill: none; stroke: #000000; stroke-width: 0.8; stroke-linejoin: miter; stroke-linecap: square"/>
   </g>
   <g id="PathCollection_1">
    <defs>
     <path id="C0_0_f7f1c1579e" d="M 0 3.872983 
C 1.027127 3.872983 2.012324 3.464901 2.738613 2.738613 
C 3.464901 2.012324 3.872983 1.027127 3.872983 -0 
C 3.872983 -1.027127 3.464901 -2.012324 2.738613 -2.738613 
C 2.012324 -3.464901 1.027127 -3.872983 0 -3.872983 
C -1.027127 -3.872983 -2.012324 -3.464901 -2.738613 -2.738613 
C -3.464901 -2.012324 -3.872983 -1.027127 -3.872983 0 
C -3.872983 1.027127 -3.464901 2.012324 -2.738613 2.738613 
C -2.012324 3.464901 -1.027127 3.872983 0 3.872983 
z
"/>
    </defs>
    <g clip-path="url(#p4af1788705)">
     <use xlink:href="#C0_0_f7f1c1579e" x="537.184188" y="87.114628" style="fill: #1b9e77; stroke: #333333; stroke-width: 0.8"/>
    </g>
    <g clip-path="url(#p4af1788705)">
     <use xlink:href="#C0_0_f7f1c1579e" x="537.216348" y="87.894409" style="fill: #1b9e77; stroke: #333333; stroke-width: 0.8"/>
    </g>
    <g clip-path="url(#p4af1788705)">
     <use xlink:href="#C0_0_f7f1c1579e" x="537.207554" y="89.147729" style="fill: #1b9e77; stroke: #333333; stroke-width: 0.8"/>
    </g>
    <g clip-path="url(#p4af1788705)">
     <use xlink:href="#C0_0_f7f1c1579e" x="537.24766" y="90.401868" style="fill: #1b9e77; stroke: #333333; stroke-width: 0.8"/>
    </g>
    <g clip-path="url(#p4af1788705)">
     <use xlink:href="#C0_0_f7f1c1579e" x="537.300168" y="92.856324" style="fill: #1b9e77; stroke: #333333; stroke-width: 0.8"/>
    </g>
    <g clip-path="url(#p4af1788705)">
     <use xlink:href="#C0_0_f7f1c1579e" x="537.311261" y="93.590258" style="fill: #1b9e77; stroke: #333333; stroke-width: 0.8"/>
    </g>
    <g clip-path="url(#p4af1788705)">
     <use xlink:href="#C0_0_f7f1c1579e" x="537.364771" y="94.480325" style="fill: #1b9e77; stroke: #333333; stroke-width: 0.8"/>
    </g>
    <g clip-path="url(#p4af1788705)">
     <use xlink:href="#C0_0_f7f1c1579e" x="537.757672" y="101.610766" style="fill: #1b9e77; stroke: #333333; stroke-width: 0.8"/>
    </g>
    <g clip-path="url(#p4af1788705)">
     <use xlink:href="#C0_0_f7f1c1579e" x="537.8249" y="102.551739" style="fill: #1b9e77; stroke: #333333; stroke-width: 0.8"/>
    </g>
    <g clip-path="url(#p4af1788705)">
     <use xlink:href="#C0_0_f7f1c1579e" x="538.370293" y="107.235824" style="fill: #1b9e77; stroke: #333333; stroke-width: 0.8"/>
    </g>
    <g clip-path="url(#p4af1788705)">
     <use xlink:href="#C0_0_f7f1c1579e" x="538.985681" y="105.423927" style="fill: #1b9e77; stroke: #333333; stroke-width: 0.8"/>
    </g>
    <g clip-path="url(#p4af1788705)">
     <use xlink:href="#C0_0_f7f1c1579e" x="539.336561" y="113.222575" style="fill: #1b9e77; stroke: #333333; stroke-width: 0.8"/>
    </g>
    <g clip-path="url(#p4af1788705)">
     <use xlink:href="#C0_0_f7f1c1579e" x="539.47679" y="117.467835" style="fill: #999999; stroke: #333333; stroke-width: 0.8"/>
    </g>
    <g clip-path="url(#p4af1788705)">
     <use xlink:href="#C0_0_f7f1c1579e" x="541.557767" y="145.529502" style="fill: #999999; stroke: #333333; stroke-width: 0.8"/>
    </g>
    <g clip-path="url(#p4af1788705)">
     <use xlink:href="#C0_0_f7f1c1579e" x="542.24925" y="152.104181" style="fill: #999999; stroke: #333333; stroke-width: 0.8"/>
    </g>
    <g clip-path="url(#p4af1788705)">
     <use xlink:href="#C0_0_f7f1c1579e" x="586.060008" y="144.491431" style="fill: #b23b3b; stroke: #333333; stroke-width: 0.8"/>
    </g>
    <g clip-path="url(#p4af1788705)">
     <use xlink:href="#C0_0_f7f1c1579e" x="679.678474" y="233.850727" style="fill: #b23b3b; stroke: #333333; stroke-width: 0.8"/>
    </g>
    <g clip-path="url(#p4af1788705)">
     <use xlink:href="#C0_0_f7f1c1579e" x="694.418811" y="277.467918" style="fill: #b23b3b; stroke: #333333; stroke-width: 0.8"/>
    </g>
    <g clip-path="url(#p4af1788705)">
     <use xlink:href="#C0_0_f7f1c1579e" x="867.03097" y="296.898099" style="fill: #b23b3b; stroke: #333333; stroke-width: 0.8"/>
    </g>
    <g clip-path="url(#p4af1788705)">
     <use xlink:href="#C0_0_f7f1c1579e" x="868.904654" y="296.801099" style="fill: #b23b3b; stroke: #333333; stroke-width: 0.8"/>
    </g>
   </g>
   <g id="text_54">
    <!-- $\omega$=0 -->
    <g style="fill: #444444" transform="translate(543.184188 84.114628) scale(0.1 -0.1)">
     <use xlink:href="#DejaVuSans-Oblique-3c9" transform="translate(0 0.78125)"/>
     <use xlink:href="#DejaVuSans-3d" transform="translate(83.740234 0.78125)"/>
     <use xlink:href="#DejaVuSans-30" transform="translate(167.529297 0.78125)"/>
    </g>
   </g>
   <g id="text_55">
    <!-- $\omega$=0.5 -->
    <g style="fill: #444444" transform="translate(543.364771 91.480325) scale(0.1 -0.1)">
     <use xlink:href="#DejaVuSans-Oblique-3c9" transform="translate(0 0.78125)"/>
     <use xlink:href="#DejaVuSans-3d" transform="translate(83.740234 0.78125)"/>
     <use xlink:href="#DejaVuSans-30" transform="translate(167.529297 0.78125)"/>
     <use xlink:href="#DejaVuSans-2e" transform="translate(231.152344 0.78125)"/>
     <use xlink:href="#DejaVuSans-35" transform="translate(262.939453 0.78125)"/>
    </g>
   </g>
   <g id="text_56">
    <!-- $\omega$=1 -->
    <g style="fill: #444444" transform="translate(545.47679 114.467835) scale(0.1 -0.1)">
     <use xlink:href="#DejaVuSans-Oblique-3c9" transform="translate(0 0.09375)"/>
     <use xlink:href="#DejaVuSans-3d" transform="translate(83.740234 0.09375)"/>
     <use xlink:href="#DejaVuSans-31" transform="translate(167.529297 0.09375)"/>
    </g>
   </g>
   <g id="text_57">
    <!-- $\omega$=2 -->
    <g style="fill: #444444" transform="translate(548.24925 149.104181) scale(0.1 -0.1)">
     <use xlink:href="#DejaVuSans-Oblique-3c9" transform="translate(0 0.78125)"/>
     <use xlink:href="#DejaVuSans-3d" transform="translate(83.740234 0.78125)"/>
     <use xlink:href="#DejaVuSans-32" transform="translate(167.529297 0.78125)"/>
    </g>
   </g>
   <g id="text_58">
    <!-- $\omega$=5 -->
    <g style="fill: #444444" transform="translate(685.678474 230.850727) scale(0.1 -0.1)">
     <use xlink:href="#DejaVuSans-Oblique-3c9" transform="translate(0 0.09375)"/>
     <use xlink:href="#DejaVuSans-3d" transform="translate(83.740234 0.09375)"/>
     <use xlink:href="#DejaVuSans-35" transform="translate(167.529297 0.09375)"/>
    </g>
   </g>
   <g id="text_59">
    <!-- $\omega$=100 -->
    <g style="fill: #444444" transform="translate(874.904654 293.801099) scale(0.1 -0.1)">
     <use xlink:href="#DejaVuSans-Oblique-3c9" transform="translate(0 0.78125)"/>
     <use xlink:href="#DejaVuSans-3d" transform="translate(83.740234 0.78125)"/>
     <use xlink:href="#DejaVuSans-31" transform="translate(167.529297 0.78125)"/>
     <use xlink:href="#DejaVuSans-30" transform="translate(231.152344 0.78125)"/>
     <use xlink:href="#DejaVuSans-30" transform="translate(294.775391 0.78125)"/>
    </g>
   </g>
   <g id="text_60">
    <!-- (b)  Cost–emission trade-off -->
    <g transform="translate(605.843952 70.625455) scale(0.14 -0.14)">
     <defs>
      <path id="DejaVuSans-2013" d="M 313 1978 
L 2888 1978 
L 2888 1528 
L 313 1528 
L 313 1978 
z
" transform="scale(0.015625)"/>
      <path id="DejaVuSans-72" d="M 2631 2963 
Q 2534 3019 2420 3045 
Q 2306 3072 2169 3072 
Q 1681 3072 1420 2755 
Q 1159 2438 1159 1844 
L 1159 0 
L 581 0 
L 581 3500 
L 1159 3500 
L 1159 2956 
Q 1341 3275 1631 3429 
Q 1922 3584 2338 3584 
Q 2397 3584 2469 3576 
Q 2541 3569 2628 3553 
L 2631 2963 
z
" transform="scale(0.015625)"/>
      <path id="DejaVuSans-64" d="M 2906 2969 
L 2906 4863 
L 3481 4863 
L 3481 0 
L 2906 0 
L 2906 525 
Q 2725 213 2448 61 
Q 2172 -91 1784 -91 
Q 1150 -91 751 415 
Q 353 922 353 1747 
Q 353 2572 751 3078 
Q 1150 3584 1784 3584 
Q 2172 3584 2448 3432 
Q 2725 3281 2906 2969 
z
M 947 1747 
Q 947 1113 1208 752 
Q 1469 391 1925 391 
Q 2381 391 2643 752 
Q 2906 1113 2906 1747 
Q 2906 2381 2643 2742 
Q 2381 3103 1925 3103 
Q 1469 3103 1208 2742 
Q 947 2381 947 1747 
z
" transform="scale(0.015625)"/>
      <path id="DejaVuSans-66" d="M 2375 4863 
L 2375 4384 
L 1825 4384 
Q 1516 4384 1395 4259 
Q 1275 4134 1275 3809 
L 1275 3500 
L 2222 3500 
L 2222 3053 
L 1275 3053 
L 1275 0 
L 697 0 
L 697 3053 
L 147 3053 
L 147 3500 
L 697 3500 
L 697 3744 
Q 697 4328 969 4595 
Q 1241 4863 1831 4863 
L 2375 4863 
z
" transform="scale(0.015625)"/>
     </defs>
     <use xlink:href="#DejaVuSans-28"/>
     <use xlink:href="#DejaVuSans-62" transform="translate(39.013672 0)"/>
     <use xlink:href="#DejaVuSans-29" transform="translate(102.490234 0)"/>
     <use xlink:href="#DejaVuSans-20" transform="translate(141.503906 0)"/>
     <use xlink:href="#DejaVuSans-20" transform="translate(173.291016 0)"/>
     <use xlink:href="#DejaVuSans-43" transform="translate(205.078125 0)"/>
     <use xlink:href="#DejaVuSans-6f" transform="translate(274.902344 0)"/>
     <use xlink:href="#DejaVuSans-73" transform="translate(336.083984 0)"/>
     <use xlink:href="#DejaVuSans-74" transform="translate(388.183594 0)"/>
     <use xlink:href="#DejaVuSans-2013" transform="translate(427.392578 0)"/>
     <use xlink:href="#DejaVuSans-65" transform="translate(477.392578 0)"/>
     <use xlink:href="#DejaVuSans-6d" transform="translate(538.916016 0)"/>
     <use xlink:href="#DejaVuSans-69" transform="translate(636.328125 0)"/>
     <use xlink:href="#DejaVuSans-73" transform="translate(664.111328 0)"/>
     <use xlink:href="#DejaVuSans-73" transform="translate(716.210938 0)"/>
     <use xlink:href="#DejaVuSans-69" transform="translate(768.310547 0)"/>
     <use xlink:href="#DejaVuSans-6f" transform="translate(796.09375 0)"/>
     <use xlink:href="#DejaVuSans-6e" transform="translate(857.275391 0)"/>
     <use xlink:href="#DejaVuSans-20" transform="translate(920.654297 0)"/>
     <use xlink:href="#DejaVuSans-74" transform="translate(952.441406 0)"/>
     <use xlink:href="#DejaVuSans-72" transform="translate(991.650391 0)"/>
     <use xlink:href="#DejaVuSans-61" transform="translate(1032.763672 0)"/>
     <use xlink:href="#DejaVuSans-64" transform="translate(1094.042969 0)"/>
     <use xlink:href="#DejaVuSans-65" transform="translate(1157.519531 0)"/>
     <use xlink:href="#DejaVuSans-2d" transform="translate(1219.042969 0)"/>
     <use xlink:href="#DejaVuSans-6f" transform="translate(1257.001953 0)"/>
     <use xlink:href="#DejaVuSans-66" transform="translate(1318.183594 0)"/>
     <use xlink:href="#DejaVuSans-66" transform="translate(1353.388672 0)"/>
    </g>
   </g>
   <g id="legend_2">
    <g id="patch_11">
     <path d="M 722.890677 139.092955 
L 877.090677 139.092955 
Q 879.490677 139.092955 879.490677 136.692955 
L 879.490677 85.025455 
Q 879.490677 82.625455 877.090677 82.625455 
L 722.890677 82.625455 
Q 720.490677 82.625455 720.490677 85.025455 
L 720.490677 136.692955 
Q 720.490677 139.092955 722.890677 139.092955 
z
" style="fill: #ffffff; opacity: 0.8; stroke: #cccccc; stroke-linejoin: miter"/>
    </g>
    <g id="line2d_95">
     <defs>
      <path id="m959a19487d" d="M 0 3 
C 0.795609 3 1.55874 2.683901 2.12132 2.12132 
C 2.683901 1.55874 3 0.795609 3 0 
C 3 -0.795609 2.683901 -1.55874 2.12132 -2.12132 
C 1.55874 -2.683901 0.795609 -3 0 -3 
C -0.795609 -3 -1.55874 -2.683901 -2.12132 -2.12132 
C -2.683901 -1.55874 -3 -0.795609 -3 0 
C -3 0.795609 -2.683901 1.55874 -2.12132 2.12132 
C -1.55874 2.683901 -0.795609 3 0 3 
z
" style="stroke: #333333"/>
     </defs>
     <g>
      <use xlink:href="#m959a19487d" x="737.290677" y="92.34358" style="fill: #1b9e77; stroke: #333333"/>
     </g>
    </g>
    <g id="text_61">
     <!-- valid $\omega&lt;1$ -->
     <g transform="translate(758.890677 96.54358) scale(0.12 -0.12)">
      <defs>
       <path id="DejaVuSans-3c" d="M 4684 3150 
L 1459 2003 
L 4684 863 
L 4684 294 
L 678 1747 
L 678 2266 
L 4684 3719 
L 4684 3150 
z
" transform="scale(0.015625)"/>
      </defs>
      <use xlink:href="#DejaVuSans-76" transform="translate(0 0.015625)"/>
      <use xlink:href="#DejaVuSans-61" transform="translate(59.179688 0.015625)"/>
      <use xlink:href="#DejaVuSans-6c" transform="translate(120.458984 0.015625)"/>
      <use xlink:href="#DejaVuSans-69" transform="translate(148.242188 0.015625)"/>
      <use xlink:href="#DejaVuSans-64" transform="translate(176.025391 0.015625)"/>
      <use xlink:href="#DejaVuSans-20" transform="translate(239.501953 0.015625)"/>
      <use xlink:href="#DejaVuSans-Oblique-3c9" transform="translate(271.289062 0.015625)"/>
      <use xlink:href="#DejaVuSans-3c" transform="translate(374.511719 0.015625)"/>
      <use xlink:href="#DejaVuSans-31" transform="translate(477.783203 0.015625)"/>
     </g>
    </g>
    <g id="line2d_96">
     <defs>
      <path id="mffb8db886d" d="M 0 3 
C 0.795609 3 1.55874 2.683901 2.12132 2.12132 
C 2.683901 1.55874 3 0.795609 3 0 
C 3 -0.795609 2.683901 -1.55874 2.12132 -2.12132 
C 1.55874 -2.683901 0.795609 -3 0 -3 
C -0.795609 -3 -1.55874 -2.683901 -2.12132 -2.12132 
C -2.683901 -1.55874 -3 -0.795609 -3 0 
C -3 0.795609 -2.683901 1.55874 -2.12132 2.12132 
C -1.55874 2.683901 -0.795609 3 0 3 
z
" style="stroke: #333333"/>
     </defs>
     <g>
      <use xlink:href="#mffb8db886d" x="737.290677" y="109.95733" style="fill: #999999; stroke: #333333"/>
     </g>
    </g>
    <g id="text_62">
     <!-- transition $1\leq\omega&lt;3$ -->
     <g transform="translate(758.890677 114.15733) scale(0.12 -0.12)">
      <defs>
       <path id="DejaVuSans-2264" d="M 4684 3175 
L 1684 2309 
L 4684 1453 
L 4684 897 
L 678 2047 
L 678 2578 
L 4684 3725 
L 4684 3175 
z
M 678 531 
L 4684 531 
L 4684 0 
L 678 0 
L 678 531 
z
" transform="scale(0.015625)"/>
      </defs>
      <use xlink:href="#DejaVuSans-74" transform="translate(0 0.015625)"/>
      <use xlink:href="#DejaVuSans-72" transform="translate(39.208984 0.015625)"/>
      <use xlink:href="#DejaVuSans-61" transform="translate(80.322266 0.015625)"/>
      <use xlink:href="#DejaVuSans-6e" transform="translate(141.601562 0.015625)"/>
      <use xlink:href="#DejaVuSans-73" transform="translate(204.980469 0.015625)"/>
      <use xlink:href="#DejaVuSans-69" transform="translate(257.080078 0.015625)"/>
      <use xlink:href="#DejaVuSans-74" transform="translate(284.863281 0.015625)"/>
      <use xlink:href="#DejaVuSans-69" transform="translate(324.072266 0.015625)"/>
      <use xlink:href="#DejaVuSans-6f" transform="translate(351.855469 0.015625)"/>
      <use xlink:href="#DejaVuSans-6e" transform="translate(413.037109 0.015625)"/>
      <use xlink:href="#DejaVuSans-20" transform="translate(476.416016 0.015625)"/>
      <use xlink:href="#DejaVuSans-31" transform="translate(508.203125 0.015625)"/>
      <use xlink:href="#DejaVuSans-2264" transform="translate(591.308594 0.015625)"/>
      <use xlink:href="#DejaVuSans-Oblique-3c9" transform="translate(694.580078 0.015625)"/>
      <use xlink:href="#DejaVuSans-3c" transform="translate(797.802734 0.015625)"/>
      <use xlink:href="#DejaVuSans-33" transform="translate(901.074219 0.015625)"/>
     </g>
    </g>
    <g id="line2d_97">
     <defs>
      <path id="md6b1179457" d="M 0 3 
C 0.795609 3 1.55874 2.683901 2.12132 2.12132 
C 2.683901 1.55874 3 0.795609 3 0 
C 3 -0.795609 2.683901 -1.55874 2.12132 -2.12132 
C 1.55874 -2.683901 0.795609 -3 0 -3 
C -0.795609 -3 -1.55874 -2.683901 -2.12132 -2.12132 
C -2.683901 -1.55874 -3 -0.795609 -3 0 
C -3 0.795609 -2.683901 1.55874 -2.12132 2.12132 
C -1.55874 2.683901 -0.795609 3 0 3 
z
" style="stroke: #333333"/>
     </defs>
     <g>
      <use xlink:href="#md6b1179457" x="737.290677" y="127.572955" style="fill: #b23b3b; stroke: #333333"/>
     </g>
    </g>
    <g id="text_63">
     <!-- degenerate $\omega\geq3$ -->
     <g transform="translate(758.890677 131.772955) scale(0.12 -0.12)">
      <defs>
       <path id="DejaVuSans-2265" d="M 678 3175 
L 678 3725 
L 4684 2578 
L 4684 2047 
L 678 897 
L 678 1453 
L 3681 2309 
L 678 3175 
z
M 4684 531 
L 4684 0 
L 678 0 
L 678 531 
L 4684 531 
z
" transform="scale(0.015625)"/>
      </defs>
      <use xlink:href="#DejaVuSans-64" transform="translate(0 0.015625)"/>
      <use xlink:href="#DejaVuSans-65" transform="translate(63.476562 0.015625)"/>
      <use xlink:href="#DejaVuSans-67" transform="translate(125 0.015625)"/>
      <use xlink:href="#DejaVuSans-65" transform="translate(188.476562 0.015625)"/>
      <use xlink:href="#DejaVuSans-6e" transform="translate(250 0.015625)"/>
      <use xlink:href="#DejaVuSans-65" transform="translate(313.378906 0.015625)"/>
      <use xlink:href="#DejaVuSans-72" transform="translate(374.902344 0.015625)"/>
      <use xlink:href="#DejaVuSans-61" transform="translate(416.015625 0.015625)"/>
      <use xlink:href="#DejaVuSans-74" transform="translate(477.294922 0.015625)"/>
      <use xlink:href="#DejaVuSans-65" transform="translate(516.503906 0.015625)"/>
      <use xlink:href="#DejaVuSans-20" transform="translate(578.027344 0.015625)"/>
      <use xlink:href="#DejaVuSans-Oblique-3c9" transform="translate(609.814453 0.015625)"/>
      <use xlink:href="#DejaVuSans-2265" transform="translate(713.037109 0.015625)"/>
      <use xlink:href="#DejaVuSans-33" transform="translate(816.308594 0.015625)"/>
     </g>
    </g>
   </g>
  </g>
  <g id="text_64">
   <!-- CO$_2$ emissions under the profitability bias (no CO$_2$ cap) -->
   <g transform="translate(251.771562 18.6) scale(0.15 -0.15)">
    <defs>
     <path id="DejaVuSans-75" d="M 544 1381 
L 544 3500 
L 1119 3500 
L 1119 1403 
Q 1119 906 1312 657 
Q 1506 409 1894 409 
Q 2359 409 2629 706 
Q 2900 1003 2900 1516 
L 2900 3500 
L 3475 3500 
L 3475 0 
L 2900 0 
L 2900 538 
Q 2691 219 2414 64 
Q 2138 -91 1772 -91 
Q 1169 -91 856 284 
Q 544 659 544 1381 
z
M 1991 3584 
L 1991 3584 
z
" transform="scale(0.015625)"/>
    </defs>
    <use xlink:href="#DejaVuSans-43" transform="translate(0 0.015625)"/>
    <use xlink:href="#DejaVuSans-4f" transform="translate(69.824219 0.015625)"/>
    <use xlink:href="#DejaVuSans-32" transform="translate(149.492188 -16.390625) scale(0.7)"/>
    <use xlink:href="#DejaVuSans-20" transform="translate(196.762695 0.015625)"/>
    <use xlink:href="#DejaVuSans-65" transform="translate(228.549805 0.015625)"/>
    <use xlink:href="#DejaVuSans-6d" transform="translate(290.073242 0.015625)"/>
    <use xlink:href="#DejaVuSans-69" transform="translate(387.485352 0.015625)"/>
    <use xlink:href="#DejaVuSans-73" transform="translate(415.268555 0.015625)"/>
    <use xlink:href="#DejaVuSans-73" transform="translate(467.368164 0.015625)"/>
    <use xlink:href="#DejaVuSans-69" transform="translate(519.467773 0.015625)"/>
    <use xlink:href="#DejaVuSans-6f" transform="translate(547.250977 0.015625)"/>
    <use xlink:href="#DejaVuSans-6e" transform="translate(608.432617 0.015625)"/>
    <use xlink:href="#DejaVuSans-73" transform="translate(671.811523 0.015625)"/>
    <use xlink:href="#DejaVuSans-20" transform="translate(723.911133 0.015625)"/>
    <use xlink:href="#DejaVuSans-75" transform="translate(755.698242 0.015625)"/>
    <use xlink:href="#DejaVuSans-6e" transform="translate(819.077148 0.015625)"/>
    <use xlink:href="#DejaVuSans-64" transform="translate(882.456055 0.015625)"/>
    <use xlink:href="#DejaVuSans-65" transform="translate(945.932617 0.015625)"/>
    <use xlink:href="#DejaVuSans-72" transform="translate(1007.456055 0.015625)"/>
    <use xlink:href="#DejaVuSans-20" transform="translate(1048.569336 0.015625)"/>
    <use xlink:href="#DejaVuSans-74" transform="translate(1080.356445 0.015625)"/>
    <use xlink:href="#DejaVuSans-68" transform="translate(1119.56543 0.015625)"/>
    <use xlink:href="#DejaVuSans-65" transform="translate(1182.944336 0.015625)"/>
    <use xlink:href="#DejaVuSans-20" transform="translate(1244.467773 0.015625)"/>
    <use xlink:href="#DejaVuSans-70" transform="translate(1276.254883 0.015625)"/>
    <use xlink:href="#DejaVuSans-72" transform="translate(1339.731445 0.015625)"/>
    <use xlink:href="#DejaVuSans-6f" transform="translate(1380.844727 0.015625)"/>
    <use xlink:href="#DejaVuSans-66" transform="translate(1442.026367 0.015625)"/>
    <use xlink:href="#DejaVuSans-69" transform="translate(1477.231445 0.015625)"/>
    <use xlink:href="#DejaVuSans-74" transform="translate(1505.014648 0.015625)"/>
    <use xlink:href="#DejaVuSans-61" transform="translate(1544.223633 0.015625)"/>
    <use xlink:href="#DejaVuSans-62" transform="translate(1605.50293 0.015625)"/>
    <use xlink:href="#DejaVuSans-69" transform="translate(1668.979492 0.015625)"/>
    <use xlink:href="#DejaVuSans-6c" transform="translate(1696.762695 0.015625)"/>
    <use xlink:href="#DejaVuSans-69" transform="translate(1724.545898 0.015625)"/>
    <use xlink:href="#DejaVuSans-74" transform="translate(1752.329102 0.015625)"/>
    <use xlink:href="#DejaVuSans-79" transform="translate(1791.538086 0.015625)"/>
    <use xlink:href="#DejaVuSans-20" transform="translate(1850.717773 0.015625)"/>
    <use xlink:href="#DejaVuSans-62" transform="translate(1882.504883 0.015625)"/>
    <use xlink:href="#DejaVuSans-69" transform="translate(1945.981445 0.015625)"/>
    <use xlink:href="#DejaVuSans-61" transform="translate(1973.764648 0.015625)"/>
    <use xlink:href="#DejaVuSans-73" transform="translate(2035.043945 0.015625)"/>
    <use xlink:href="#DejaVuSans-20" transform="translate(2087.143555 0.015625)"/>
    <use xlink:href="#DejaVuSans-28" transform="translate(2118.930664 0.015625)"/>
    <use xlink:href="#DejaVuSans-6e" transform="translate(2157.944336 0.015625)"/>
    <use xlink:href="#DejaVuSans-6f" transform="translate(2221.323242 0.015625)"/>
    <use xlink:href="#DejaVuSans-20" transform="translate(2282.504883 0.015625)"/>
    <use xlink:href="#DejaVuSans-43" transform="translate(2314.291992 0.015625)"/>
    <use xlink:href="#DejaVuSans-4f" transform="translate(2384.116211 0.015625)"/>
    <use xlink:href="#DejaVuSans-32" transform="translate(2463.78418 -16.390625) scale(0.7)"/>
    <use xlink:href="#DejaVuSans-20" transform="translate(2511.054688 0.015625)"/>
    <use xlink:href="#DejaVuSans-63" transform="translate(2542.841797 0.015625)"/>
    <use xlink:href="#DejaVuSans-61" transform="translate(2597.822266 0.015625)"/>
    <use xlink:href="#DejaVuSans-70" transform="translate(2659.101562 0.015625)"/>
    <use xlink:href="#DejaVuSans-29" transform="translate(2722.578125 0.015625)"/>
   </g>
  </g>
 </g>
 <defs>
  <clipPath id="p1417312b2e">
   <rect x="61.321563" y="76.625455" width="364.892512" height="230.761818"/>
  </clipPath>
  <clipPath id="p4af1788705">
   <rect x="520.598165" y="76.625455" width="364.892512" height="230.761818"/>
  </clipPath>
 </defs>
</svg>
